<svg id="Layer_1" data-name="Layer 1" xmlns="http://www.w3.org/2000/svg" viewBox="0 0 711.66 751.86"><defs><style>.cls-1{fill:#fff;}.cls-2,.cls-3,.cls-5,.cls-7{fill:none;}.cls-2{stroke:#000;}.cls-2,.cls-3,.cls-7{stroke-linecap:round;stroke-linejoin:round;}.cls-2,.cls-7{stroke-width:2px;}.cls-3,.cls-5{stroke:#268bd2;stroke-width:3px;}.cls-4{fill:#268bd2;}.cls-5{stroke-miterlimit:10;}.cls-6{fill:#f6f8f5;}.cls-7{stroke:#073642;}.cls-8{fill:#073642;}.cls-9{fill:#fdf6e3;}.cls-10{fill:#fdfcf9;}</style></defs><title>Artboard 1</title><rect class="cls-1" x="15.37" y="110.63" width="684" height="486"/><rect class="cls-2" x="15.37" y="110.63" width="684" height="486"/><line class="cls-3" x1="357.87" y1="263.63" x2="357.87" y2="310.73"/><polygon class="cls-4" points="357.87 321.93 362.07 310.73 353.67 310.73 357.87 321.93"/><polygon class="cls-5" points="357.87 321.93 362.07 310.73 353.67 310.73 357.87 321.93"/><line class="cls-3" x1="447.37" y1="232.13" x2="473.3" y2="260.83"/><polygon class="cls-4" points="480.8 269.14 476.41 258.02 470.18 263.65 480.8 269.14"/><polygon class="cls-5" points="480.8 269.14 476.41 258.02 470.18 263.65 480.8 269.14"/><rect class="cls-6" x="267.37" y="11.63" width="180" height="63"/><rect class="cls-7" x="267.37" y="11.63" width="180" height="63"/><path class="cls-8" d="M303.92,34.24l4.67,6.43h-2.78l-4.31-6.17h-.41v6.17h-2.28V25.58h2.67a6.66,6.66,0,0,1,4.32,1.12,4.13,4.13,0,0,1,1.46,3.3,4.29,4.29,0,0,1-.92,2.75A4.09,4.09,0,0,1,303.92,34.24Zm-2.83-1.73h.72Q305,32.51,305,30q0-2.31-3.14-2.31h-.81Z"/><path class="cls-8" d="M318.78,36.42H312a2.89,2.89,0,0,0,.76,1.87,2.32,2.32,0,0,0,1.73.68,2.25,2.25,0,0,0,1.36-.39,5.56,5.56,0,0,0,1.2-1.45l1.86,1a7.41,7.41,0,0,1-.91,1.25,4.81,4.81,0,0,1-1,.86,4.12,4.12,0,0,1-1.18.49,5.74,5.74,0,0,1-1.38.16A4.48,4.48,0,0,1,311,39.57a5.13,5.13,0,0,1-1.29-3.65,5.27,5.27,0,0,1,1.25-3.65,4.76,4.76,0,0,1,6.66,0,5.26,5.26,0,0,1,1.21,3.68Zm-2.26-1.8a2.11,2.11,0,0,0-2.22-1.76,2.28,2.28,0,0,0-.75.12,2.14,2.14,0,0,0-.64.35,2.24,2.24,0,0,0-.49.55,2.57,2.57,0,0,0-.31.73Z"/><path class="cls-8" d="M328.19,45.84V39.6a4.16,4.16,0,0,1-6.18-.08A5.14,5.14,0,0,1,320.73,36,5.29,5.29,0,0,1,322,32.33a4.15,4.15,0,0,1,3.23-1.45,4.06,4.06,0,0,1,2.95,1.3v-1h2.21V45.84Zm-5.21-10a3.3,3.3,0,0,0,.74,2.24,2.36,2.36,0,0,0,1.88.88,2.51,2.51,0,0,0,2-.84,3.18,3.18,0,0,0,.76-2.21,3.25,3.25,0,0,0-.75-2.21,2.48,2.48,0,0,0-2-.85,2.43,2.43,0,0,0-1.89.86A3.14,3.14,0,0,0,323,35.86Z"/><path class="cls-8" d="M335.59,31.15v5.46q0,2.36,1.87,2.36t1.87-2.36V31.15h2.2v5.51a6.14,6.14,0,0,1-.28,2,3.32,3.32,0,0,1-.95,1.34,4.62,4.62,0,0,1-5.65,0,3.36,3.36,0,0,1-1-1.34,5.43,5.43,0,0,1-.27-2V31.15Z"/><path class="cls-8" d="M344,27.19a1.43,1.43,0,0,1,1.43-1.42,1.38,1.38,0,0,1,1,.42,1.35,1.35,0,0,1,.42,1,1.38,1.38,0,0,1-.42,1,1.35,1.35,0,0,1-1,.42A1.43,1.43,0,0,1,344,27.19Zm2.53,4v9.51h-2.2V31.15Z"/><path class="cls-8" d="M349.27,31.15h2.2V32a4.2,4.2,0,0,1,1.07-.87,2.46,2.46,0,0,1,1.13-.24,3.55,3.55,0,0,1,1.82.57l-1,2a2.1,2.1,0,0,0-1.22-.45q-1.8,0-1.8,2.71v4.93h-2.2Z"/><path class="cls-8" d="M365.3,36.42h-6.82a2.89,2.89,0,0,0,.76,1.87A2.32,2.32,0,0,0,361,39a2.25,2.25,0,0,0,1.36-.39,5.56,5.56,0,0,0,1.2-1.45l1.86,1a7.36,7.36,0,0,1-.91,1.25,4.84,4.84,0,0,1-1,.86,4.12,4.12,0,0,1-1.18.49,5.73,5.73,0,0,1-1.38.16,4.48,4.48,0,0,1-3.42-1.37,5.13,5.13,0,0,1-1.29-3.65,5.27,5.27,0,0,1,1.25-3.65,4.76,4.76,0,0,1,6.66,0,5.26,5.26,0,0,1,1.21,3.68ZM363,34.63a2.1,2.1,0,0,0-2.22-1.76,2.29,2.29,0,0,0-.75.12,2.14,2.14,0,0,0-.64.35,2.23,2.23,0,0,0-.49.55,2.56,2.56,0,0,0-.31.73Z"/><path class="cls-8" d="M367.7,31.15h2.2V32a4.59,4.59,0,0,1,1.08-.9,2.63,2.63,0,0,1,1.2-.24,2.92,2.92,0,0,1,2.55,1.41,3.3,3.3,0,0,1,2.8-1.41q3.21,0,3.21,3.9v5.88h-2.21V35.38a4.07,4.07,0,0,0-.33-1.93,1.2,1.2,0,0,0-1.12-.58,1.43,1.43,0,0,0-1.32.68,4.41,4.41,0,0,0-.42,2.2v4.91h-2.21V35.41q0-2.54-1.46-2.54a1.47,1.47,0,0,0-1.35.69,4.32,4.32,0,0,0-.42,2.19v4.91h-2.2Z"/><path class="cls-8" d="M392.18,36.42h-6.82a2.89,2.89,0,0,0,.76,1.87,2.32,2.32,0,0,0,1.73.68,2.25,2.25,0,0,0,1.36-.39,5.56,5.56,0,0,0,1.2-1.45l1.86,1a7.36,7.36,0,0,1-.91,1.25,4.84,4.84,0,0,1-1,.86,4.12,4.12,0,0,1-1.18.49,5.73,5.73,0,0,1-1.38.16,4.48,4.48,0,0,1-3.42-1.37,5.13,5.13,0,0,1-1.29-3.65,5.27,5.27,0,0,1,1.25-3.65,4.76,4.76,0,0,1,6.66,0,5.26,5.26,0,0,1,1.21,3.68Zm-2.26-1.8a2.1,2.1,0,0,0-2.22-1.76A2.29,2.29,0,0,0,387,33a2.14,2.14,0,0,0-.64.35,2.23,2.23,0,0,0-.49.55,2.56,2.56,0,0,0-.31.73Z"/><path class="cls-8" d="M394.58,31.15h2.21V32a3.6,3.6,0,0,1,2.6-1.14,3.28,3.28,0,0,1,2.59,1,4.28,4.28,0,0,1,.8,2.9v5.83h-2.21V35.35a3.48,3.48,0,0,0-.39-1.94,1.58,1.58,0,0,0-1.39-.55,1.7,1.7,0,0,0-1.55.72,5,5,0,0,0-.45,2.49v4.59h-2.21Z"/><path class="cls-8" d="M407.82,33.2v7.46h-2.2V33.2h-.94V31.15h.94V27.66h2.2v3.49h1.71V33.2Z"/><path class="cls-8" d="M416.55,32.77l-1.82,1q-.43-.88-1.06-.88a.73.73,0,0,0-.52.2.67.67,0,0,0-.21.51q0,.55,1.27,1.08A7.57,7.57,0,0,1,416.56,36a2.37,2.37,0,0,1,.61,1.71,3,3,0,0,1-1,2.3,3.64,3.64,0,0,1-5.77-1.46l1.88-.87a4.09,4.09,0,0,0,.6.87,1.36,1.36,0,0,0,1,.37q1.11,0,1.11-1,0-.59-.86-1.09l-.66-.32-.67-.32a4.13,4.13,0,0,1-1.35-.94,2.31,2.31,0,0,1-.5-1.53,2.71,2.71,0,0,1,.85-2.05,3,3,0,0,1,2.11-.81A2.88,2.88,0,0,1,416.55,32.77Z"/><path class="cls-8" d="M323.65,49.54l1.52.59a18.77,18.77,0,0,0-1.12,3.53,16.6,16.6,0,0,0-.24,1.72q-.08.91-.08,2t.08,2a16.53,16.53,0,0,0,.24,1.72,18.13,18.13,0,0,0,1.12,3.52l-1.52.59a18,18,0,0,1-1.6-7.81A18,18,0,0,1,323.65,49.54Z"/><path class="cls-8" d="M329.26,50.72v9.71h3.33V62h-5V50.72Z"/><path class="cls-8" d="M335.91,57.44V62H334.2V50.72h1.93a8.78,8.78,0,0,1,2.15.2,2.88,2.88,0,0,1,1.29.75,3.22,3.22,0,0,1,1,2.4,3.1,3.1,0,0,1-1,2.46,4.12,4.12,0,0,1-2.81.91Zm0-1.58h.64q2.35,0,2.35-1.81t-2.42-1.75h-.56Z"/><path class="cls-8" d="M341.91,62l2.38-12.16,3.88,8.79,4-8.79L354.33,62h-1.75l-1.09-6.83-3.35,7.35-3.25-7.35L343.67,62Z"/><path class="cls-8" d="M357.43,59.91l1.46.57-2.09,4.18-1.11-.46Z"/><path class="cls-8" d="M367.69,50.72v9.71H371V62h-5V50.72Z"/><path class="cls-8" d="M379.06,52.41l-1.38.82a2.39,2.39,0,0,0-.74-.88,2,2,0,0,0-2.12.17,1.25,1.25,0,0,0-.47,1q0,.83,1.23,1.33l1.13.46a4.81,4.81,0,0,1,2,1.36,3.06,3.06,0,0,1,.64,2,3.46,3.46,0,0,1-1,2.58,3.57,3.57,0,0,1-2.6,1,3.47,3.47,0,0,1-2.43-.87,4,4,0,0,1-1.18-2.45l1.73-.38a2.94,2.94,0,0,0,.41,1.38,1.95,1.95,0,0,0,2.86.2,1.85,1.85,0,0,0,.53-1.36,1.92,1.92,0,0,0-.09-.6,1.53,1.53,0,0,0-.29-.5,2.27,2.27,0,0,0-.5-.43,4.88,4.88,0,0,0-.73-.38l-1.09-.46q-2.32-1-2.32-2.87a2.72,2.72,0,0,1,1-2.13A3.52,3.52,0,0,1,376,50.5,3.39,3.39,0,0,1,379.06,52.41Z"/><path class="cls-8" d="M387.65,52.33h-4.53V55h4.4v1.6h-4.4v3.78h4.53V62h-6.24V50.72h6.24Z"/><path class="cls-8" d="M391.07,65.17l-1.52-.59a18.14,18.14,0,0,0,1.12-3.52,18.16,18.16,0,0,0-1.12-10.93l1.52-.59a18,18,0,0,1,1.6,7.82A18,18,0,0,1,391.07,65.17Z"/><rect class="cls-9" x="267.37" y="200.63" width="180" height="63"/><rect class="cls-7" x="267.37" y="200.63" width="180" height="63"/><path class="cls-8" d="M276.08,229.66V214.58h3.16a11.5,11.5,0,0,1,3.59.45,6.73,6.73,0,0,1,2.57,1.49,7.8,7.8,0,0,1-.1,11.22,7.11,7.11,0,0,1-2.56,1.49,11.64,11.64,0,0,1-3.54.42Zm2.28-2.14h1a8.56,8.56,0,0,0,2.55-.32,5.18,5.18,0,0,0,3.52-5.08,5.24,5.24,0,0,0-1.66-4,6.29,6.29,0,0,0-4.4-1.38h-1Z"/><path class="cls-8" d="M298.84,225.42H292a2.89,2.89,0,0,0,.76,1.87,2.32,2.32,0,0,0,1.73.68,2.25,2.25,0,0,0,1.36-.39,5.56,5.56,0,0,0,1.2-1.45l1.86,1a7.41,7.41,0,0,1-.91,1.25,4.81,4.81,0,0,1-1,.86,4.12,4.12,0,0,1-1.18.49,5.74,5.74,0,0,1-1.38.16,4.48,4.48,0,0,1-3.42-1.37,5.13,5.13,0,0,1-1.29-3.65,5.27,5.27,0,0,1,1.25-3.65,4.76,4.76,0,0,1,6.66,0,5.26,5.26,0,0,1,1.21,3.68Zm-2.26-1.8a2.11,2.11,0,0,0-2.22-1.76,2.28,2.28,0,0,0-.75.12,2.14,2.14,0,0,0-.64.35,2.24,2.24,0,0,0-.49.55,2.57,2.57,0,0,0-.31.73Z"/><path class="cls-8" d="M306.77,221.77l-1.82,1q-.43-.88-1.06-.88a.73.73,0,0,0-.52.2.67.67,0,0,0-.21.51q0,.55,1.27,1.08a7.57,7.57,0,0,1,2.35,1.39,2.37,2.37,0,0,1,.61,1.71,3,3,0,0,1-1,2.3,3.64,3.64,0,0,1-5.77-1.46l1.88-.87a4.07,4.07,0,0,0,.6.87,1.36,1.36,0,0,0,1,.37q1.11,0,1.11-1,0-.59-.86-1.09l-.66-.32-.67-.32a4.12,4.12,0,0,1-1.35-.94,2.31,2.31,0,0,1-.5-1.53,2.71,2.71,0,0,1,.85-2.05,3,3,0,0,1,2.11-.81A2.88,2.88,0,0,1,306.77,221.77Z"/><path class="cls-8" d="M309,216.19a1.43,1.43,0,0,1,1.43-1.42,1.38,1.38,0,0,1,1,.42,1.35,1.35,0,0,1,.42,1,1.38,1.38,0,0,1-.42,1,1.35,1.35,0,0,1-1,.42,1.38,1.38,0,0,1-1-.42A1.4,1.4,0,0,1,309,216.19Zm2.53,4v9.51h-2.2v-9.51Z"/><path class="cls-8" d="M323.54,229.44q0,.67,0,1.19a8.22,8.22,0,0,1-.12.9,4,4,0,0,1-.92,1.85,4.45,4.45,0,0,1-3.54,1.48,4.73,4.73,0,0,1-3.13-1,4.19,4.19,0,0,1-1.46-2.92h2.21a2.5,2.5,0,0,0,.42,1.08,2.36,2.36,0,0,0,2,.89q2.41,0,2.41-3V228.6a4.1,4.1,0,0,1-3,1.34,4.05,4.05,0,0,1-3.18-1.41,5.21,5.21,0,0,1-1.25-3.56,5.49,5.49,0,0,1,1.16-3.54,4,4,0,0,1,3.3-1.54,3.83,3.83,0,0,1,3,1.34v-1.07h2.2Zm-2.11-4.51a3.2,3.2,0,0,0-.74-2.22,2.45,2.45,0,0,0-1.92-.85,2.37,2.37,0,0,0-2,.93,3.82,3.82,0,0,0,0,4.28,2.37,2.37,0,0,0,2,.91,2.41,2.41,0,0,0,2-.92A3.27,3.27,0,0,0,321.43,224.93Z"/><path class="cls-8" d="M326.31,220.15h2.21V221a3.6,3.6,0,0,1,2.6-1.14,3.28,3.28,0,0,1,2.59,1,4.28,4.28,0,0,1,.8,2.9v5.83H332.3v-5.31a3.48,3.48,0,0,0-.39-1.94,1.58,1.58,0,0,0-1.39-.55,1.7,1.7,0,0,0-1.55.72,5,5,0,0,0-.45,2.49v4.59h-2.21Z"/><path class="cls-8" d="M343.87,229.66V214.58H347a11.51,11.51,0,0,1,3.59.45,6.73,6.73,0,0,1,2.57,1.49,7.8,7.8,0,0,1-.1,11.22,7.11,7.11,0,0,1-2.56,1.49,11.63,11.63,0,0,1-3.54.42Zm2.28-2.14h1a8.55,8.55,0,0,0,2.55-.32,5.18,5.18,0,0,0,3.52-5.08,5.24,5.24,0,0,0-1.66-4,6.29,6.29,0,0,0-4.4-1.38h-1Z"/><path class="cls-8" d="M357.52,224.84a4.73,4.73,0,0,1,1.47-3.51,5.2,5.2,0,0,1,7.21,0,5.09,5.09,0,0,1,0,7.16,5,5,0,0,1-3.64,1.44,4.83,4.83,0,0,1-3.58-1.46A4.93,4.93,0,0,1,357.52,224.84Zm2.25,0a3.21,3.21,0,0,0,.76,2.26,3,3,0,0,0,4.12,0,3.57,3.57,0,0,0,0-4.43,2.92,2.92,0,0,0-4.1,0A3.06,3.06,0,0,0,359.77,224.88Z"/><path class="cls-8" d="M377.4,220.56v2.92a5.33,5.33,0,0,0-1.35-1.26,2.63,2.63,0,0,0-1.38-.35,2.71,2.71,0,0,0-2.06.87,3,3,0,0,0-.82,2.18,3.12,3.12,0,0,0,.79,2.2,2.67,2.67,0,0,0,2,.86,2.79,2.79,0,0,0,1.4-.34,5.55,5.55,0,0,0,1.38-1.29v2.9a5.77,5.77,0,0,1-2.68.69,5.12,5.12,0,0,1-3.69-1.43,4.76,4.76,0,0,1-1.48-3.56,4.82,4.82,0,0,1,1.5-3.59,5.09,5.09,0,0,1,3.69-1.46A5.52,5.52,0,0,1,377.4,220.56Z"/><path class="cls-8" d="M381.72,220.15v5.46q0,2.36,1.87,2.36t1.87-2.36v-5.46h2.2v5.51a6.14,6.14,0,0,1-.28,2,3.32,3.32,0,0,1-.95,1.34,4.62,4.62,0,0,1-5.65,0,3.36,3.36,0,0,1-1-1.34,5.43,5.43,0,0,1-.27-2v-5.51Z"/><path class="cls-8" d="M390.42,220.15h2.2V221a4.59,4.59,0,0,1,1.08-.9,2.63,2.63,0,0,1,1.2-.24,2.92,2.92,0,0,1,2.55,1.41,3.3,3.3,0,0,1,2.8-1.41q3.21,0,3.21,3.9v5.88h-2.21v-5.28a4.07,4.07,0,0,0-.33-1.93,1.2,1.2,0,0,0-1.12-.58,1.43,1.43,0,0,0-1.32.68,4.41,4.41,0,0,0-.42,2.2v4.91h-2.21v-5.25q0-2.54-1.46-2.54a1.47,1.47,0,0,0-1.35.69,4.32,4.32,0,0,0-.42,2.19v4.91h-2.2Z"/><path class="cls-8" d="M414.91,225.42h-6.82a2.89,2.89,0,0,0,.76,1.87,2.32,2.32,0,0,0,1.73.68,2.25,2.25,0,0,0,1.36-.39,5.56,5.56,0,0,0,1.2-1.45l1.86,1a7.36,7.36,0,0,1-.91,1.25,4.84,4.84,0,0,1-1,.86,4.12,4.12,0,0,1-1.18.49,5.73,5.73,0,0,1-1.38.16,4.48,4.48,0,0,1-3.42-1.37,5.13,5.13,0,0,1-1.29-3.65,5.27,5.27,0,0,1,1.25-3.65,4.76,4.76,0,0,1,6.66,0,5.26,5.26,0,0,1,1.21,3.68Zm-2.26-1.8a2.1,2.1,0,0,0-2.22-1.76,2.29,2.29,0,0,0-.75.12,2.14,2.14,0,0,0-.64.35,2.23,2.23,0,0,0-.49.55,2.56,2.56,0,0,0-.31.73Z"/><path class="cls-8" d="M417.31,220.15h2.21V221a3.6,3.6,0,0,1,2.6-1.14,3.28,3.28,0,0,1,2.59,1,4.28,4.28,0,0,1,.8,2.9v5.83h-2.21v-5.31a3.48,3.48,0,0,0-.39-1.94,1.58,1.58,0,0,0-1.39-.55,1.7,1.7,0,0,0-1.55.72,5,5,0,0,0-.45,2.49v4.59h-2.21Z"/><path class="cls-8" d="M430.54,222.2v7.46h-2.2V222.2h-.94v-2.05h.94v-3.49h2.2v3.49h1.71v2.05Z"/><path class="cls-8" d="M439.27,221.77l-1.82,1q-.43-.88-1.06-.88a.73.73,0,0,0-.52.2.67.67,0,0,0-.21.51q0,.55,1.27,1.08a7.57,7.57,0,0,1,2.35,1.39,2.37,2.37,0,0,1,.61,1.71,3,3,0,0,1-1,2.3,3.64,3.64,0,0,1-5.77-1.46l1.88-.87a4.09,4.09,0,0,0,.6.87,1.36,1.36,0,0,0,1,.37q1.11,0,1.11-1,0-.59-.86-1.09l-.66-.32-.67-.32a4.13,4.13,0,0,1-1.35-.94,2.31,2.31,0,0,1-.5-1.53,2.71,2.71,0,0,1,.85-2.05,3,3,0,0,1,2.11-.81A2.88,2.88,0,0,1,439.27,221.77Z"/><path class="cls-8" d="M338.85,238.54l1.52.59a18.77,18.77,0,0,0-1.12,3.53,16.34,16.34,0,0,0-.24,1.72q-.08.91-.08,2t.08,2a16.27,16.27,0,0,0,.24,1.72,18.13,18.13,0,0,0,1.12,3.52l-1.52.59a19.93,19.93,0,0,1,0-15.63Z"/><path class="cls-8" d="M344.45,239.72v9.71h3.33V251h-5V239.72Z"/><path class="cls-8" d="M349.4,251V239.72h2.37a8.64,8.64,0,0,1,2.7.34,5,5,0,0,1,1.93,1.12,5.85,5.85,0,0,1-.07,8.42,5.33,5.33,0,0,1-1.92,1.12,8.74,8.74,0,0,1-2.66.31Zm1.71-1.6h.77a6.42,6.42,0,0,0,1.91-.24,3.88,3.88,0,0,0,2.64-3.81,3.93,3.93,0,0,0-1.25-3,4.72,4.72,0,0,0-3.3-1h-.77Z"/><path class="cls-8" d="M359.89,251l2.38-12.16,3.88,8.79,4-8.79L372.31,251h-1.75l-1.09-6.83-3.35,7.35-3.25-7.35L361.66,251Z"/><path class="cls-8" d="M375.89,254.17l-1.52-.59a18.14,18.14,0,0,0,1.12-3.52,18.16,18.16,0,0,0-1.12-10.93l1.52-.59a19.91,19.91,0,0,1,0,15.63Z"/><line class="cls-3" x1="357.87" y1="74.63" x2="357.87" y2="184.73"/><polygon class="cls-4" points="357.87 195.93 362.07 184.73 353.67 184.73 357.87 195.93"/><polygon class="cls-5" points="357.87 195.93 362.07 184.73 353.67 184.73 357.87 195.93"/><rect class="cls-9" x="42.37" y="200.63" width="162" height="63"/><rect class="cls-7" x="42.37" y="200.63" width="162" height="63"/><path class="cls-8" d="M57.58,216.72v12.94H55.31V216.72H51.84v-2.14H61v2.14Z"/><path class="cls-8" d="M70.49,225.42H63.68a2.89,2.89,0,0,0,.76,1.87,2.32,2.32,0,0,0,1.73.68,2.25,2.25,0,0,0,1.36-.39,5.56,5.56,0,0,0,1.2-1.45l1.86,1a7.41,7.41,0,0,1-.91,1.25,4.81,4.81,0,0,1-1,.86,4.12,4.12,0,0,1-1.18.49,5.74,5.74,0,0,1-1.38.16,4.48,4.48,0,0,1-3.42-1.37,5.13,5.13,0,0,1-1.29-3.65,5.27,5.27,0,0,1,1.25-3.65,4.76,4.76,0,0,1,6.66,0,5.26,5.26,0,0,1,1.21,3.68Zm-2.26-1.8A2.11,2.11,0,0,0,66,221.87a2.28,2.28,0,0,0-.75.12,2.14,2.14,0,0,0-.64.35,2.24,2.24,0,0,0-.49.55,2.57,2.57,0,0,0-.31.73Z"/><path class="cls-8" d="M80.3,220.56v2.92a5.35,5.35,0,0,0-1.35-1.26,2.63,2.63,0,0,0-1.38-.35,2.72,2.72,0,0,0-2.06.87,3,3,0,0,0-.82,2.18,3.12,3.12,0,0,0,.79,2.2,2.67,2.67,0,0,0,2,.86,2.8,2.8,0,0,0,1.4-.34,5.55,5.55,0,0,0,1.38-1.29v2.9a5.77,5.77,0,0,1-2.68.69,5.12,5.12,0,0,1-3.69-1.43,4.76,4.76,0,0,1-1.48-3.56,4.82,4.82,0,0,1,1.5-3.59,5.09,5.09,0,0,1,3.69-1.46A5.52,5.52,0,0,1,80.3,220.56Z"/><path class="cls-8" d="M82.93,213.17h2.2v7.77a3.78,3.78,0,0,1,2.59-1.05,3.34,3.34,0,0,1,2.58,1,4.25,4.25,0,0,1,.82,2.9v5.83h-2.2V224a2.68,2.68,0,0,0-.41-1.66,1.56,1.56,0,0,0-1.3-.51,1.79,1.79,0,0,0-1.62.71,4.89,4.89,0,0,0-.46,2.48v4.6h-2.2Z"/><path class="cls-8" d="M93.89,220.15H96.1V221a3.6,3.6,0,0,1,2.6-1.14,3.28,3.28,0,0,1,2.59,1,4.28,4.28,0,0,1,.8,2.9v5.83H99.88v-5.31a3.49,3.49,0,0,0-.39-1.94,1.58,1.58,0,0,0-1.39-.55,1.7,1.7,0,0,0-1.55.72,5,5,0,0,0-.45,2.49v4.59H93.89Z"/><path class="cls-8" d="M104.53,216.19a1.43,1.43,0,0,1,1.43-1.42,1.38,1.38,0,0,1,1,.42,1.35,1.35,0,0,1,.42,1,1.38,1.38,0,0,1-.42,1,1.35,1.35,0,0,1-1,.42,1.38,1.38,0,0,1-1-.42A1.4,1.4,0,0,1,104.53,216.19Zm2.53,4v9.51h-2.2v-9.51Z"/><path class="cls-8" d="M117.24,220.56v2.92a5.35,5.35,0,0,0-1.35-1.26,2.63,2.63,0,0,0-1.38-.35,2.72,2.72,0,0,0-2.06.87,3,3,0,0,0-.82,2.18,3.12,3.12,0,0,0,.79,2.2,2.67,2.67,0,0,0,2,.86,2.8,2.8,0,0,0,1.4-.34,5.55,5.55,0,0,0,1.38-1.29v2.9a5.77,5.77,0,0,1-2.68.69,5.12,5.12,0,0,1-3.69-1.43,4.76,4.76,0,0,1-1.48-3.56,4.82,4.82,0,0,1,1.5-3.59,5.09,5.09,0,0,1,3.69-1.46A5.52,5.52,0,0,1,117.24,220.56Z"/><path class="cls-8" d="M126.38,220.15h2.21v9.51h-2.21v-1a4.22,4.22,0,0,1-6.18-.16,5.3,5.3,0,0,1-1.28-3.63,5.14,5.14,0,0,1,1.28-3.56,4.12,4.12,0,0,1,3.2-1.43,4,4,0,0,1,3,1.37Zm-5.21,4.73a3.31,3.31,0,0,0,.73,2.23,2.4,2.4,0,0,0,1.89.87,2.52,2.52,0,0,0,2-.84,3.61,3.61,0,0,0,0-4.41,2.49,2.49,0,0,0-2-.85,2.43,2.43,0,0,0-1.89.86A3.17,3.17,0,0,0,121.17,224.88Z"/><path class="cls-8" d="M133.56,213.17v16.49h-2.2V213.17Z"/><path class="cls-8" d="M142.93,229.66v-16.1l11,11.5V214.58h2.28v16l-11-11.47v10.56Z"/><path class="cls-8" d="M159.07,224.84a4.73,4.73,0,0,1,1.47-3.51,5.2,5.2,0,0,1,7.21,0,5.09,5.09,0,0,1,0,7.16,5,5,0,0,1-3.64,1.44,4.83,4.83,0,0,1-3.58-1.46A4.93,4.93,0,0,1,159.07,224.84Zm2.25,0a3.21,3.21,0,0,0,.76,2.26,3,3,0,0,0,4.12,0,3.57,3.57,0,0,0,0-4.43,2.92,2.92,0,0,0-4.1,0A3.05,3.05,0,0,0,161.32,224.88Z"/><path class="cls-8" d="M173.91,222.2v7.46h-2.2V222.2h-.94v-2.05h.94v-3.49h2.2v3.49h1.71v2.05Z"/><path class="cls-8" d="M185.93,225.42h-6.82a2.89,2.89,0,0,0,.76,1.87,2.32,2.32,0,0,0,1.73.68,2.25,2.25,0,0,0,1.36-.39,5.56,5.56,0,0,0,1.2-1.45l1.86,1a7.41,7.41,0,0,1-.91,1.25,4.81,4.81,0,0,1-1,.86,4.12,4.12,0,0,1-1.18.49,5.74,5.74,0,0,1-1.38.16,4.48,4.48,0,0,1-3.42-1.37,5.13,5.13,0,0,1-1.29-3.65,5.27,5.27,0,0,1,1.25-3.65,4.76,4.76,0,0,1,6.66,0,5.26,5.26,0,0,1,1.21,3.68Zm-2.26-1.8a2.11,2.11,0,0,0-2.22-1.76,2.28,2.28,0,0,0-.75.12,2.14,2.14,0,0,0-.64.35,2.24,2.24,0,0,0-.49.55,2.57,2.57,0,0,0-.31.73Z"/><path class="cls-8" d="M193.86,221.77l-1.82,1q-.43-.88-1.06-.88a.73.73,0,0,0-.52.2.67.67,0,0,0-.21.51q0,.55,1.27,1.08a7.57,7.57,0,0,1,2.35,1.39,2.37,2.37,0,0,1,.61,1.71,3,3,0,0,1-1,2.3,3.64,3.64,0,0,1-5.77-1.46l1.88-.87a4.07,4.07,0,0,0,.6.87,1.36,1.36,0,0,0,1,.37q1.11,0,1.11-1,0-.59-.86-1.09l-.66-.32-.67-.32a4.12,4.12,0,0,1-1.35-.94,2.31,2.31,0,0,1-.5-1.53,2.71,2.71,0,0,1,.85-2.05,3,3,0,0,1,2.11-.81A2.88,2.88,0,0,1,193.86,221.77Z"/><path class="cls-8" d="M77.76,238.54l1.52.59a18.77,18.77,0,0,0-1.12,3.53,16.6,16.6,0,0,0-.24,1.72q-.08.91-.08,2t.08,2a16.53,16.53,0,0,0,.24,1.72,18.13,18.13,0,0,0,1.12,3.52l-1.52.59a19.92,19.92,0,0,1,0-15.63Z"/><path class="cls-8" d="M81.65,251V239.72H84a8.64,8.64,0,0,1,2.7.34,5,5,0,0,1,1.93,1.12,5.85,5.85,0,0,1-.07,8.42,5.33,5.33,0,0,1-1.92,1.12A8.74,8.74,0,0,1,84,251Zm1.71-1.6h.77a6.42,6.42,0,0,0,1.91-.24,3.88,3.88,0,0,0,2.64-3.81,3.93,3.93,0,0,0-1.25-3,4.72,4.72,0,0,0-3.3-1h-.77Z"/><path class="cls-8" d="M92.15,251l2.38-12.16,3.88,8.79,4-8.79L104.57,251h-1.75l-1.09-6.83-3.35,7.35-3.25-7.35L93.91,251Z"/><path class="cls-8" d="M110.09,241.33V251h-1.71v-9.71h-2.6v-1.6h6.9v1.6Z"/><path class="cls-8" d="M114.2,251V239l8.25,8.63v-7.86h1.71v12l-8.25-8.61V251Z"/><path class="cls-8" d="M128.06,248.91l1.46.57-2.09,4.18-1.11-.46Z"/><path class="cls-8" d="M143,241.41l-1.38.82a2.38,2.38,0,0,0-.74-.88,1.73,1.73,0,0,0-.94-.23,1.75,1.75,0,0,0-1.18.4,1.25,1.25,0,0,0-.47,1q0,.83,1.23,1.33l1.13.46a4.82,4.82,0,0,1,2,1.36,3.06,3.06,0,0,1,.64,2,3.46,3.46,0,0,1-1,2.58,3.57,3.57,0,0,1-2.6,1,3.48,3.48,0,0,1-2.43-.87,4,4,0,0,1-1.18-2.45l1.73-.38a2.94,2.94,0,0,0,.41,1.38,1.95,1.95,0,0,0,2.86.2,1.85,1.85,0,0,0,.53-1.36,1.92,1.92,0,0,0-.09-.6,1.54,1.54,0,0,0-.29-.5,2.28,2.28,0,0,0-.5-.43,4.88,4.88,0,0,0-.73-.38l-1.09-.46q-2.32-1-2.32-2.87a2.72,2.72,0,0,1,1-2.13,3.52,3.52,0,0,1,2.42-.86A3.38,3.38,0,0,1,143,241.41Z"/><path class="cls-8" d="M156.87,251.24h-2.15l-.89-.91a5.7,5.7,0,0,1-3.15.91,5.89,5.89,0,0,1-4-1.52,5.46,5.46,0,0,1-1.9-4.29,5.64,5.64,0,0,1,1.79-4.26,5.9,5.9,0,0,1,8-.21,5.68,5.68,0,0,1,2.05,4.55,5.51,5.51,0,0,1-1.62,3.9Zm-4.69-4.68,1.64,1.63a3.87,3.87,0,0,0,1.08-2.79,4.19,4.19,0,0,0-1.21-3.05,4,4,0,0,0-3-1.23,4,4,0,0,0-3,1.23,4.28,4.28,0,0,0-1.18,3.1,4,4,0,0,0,1.22,3,4.09,4.09,0,0,0,2.89,1.2,4,4,0,0,0,2-.5L150,246.56Z"/><path class="cls-8" d="M162.6,246.21l3.5,4.82H164l-3.23-4.63h-.31V251h-1.71V239.72h2a5,5,0,0,1,3.24.84,3.1,3.1,0,0,1,1.1,2.48,3.21,3.21,0,0,1-.69,2.06A3.06,3.06,0,0,1,162.6,246.21Zm-2.12-1.3H161q2.42,0,2.42-1.85t-2.36-1.74h-.61Z"/><path class="cls-8" d="M169,254.17l-1.52-.59a18.13,18.13,0,0,0,1.12-3.52,18.17,18.17,0,0,0-1.12-10.93l1.52-.59a19.92,19.92,0,0,1,0,15.63Z"/><rect class="cls-9" x="483.37" y="272.63" width="180" height="198"/><rect class="cls-7" x="483.37" y="272.63" width="180" height="198"/><path class="cls-8" d="M551,290.55h6.23v.5a10.3,10.3,0,0,1-.4,3,6.4,6.4,0,0,1-1.32,2.27,6.83,6.83,0,0,1-5.34,2.36,7.34,7.34,0,0,1-5.42-2.29,7.87,7.87,0,0,1,8.93-12.65,9.51,9.51,0,0,1,2.88,2.34l-1.62,1.55a5.5,5.5,0,0,0-4.52-2.47,5.4,5.4,0,0,0-4,1.65,5.51,5.51,0,0,0-1.62,4.06,5.66,5.66,0,0,0,5.47,5.66,4.55,4.55,0,0,0,3-1.13,4,4,0,0,0,1.49-2.73H551Z"/><path class="cls-8" d="M561.85,288.89v5.46q0,2.36,1.87,2.36t1.87-2.36v-5.46h2.2v5.51a6.14,6.14,0,0,1-.28,2,3.32,3.32,0,0,1-.95,1.34,4.62,4.62,0,0,1-5.65,0,3.36,3.36,0,0,1-1-1.34,5.43,5.43,0,0,1-.27-2v-5.51Z"/><path class="cls-8" d="M570.22,284.94a1.43,1.43,0,0,1,1.43-1.42,1.38,1.38,0,0,1,1,.42,1.35,1.35,0,0,1,.42,1,1.38,1.38,0,0,1-.42,1,1.35,1.35,0,0,1-1,.42,1.43,1.43,0,0,1-1.44-1.45Zm2.53,4v9.51h-2.2v-9.51Z"/><path class="cls-8" d="M582.55,281.91h2.21V298.4h-2.21v-1a4.1,4.1,0,0,1-2.94,1.27,4.19,4.19,0,0,1-3.24-1.43,5.3,5.3,0,0,1-1.28-3.63,5.13,5.13,0,0,1,1.28-3.55,4.11,4.11,0,0,1,6.18-.07Zm-5.21,11.71a3.31,3.31,0,0,0,.73,2.23,2.4,2.4,0,0,0,1.89.87,2.52,2.52,0,0,0,2-.84,3.61,3.61,0,0,0,0-4.41,2.49,2.49,0,0,0-2-.85,2.43,2.43,0,0,0-1.89.86A3.17,3.17,0,0,0,577.33,293.62Z"/><path class="cls-8" d="M596.19,294.17h-6.82a2.89,2.89,0,0,0,.76,1.87,2.32,2.32,0,0,0,1.73.68,2.25,2.25,0,0,0,1.36-.39,5.56,5.56,0,0,0,1.2-1.45l1.86,1a7.36,7.36,0,0,1-.91,1.25,4.84,4.84,0,0,1-1,.86,4.12,4.12,0,0,1-1.18.49,5.73,5.73,0,0,1-1.38.16,4.48,4.48,0,0,1-3.42-1.37,5.13,5.13,0,0,1-1.29-3.65,5.27,5.27,0,0,1,1.25-3.65,4.76,4.76,0,0,1,6.66,0,5.26,5.26,0,0,1,1.21,3.68Zm-2.26-1.8a2.1,2.1,0,0,0-2.22-1.76,2.29,2.29,0,0,0-.75.12,2.14,2.14,0,0,0-.64.35,2.23,2.23,0,0,0-.49.55,2.56,2.56,0,0,0-.31.73Z"/><path class="cls-8" d="M604.12,290.51l-1.82,1q-.43-.88-1.06-.88a.73.73,0,0,0-.52.2.67.67,0,0,0-.21.51q0,.55,1.27,1.08a7.57,7.57,0,0,1,2.35,1.39,2.37,2.37,0,0,1,.61,1.71,3,3,0,0,1-1,2.3,3.64,3.64,0,0,1-5.77-1.46l1.88-.87a4.09,4.09,0,0,0,.6.87,1.36,1.36,0,0,0,1,.37q1.11,0,1.11-1,0-.59-.86-1.09l-.66-.32-.67-.32a4.13,4.13,0,0,1-1.35-.94,2.31,2.31,0,0,1-.5-1.53,2.71,2.71,0,0,1,.85-2.05,3,3,0,0,1,2.11-.81A2.88,2.88,0,0,1,604.12,290.51Z"/><path class="cls-8" d="M551.86,307.28l1.52.59a18.77,18.77,0,0,0-1.12,3.53,16.34,16.34,0,0,0-.24,1.72q-.08.91-.08,2t.08,2a16.27,16.27,0,0,0,.24,1.72,18.13,18.13,0,0,0,1.12,3.52l-1.52.59a19.93,19.93,0,0,1,0-15.63Z"/><path class="cls-8" d="M555.75,319.77V308.47h2.37a8.64,8.64,0,0,1,2.7.34,5.05,5.05,0,0,1,1.93,1.12,5.85,5.85,0,0,1-.07,8.42,5.33,5.33,0,0,1-1.92,1.12,8.74,8.74,0,0,1-2.66.31Zm1.71-1.6h.77a6.42,6.42,0,0,0,1.91-.24,3.88,3.88,0,0,0,2.64-3.81,3.93,3.93,0,0,0-1.25-3,4.72,4.72,0,0,0-3.3-1h-.77Z"/><path class="cls-8" d="M566.25,319.77l2.38-12.16,3.88,8.79,4-8.79,2.14,12.16h-1.75l-1.09-6.83-3.35,7.35-3.25-7.35L568,319.77Z"/><path class="cls-8" d="M586.88,313.88h4.67v.37a7.71,7.71,0,0,1-.3,2.26,4.8,4.8,0,0,1-1,1.7,5.12,5.12,0,0,1-4,1.77,5.51,5.51,0,0,1-4.07-1.71,5.89,5.89,0,0,1,4.22-10,5.74,5.74,0,0,1,2.48.54,7.14,7.14,0,0,1,2.16,1.76l-1.22,1.16a4.13,4.13,0,0,0-3.39-1.85,4.05,4.05,0,0,0-3,1.24,4.13,4.13,0,0,0-1.22,3,4.25,4.25,0,0,0,4.1,4.25,3.4,3.4,0,0,0,2.26-.85,3,3,0,0,0,1.12-2.05h-2.82Z"/><path class="cls-8" d="M594.89,322.91l-1.52-.59a18.14,18.14,0,0,0,1.12-3.52,18.16,18.16,0,0,0-1.12-10.93l1.52-.59a19.91,19.91,0,0,1,0,15.63Z"/><line class="cls-3" x1="204.37" y1="232.13" x2="251.47" y2="232.13"/><polygon class="cls-4" points="262.67 232.13 251.47 227.93 251.47 236.33 262.67 232.13"/><polygon class="cls-5" points="262.67 232.13 251.47 227.93 251.47 236.33 262.67 232.13"/><rect class="cls-6" x="276.37" y="326.63" width="162" height="90"/><rect class="cls-7" x="276.37" y="326.63" width="162" height="90"/><path class="cls-8" d="M327,353l-1.85,1.09a3.16,3.16,0,0,0-1-1.17,2.3,2.3,0,0,0-1.26-.31,2.33,2.33,0,0,0-1.57.54,1.67,1.67,0,0,0-.62,1.33q0,1.1,1.64,1.78l1.5.62a6.41,6.41,0,0,1,2.69,1.81,4.08,4.08,0,0,1,.85,2.62,4.6,4.6,0,0,1-1.39,3.44,4.76,4.76,0,0,1-3.47,1.37,4.63,4.63,0,0,1-3.24-1.16,5.35,5.35,0,0,1-1.57-3.27l2.3-.51a3.92,3.92,0,0,0,.55,1.84,2.6,2.6,0,0,0,3.82.26,2.47,2.47,0,0,0,.7-1.81,2.53,2.53,0,0,0-.12-.81,2.05,2.05,0,0,0-.38-.67,3,3,0,0,0-.67-.58,6.42,6.42,0,0,0-1-.51l-1.46-.61q-3.1-1.31-3.1-3.83a3.63,3.63,0,0,1,1.3-2.84,4.7,4.7,0,0,1,3.23-1.15A4.51,4.51,0,0,1,327,353Z"/><path class="cls-8" d="M329.29,361a4.73,4.73,0,0,1,1.47-3.51,5.2,5.2,0,0,1,7.21,0,5.09,5.09,0,0,1,0,7.16,5,5,0,0,1-3.64,1.44,4.83,4.83,0,0,1-3.58-1.46A4.92,4.92,0,0,1,329.29,361Zm2.25,0a3.21,3.21,0,0,0,.76,2.26,3,3,0,0,0,4.12,0,3.57,3.57,0,0,0,0-4.43,2.92,2.92,0,0,0-4.1,0A3.06,3.06,0,0,0,331.53,361.06Z"/><path class="cls-8" d="M344,358.38v7.46h-2.21v-7.46H341v-2.05h.78v-3.67a4,4,0,0,1,.63-2.54,3.07,3.07,0,0,1,2.5-1,4.28,4.28,0,0,1,1.47.34v2.25l-.22-.12a2.77,2.77,0,0,0-1.17-.36.8.8,0,0,0-.79.42,4,4,0,0,0-.21,1.58v3.13h2.39v2.05Z"/><path class="cls-8" d="M350.68,358.38v7.46h-2.2v-7.46h-.94v-2.05h.94v-3.49h2.2v3.49h1.71v2.05Z"/><path class="cls-8" d="M355.07,356.33l2.49,5.43,2.69-6.3,2.71,6.3,2.46-5.43h2.46l-5,10.22-2.65-6.12-2.68,6.12-5-10.22Z"/><path class="cls-8" d="M376.05,356.33h2.21v9.51h-2.21v-1a4.22,4.22,0,0,1-6.18-.16,5.31,5.31,0,0,1-1.28-3.63,5.14,5.14,0,0,1,1.28-3.56,4.12,4.12,0,0,1,3.2-1.43,4,4,0,0,1,3,1.37Zm-5.21,4.73a3.31,3.31,0,0,0,.73,2.23,2.4,2.4,0,0,0,1.89.87,2.52,2.52,0,0,0,2-.84,3.61,3.61,0,0,0,0-4.41,2.49,2.49,0,0,0-2-.85,2.43,2.43,0,0,0-1.89.86A3.17,3.17,0,0,0,370.84,361.06Z"/><path class="cls-8" d="M381,356.33h2.2v.85a4.18,4.18,0,0,1,1.07-.87,2.47,2.47,0,0,1,1.13-.24,3.56,3.56,0,0,1,1.82.57l-1,2a2.1,2.1,0,0,0-1.22-.45q-1.8,0-1.8,2.71v4.93H381Z"/><path class="cls-8" d="M397.06,361.6h-6.82a2.89,2.89,0,0,0,.76,1.87,2.32,2.32,0,0,0,1.73.68,2.25,2.25,0,0,0,1.36-.39,5.55,5.55,0,0,0,1.2-1.45l1.86,1a7.36,7.36,0,0,1-.91,1.25,4.84,4.84,0,0,1-1,.86A4.09,4.09,0,0,1,394,366a5.78,5.78,0,0,1-1.38.16,4.48,4.48,0,0,1-3.42-1.37,5.13,5.13,0,0,1-1.29-3.65,5.27,5.27,0,0,1,1.25-3.65,4.76,4.76,0,0,1,6.66,0,5.26,5.26,0,0,1,1.21,3.68Zm-2.26-1.8a2.1,2.1,0,0,0-2.22-1.76,2.29,2.29,0,0,0-.75.12,2.14,2.14,0,0,0-.64.35,2.23,2.23,0,0,0-.49.55,2.56,2.56,0,0,0-.31.73Z"/><path class="cls-8" d="M300,392.4V377.33h3.16a11.53,11.53,0,0,1,3.59.45,6.73,6.73,0,0,1,2.57,1.49,7.8,7.8,0,0,1-.1,11.22,7.08,7.08,0,0,1-2.56,1.49,11.67,11.67,0,0,1-3.54.42Zm2.28-2.14h1a8.56,8.56,0,0,0,2.55-.32,5.53,5.53,0,0,0,1.86-9.1,6.29,6.29,0,0,0-4.4-1.38h-1Z"/><path class="cls-8" d="M322.78,388.17H316a2.89,2.89,0,0,0,.76,1.87,2.32,2.32,0,0,0,1.73.68,2.25,2.25,0,0,0,1.36-.39,5.55,5.55,0,0,0,1.2-1.45l1.86,1a7.41,7.41,0,0,1-.91,1.25,4.81,4.81,0,0,1-1,.86,4.09,4.09,0,0,1-1.18.49,5.79,5.79,0,0,1-1.38.16,4.47,4.47,0,0,1-3.42-1.37,5.13,5.13,0,0,1-1.29-3.65,5.27,5.27,0,0,1,1.25-3.65,4.76,4.76,0,0,1,6.66,0,5.26,5.26,0,0,1,1.21,3.68Zm-2.26-1.8a2.11,2.11,0,0,0-2.22-1.76,2.28,2.28,0,0,0-.75.12,2.14,2.14,0,0,0-.64.35,2.24,2.24,0,0,0-.49.55,2.57,2.57,0,0,0-.31.73Z"/><path class="cls-8" d="M326,382.89l2.46,5.34,2.45-5.34h2.47l-4.94,10.17-4.9-10.17Z"/><path class="cls-8" d="M343.21,388.17h-6.82a2.89,2.89,0,0,0,.76,1.87,2.32,2.32,0,0,0,1.73.68,2.25,2.25,0,0,0,1.36-.39,5.55,5.55,0,0,0,1.2-1.45l1.86,1a7.36,7.36,0,0,1-.91,1.25,4.84,4.84,0,0,1-1,.86,4.09,4.09,0,0,1-1.18.49,5.78,5.78,0,0,1-1.38.16,4.48,4.48,0,0,1-3.42-1.37,5.13,5.13,0,0,1-1.29-3.65,5.27,5.27,0,0,1,1.25-3.65,4.76,4.76,0,0,1,6.66,0,5.26,5.26,0,0,1,1.21,3.68Zm-2.26-1.8a2.1,2.1,0,0,0-2.22-1.76,2.29,2.29,0,0,0-.75.12,2.14,2.14,0,0,0-.64.35,2.23,2.23,0,0,0-.49.55,2.56,2.56,0,0,0-.31.73Z"/><path class="cls-8" d="M347.81,375.91V392.4h-2.2V375.91Z"/><path class="cls-8" d="M350.14,387.58a4.73,4.73,0,0,1,1.47-3.51,5.2,5.2,0,0,1,7.21,0,5.09,5.09,0,0,1,0,7.16,5,5,0,0,1-3.64,1.44,4.83,4.83,0,0,1-3.58-1.46A4.92,4.92,0,0,1,350.14,387.58Zm2.25,0a3.21,3.21,0,0,0,.76,2.26,3,3,0,0,0,4.12,0,3.57,3.57,0,0,0,0-4.43,2.92,2.92,0,0,0-4.1,0A3.06,3.06,0,0,0,352.39,387.62Z"/><path class="cls-8" d="M364.81,397.58h-2.2V382.89h2.2v1a4.07,4.07,0,0,1,2.95-1.3,4.11,4.11,0,0,1,3.23,1.45,5.22,5.22,0,0,1,1.29,3.62,5.14,5.14,0,0,1-1.28,3.56,4.17,4.17,0,0,1-6.19.08Zm5.22-9.87a3.28,3.28,0,0,0-.74-2.23,2.4,2.4,0,0,0-1.89-.87,2.51,2.51,0,0,0-2,.84,3.19,3.19,0,0,0-.75,2.21,3.25,3.25,0,0,0,.75,2.21,2.47,2.47,0,0,0,2,.85,2.38,2.38,0,0,0,1.88-.86A3.12,3.12,0,0,0,370,387.71Z"/><path class="cls-8" d="M374.61,382.89h2.2v.88a4.56,4.56,0,0,1,1.08-.9,2.64,2.64,0,0,1,1.2-.24,2.92,2.92,0,0,1,2.55,1.41,3.3,3.3,0,0,1,2.8-1.41q3.21,0,3.21,3.9v5.88h-2.21v-5.28a4.07,4.07,0,0,0-.33-1.93,1.2,1.2,0,0,0-1.12-.58,1.43,1.43,0,0,0-1.32.68,4.4,4.4,0,0,0-.42,2.2v4.91H380v-5.25q0-2.54-1.46-2.54a1.47,1.47,0,0,0-1.35.69,4.33,4.33,0,0,0-.42,2.19v4.91h-2.2Z"/><path class="cls-8" d="M399.09,388.17h-6.82A2.89,2.89,0,0,0,393,390a2.32,2.32,0,0,0,1.73.68,2.25,2.25,0,0,0,1.36-.39,5.55,5.55,0,0,0,1.2-1.45l1.86,1a7.36,7.36,0,0,1-.91,1.25,4.84,4.84,0,0,1-1,.86,4.09,4.09,0,0,1-1.18.49,5.78,5.78,0,0,1-1.38.16,4.48,4.48,0,0,1-3.42-1.37,5.13,5.13,0,0,1-1.29-3.65,5.27,5.27,0,0,1,1.25-3.65,4.76,4.76,0,0,1,6.66,0,5.26,5.26,0,0,1,1.21,3.68Zm-2.26-1.8a2.1,2.1,0,0,0-2.22-1.76,2.29,2.29,0,0,0-.75.12,2.14,2.14,0,0,0-.64.35,2.23,2.23,0,0,0-.49.55,2.56,2.56,0,0,0-.31.73Z"/><path class="cls-8" d="M401.49,382.89h2.21v.88a3.6,3.6,0,0,1,2.6-1.14,3.28,3.28,0,0,1,2.59,1,4.27,4.27,0,0,1,.8,2.9v5.83h-2.21v-5.31a3.48,3.48,0,0,0-.39-1.94,1.57,1.57,0,0,0-1.39-.55,1.69,1.69,0,0,0-1.55.72,5,5,0,0,0-.45,2.49v4.59h-2.21Z"/><path class="cls-8" d="M414.72,384.94v7.46h-2.2v-7.46h-.94v-2.05h.94v-3.49h2.2v3.49h1.71v2.05Z"/><line class="cls-3" x1="438.37" y1="372.13" x2="467.47" y2="372.13"/><polygon class="cls-4" points="478.67 372.13 467.47 367.93 467.47 376.33 478.67 372.13"/><polygon class="cls-5" points="478.67 372.13 467.47 367.93 467.47 376.33 478.67 372.13"/><rect class="cls-9" x="267.37" y="650.63" width="180" height="90"/><rect class="cls-7" x="267.37" y="650.63" width="180" height="90"/><path class="cls-8" d="M308.09,697v6.12h-2.28V688h2.58a11.63,11.63,0,0,1,2.86.26,3.84,3.84,0,0,1,1.72,1,4.29,4.29,0,0,1,1.3,3.2,4.13,4.13,0,0,1-1.39,3.28,5.49,5.49,0,0,1-3.74,1.21Zm0-2.11h.85q3.13,0,3.13-2.41t-3.23-2.33h-.75Z"/><path class="cls-8" d="M318.39,693.61v5.46q0,2.36,1.87,2.36t1.87-2.36v-5.46h2.2v5.51a6.13,6.13,0,0,1-.28,2,3.32,3.32,0,0,1-.95,1.34,4.62,4.62,0,0,1-5.65,0,3.38,3.38,0,0,1-1-1.34,5.45,5.45,0,0,1-.27-2v-5.51Z"/><path class="cls-8" d="M329.29,686.63v8.09a4.05,4.05,0,0,1,3-1.37,4.11,4.11,0,0,1,3.2,1.44,5.13,5.13,0,0,1,1.28,3.55,5.23,5.23,0,0,1-1.29,3.63,4.16,4.16,0,0,1-3.23,1.43,4.11,4.11,0,0,1-2.95-1.27v1h-2.2V686.63Zm5.22,11.81a3.28,3.28,0,0,0-.74-2.23,2.38,2.38,0,0,0-1.88-.88,2.53,2.53,0,0,0-2,.85,3.16,3.16,0,0,0-.75,2.19,3.2,3.2,0,0,0,.74,2.22,2.47,2.47,0,0,0,2,.85,2.42,2.42,0,0,0,1.89-.85A3.12,3.12,0,0,0,334.52,698.43Z"/><path class="cls-8" d="M341.28,686.63v16.49h-2.2V686.63Z"/><path class="cls-8" d="M343.73,689.66a1.36,1.36,0,0,1,.42-1,1.43,1.43,0,0,1,2,0,1.35,1.35,0,0,1,.42,1,1.38,1.38,0,0,1-.42,1,1.35,1.35,0,0,1-1,.42,1.43,1.43,0,0,1-1.44-1.45Zm2.53,4v9.51h-2.2v-9.51Z"/><path class="cls-8" d="M356.45,694v2.92a5.33,5.33,0,0,0-1.35-1.26,2.63,2.63,0,0,0-1.38-.35,2.71,2.71,0,0,0-2.06.87,3,3,0,0,0-.82,2.18,3.12,3.12,0,0,0,.79,2.2,2.67,2.67,0,0,0,2,.86,2.79,2.79,0,0,0,1.4-.34,5.55,5.55,0,0,0,1.38-1.29v2.9a5.77,5.77,0,0,1-2.68.69,5.12,5.12,0,0,1-3.69-1.43,4.76,4.76,0,0,1-1.48-3.56,4.82,4.82,0,0,1,1.5-3.59,5.09,5.09,0,0,1,3.69-1.46A5.52,5.52,0,0,1,356.45,694Z"/><path class="cls-8" d="M365.59,693.61h2.21v9.51h-2.21v-1a4.22,4.22,0,0,1-6.18-.16,5.31,5.31,0,0,1-1.28-3.63,5.14,5.14,0,0,1,1.28-3.56,4.12,4.12,0,0,1,3.2-1.43,4,4,0,0,1,3,1.37Zm-5.21,4.73a3.31,3.31,0,0,0,.73,2.23,2.4,2.4,0,0,0,1.89.87,2.52,2.52,0,0,0,2-.84,3.61,3.61,0,0,0,0-4.41,2.49,2.49,0,0,0-2-.85,2.43,2.43,0,0,0-1.89.86A3.17,3.17,0,0,0,360.37,698.34Z"/><path class="cls-8" d="M372.84,695.66v7.46h-2.2v-7.46h-.94v-2.05h.94v-3.49h2.2v3.49h1.71v2.05Z"/><path class="cls-8" d="M375.71,689.66a1.36,1.36,0,0,1,.42-1,1.43,1.43,0,0,1,2,0,1.35,1.35,0,0,1,.42,1,1.38,1.38,0,0,1-.42,1,1.35,1.35,0,0,1-1,.42,1.43,1.43,0,0,1-1.44-1.45Zm2.53,4v9.51H376v-9.51Z"/><path class="cls-8" d="M380.57,698.3a4.72,4.72,0,0,1,1.47-3.51,5.2,5.2,0,0,1,7.21,0,5.09,5.09,0,0,1,0,7.16,5,5,0,0,1-3.64,1.44,4.83,4.83,0,0,1-3.58-1.46A4.93,4.93,0,0,1,380.57,698.3Zm2.25,0a3.21,3.21,0,0,0,.76,2.26,3,3,0,0,0,4.12,0,3.57,3.57,0,0,0,0-4.43,2.92,2.92,0,0,0-4.1,0A3.06,3.06,0,0,0,382.82,698.34Z"/><path class="cls-8" d="M393,693.61h2.21v.88a3.6,3.6,0,0,1,2.6-1.14,3.28,3.28,0,0,1,2.59,1,4.27,4.27,0,0,1,.8,2.9v5.83H399v-5.31a3.48,3.48,0,0,0-.39-1.94,1.57,1.57,0,0,0-1.39-.55,1.69,1.69,0,0,0-1.55.72,5,5,0,0,0-.45,2.49v4.59H393Z"/><path class="cls-8" d="M409.54,695.23l-1.82,1q-.43-.88-1.06-.88a.73.73,0,0,0-.52.2.67.67,0,0,0-.21.51q0,.55,1.27,1.08a7.55,7.55,0,0,1,2.35,1.39,2.37,2.37,0,0,1,.61,1.71,3,3,0,0,1-1,2.3,3.64,3.64,0,0,1-5.77-1.46l1.88-.87a4.12,4.12,0,0,0,.6.87,1.36,1.36,0,0,0,1,.37q1.11,0,1.11-1,0-.59-.86-1.09l-.66-.32-.67-.32a4.13,4.13,0,0,1-1.35-.94,2.31,2.31,0,0,1-.5-1.53,2.71,2.71,0,0,1,.85-2.05,3,3,0,0,1,2.11-.81A2.88,2.88,0,0,1,409.54,695.23Z"/><line class="cls-3" x1="357.87" y1="596.63" x2="357.87" y2="634.73"/><polygon class="cls-4" points="357.87 645.93 362.07 634.73 353.67 634.73 357.87 645.93"/><polygon class="cls-5" points="357.87 645.93 362.07 634.73 353.67 634.73 357.87 645.93"/><path class="cls-4" d="M490.36,147.48V130.89h3.48a12.67,12.67,0,0,1,4,.49,7.4,7.4,0,0,1,2.83,1.64,8.58,8.58,0,0,1-.11,12.34A7.8,7.8,0,0,1,497.7,147a12.82,12.82,0,0,1-3.9.46Zm2.5-2.35H494a9.41,9.41,0,0,0,2.8-.35,5.69,5.69,0,0,0,3.87-5.59,5.76,5.76,0,0,0-1.83-4.43,6.92,6.92,0,0,0-4.84-1.51h-1.13Z"/><path class="cls-4" d="M513.58,137H516v10.46h-2.43v-1.1a4.64,4.64,0,0,1-6.8-.17,5.83,5.83,0,0,1-1.41-4,5.65,5.65,0,0,1,1.41-3.92,4.54,4.54,0,0,1,3.52-1.57,4.45,4.45,0,0,1,3.28,1.5Zm-5.74,5.2a3.64,3.64,0,0,0,.81,2.45,2.64,2.64,0,0,0,2.08,1,2.77,2.77,0,0,0,2.17-.92,4,4,0,0,0,0-4.86,2.74,2.74,0,0,0-2.15-.93,2.67,2.67,0,0,0-2.08.95A3.48,3.48,0,0,0,507.85,142.22Z"/><path class="cls-4" d="M521.55,139.27v8.21h-2.42v-8.21h-1V137h1v-3.83h2.42V137h1.88v2.26Z"/><path class="cls-4" d="M533,137h2.43v10.46H533v-1.1a4.64,4.64,0,0,1-6.8-.17,5.83,5.83,0,0,1-1.41-4,5.65,5.65,0,0,1,1.41-3.92,4.54,4.54,0,0,1,3.52-1.57,4.45,4.45,0,0,1,3.28,1.5Zm-5.74,5.2a3.64,3.64,0,0,0,.81,2.45,2.64,2.64,0,0,0,2.08,1,2.77,2.77,0,0,0,2.17-.92,4,4,0,0,0,0-4.86,2.74,2.74,0,0,0-2.15-.93,2.67,2.67,0,0,0-2.08.95A3.48,3.48,0,0,0,527.23,142.22Z"/><path class="cls-4" d="M545.12,147.48l3.49-17.83,5.69,12.89,5.9-12.89,3.14,17.83h-2.57l-1.6-10-4.91,10.77-4.77-10.79-1.78,10Z"/><path class="cls-4" d="M574.1,137h2.43v10.46H574.1v-1.1a4.64,4.64,0,0,1-6.8-.17,5.83,5.83,0,0,1-1.41-4,5.65,5.65,0,0,1,1.41-3.92,4.54,4.54,0,0,1,3.52-1.57,4.45,4.45,0,0,1,3.28,1.5Zm-5.74,5.2a3.64,3.64,0,0,0,.81,2.45,2.64,2.64,0,0,0,2.08,1,2.77,2.77,0,0,0,2.17-.92,4,4,0,0,0,0-4.86,2.74,2.74,0,0,0-2.15-.93,2.67,2.67,0,0,0-2.08.95A3.48,3.48,0,0,0,568.36,142.22Z"/><path class="cls-4" d="M579.58,137H582v1a4,4,0,0,1,2.86-1.26,3.61,3.61,0,0,1,2.85,1.15,4.71,4.71,0,0,1,.88,3.19v6.41h-2.43v-5.84a3.83,3.83,0,0,0-.43-2.14,1.73,1.73,0,0,0-1.53-.6,1.87,1.87,0,0,0-1.71.79,5.47,5.47,0,0,0-.49,2.74v5h-2.43Z"/><path class="cls-4" d="M599.35,137h2.43v10.46h-2.43v-1.1a4.64,4.64,0,0,1-6.8-.17,5.83,5.83,0,0,1-1.41-4,5.65,5.65,0,0,1,1.41-3.92,4.54,4.54,0,0,1,3.52-1.57,4.45,4.45,0,0,1,3.28,1.5Zm-5.74,5.2a3.64,3.64,0,0,0,.81,2.45,2.64,2.64,0,0,0,2.08,1,2.77,2.77,0,0,0,2.17-.92,4,4,0,0,0,0-4.86,2.74,2.74,0,0,0-2.15-.93,2.67,2.67,0,0,0-2.08.95A3.48,3.48,0,0,0,593.62,142.22Z"/><path class="cls-4" d="M615,147.23q0,.74,0,1.31a8.78,8.78,0,0,1-.13,1,4.42,4.42,0,0,1-1,2,4.89,4.89,0,0,1-3.9,1.63,5.2,5.2,0,0,1-3.45-1.13,4.61,4.61,0,0,1-1.61-3.21h2.43a2.75,2.75,0,0,0,.46,1.19,2.6,2.6,0,0,0,2.19,1q2.65,0,2.65-3.25v-1.46a4.51,4.51,0,0,1-3.32,1.47,4.46,4.46,0,0,1-3.5-1.55,5.73,5.73,0,0,1-1.37-3.92,6,6,0,0,1,1.28-3.89,4.44,4.44,0,0,1,3.63-1.7,4.22,4.22,0,0,1,3.29,1.47V137H615Zm-2.32-5a3.52,3.52,0,0,0-.82-2.44,2.7,2.7,0,0,0-2.12-.93,2.6,2.6,0,0,0-2.17,1,4.2,4.2,0,0,0,0,4.71,2.6,2.6,0,0,0,2.17,1,2.65,2.65,0,0,0,2.19-1A3.6,3.6,0,0,0,612.63,142.27Z"/><path class="cls-4" d="M627.53,142.82H620a3.18,3.18,0,0,0,.84,2.05,2.56,2.56,0,0,0,1.9.75,2.47,2.47,0,0,0,1.49-.43,6.11,6.11,0,0,0,1.32-1.59l2,1.14a8.14,8.14,0,0,1-1,1.38,5.25,5.25,0,0,1-1.13.95,4.49,4.49,0,0,1-1.3.54,6.35,6.35,0,0,1-1.51.17,4.92,4.92,0,0,1-3.76-1.5,5.64,5.64,0,0,1-1.42-4,5.8,5.8,0,0,1,1.38-4,5.24,5.24,0,0,1,7.33,0,5.79,5.79,0,0,1,1.33,4Zm-2.48-2a2.32,2.32,0,0,0-2.44-1.93,2.49,2.49,0,0,0-.83.13,2.33,2.33,0,0,0-.7.39,2.43,2.43,0,0,0-.54.61,2.83,2.83,0,0,0-.34.81Z"/><path class="cls-4" d="M630.17,137h2.42v1a5.05,5.05,0,0,1,1.19-1,2.9,2.9,0,0,1,1.32-.27,3.21,3.21,0,0,1,2.8,1.55,3.63,3.63,0,0,1,3.08-1.55q3.53,0,3.53,4.29v6.47H642.1v-5.81a4.49,4.49,0,0,0-.37-2.13,1.32,1.32,0,0,0-1.24-.63,1.58,1.58,0,0,0-1.46.75,4.85,4.85,0,0,0-.46,2.42v5.4h-2.43V141.7q0-2.79-1.61-2.79a1.61,1.61,0,0,0-1.49.76,4.75,4.75,0,0,0-.47,2.41v5.4h-2.42Z"/><path class="cls-4" d="M657.1,142.82h-7.5a3.18,3.18,0,0,0,.84,2.05,2.56,2.56,0,0,0,1.9.75,2.47,2.47,0,0,0,1.49-.43,6.11,6.11,0,0,0,1.32-1.59l2,1.14a8.14,8.14,0,0,1-1,1.38,5.25,5.25,0,0,1-1.13.95,4.49,4.49,0,0,1-1.3.54,6.35,6.35,0,0,1-1.51.17,4.92,4.92,0,0,1-3.76-1.5,5.64,5.64,0,0,1-1.42-4,5.8,5.8,0,0,1,1.38-4,5.24,5.24,0,0,1,7.33,0,5.79,5.79,0,0,1,1.33,4Zm-2.48-2a2.32,2.32,0,0,0-2.44-1.93,2.49,2.49,0,0,0-.83.13,2.33,2.33,0,0,0-.7.39,2.43,2.43,0,0,0-.54.61,2.83,2.83,0,0,0-.34.81Z"/><path class="cls-4" d="M659.75,137h2.43v1a4,4,0,0,1,2.86-1.26,3.61,3.61,0,0,1,2.85,1.15,4.71,4.71,0,0,1,.88,3.19v6.41h-2.43v-5.84a3.83,3.83,0,0,0-.43-2.14,1.73,1.73,0,0,0-1.53-.6,1.87,1.87,0,0,0-1.71.79,5.47,5.47,0,0,0-.49,2.74v5h-2.43Z"/><path class="cls-4" d="M674.3,139.27v8.21h-2.42v-8.21h-1V137h1v-3.83h2.42V137h1.88v2.26Z"/><path class="cls-4" d="M528.82,176.7V160.11h3.48a12.67,12.67,0,0,1,4,.49,7.4,7.4,0,0,1,2.83,1.64,8.58,8.58,0,0,1-.11,12.34,7.8,7.8,0,0,1-2.81,1.64,12.82,12.82,0,0,1-3.9.46Zm2.5-2.35h1.13a9.41,9.41,0,0,0,2.8-.35,5.69,5.69,0,0,0,3.87-5.59,5.76,5.76,0,0,0-1.83-4.43,6.92,6.92,0,0,0-4.84-1.51h-1.13Z"/><path class="cls-4" d="M543.83,171.39a5.2,5.2,0,0,1,1.62-3.86,5.72,5.72,0,0,1,7.93,0,5.6,5.6,0,0,1,0,7.87,5.54,5.54,0,0,1-4,1.58,5.32,5.32,0,0,1-3.94-1.61A5.42,5.42,0,0,1,543.83,171.39Zm2.47,0a3.53,3.53,0,0,0,.84,2.48,3.26,3.26,0,0,0,4.53,0,3.93,3.93,0,0,0,0-4.88,3.22,3.22,0,0,0-4.51,0A3.36,3.36,0,0,0,546.3,171.44Z"/><path class="cls-4" d="M565.69,166.69v3.21a5.91,5.91,0,0,0-1.48-1.39,2.89,2.89,0,0,0-1.51-.39,3,3,0,0,0-2.27,1,3.35,3.35,0,0,0-.9,2.4,3.43,3.43,0,0,0,.87,2.42,2.94,2.94,0,0,0,2.25.95,3.07,3.07,0,0,0,1.54-.38,6.08,6.08,0,0,0,1.51-1.42v3.19a6.34,6.34,0,0,1-2.94.76,5.63,5.63,0,0,1-4.06-1.57,5.23,5.23,0,0,1-1.63-3.92,5.31,5.31,0,0,1,1.65-4,5.6,5.6,0,0,1,4.06-1.61A6.07,6.07,0,0,1,565.69,166.69Z"/><path class="cls-4" d="M570.45,166.24v6q0,2.6,2.05,2.6t2.05-2.6v-6H577v6.06a6.73,6.73,0,0,1-.31,2.17,3.64,3.64,0,0,1-1,1.47,5.08,5.08,0,0,1-6.22,0,3.71,3.71,0,0,1-1.06-1.47,6,6,0,0,1-.3-2.17v-6.06Z"/><path class="cls-4" d="M580,166.24h2.42v1a5.05,5.05,0,0,1,1.19-1,2.9,2.9,0,0,1,1.32-.27,3.21,3.21,0,0,1,2.8,1.55,3.63,3.63,0,0,1,3.08-1.55q3.53,0,3.53,4.29v6.47h-2.43v-5.81a4.49,4.49,0,0,0-.37-2.13,1.32,1.32,0,0,0-1.24-.63,1.58,1.58,0,0,0-1.46.75,4.85,4.85,0,0,0-.46,2.42v5.4H586v-5.78q0-2.79-1.61-2.79a1.61,1.61,0,0,0-1.49.76,4.75,4.75,0,0,0-.47,2.41v5.4H580Z"/><path class="cls-4" d="M607,172h-7.5a3.18,3.18,0,0,0,.84,2.05,2.56,2.56,0,0,0,1.9.75,2.47,2.47,0,0,0,1.49-.43,6.11,6.11,0,0,0,1.32-1.59l2,1.14a8.14,8.14,0,0,1-1,1.38,5.25,5.25,0,0,1-1.13.95,4.49,4.49,0,0,1-1.3.54,6.35,6.35,0,0,1-1.51.17,4.92,4.92,0,0,1-3.76-1.5,5.64,5.64,0,0,1-1.42-4,5.8,5.8,0,0,1,1.38-4,5.24,5.24,0,0,1,7.33,0,5.79,5.79,0,0,1,1.33,4Zm-2.48-2a2.32,2.32,0,0,0-2.44-1.93,2.49,2.49,0,0,0-.83.13,2.33,2.33,0,0,0-.7.39,2.43,2.43,0,0,0-.54.61,2.83,2.83,0,0,0-.34.81Z"/><path class="cls-4" d="M609.6,166.24H612v1a4,4,0,0,1,2.86-1.26,3.61,3.61,0,0,1,2.85,1.15,4.71,4.71,0,0,1,.88,3.19v6.41h-2.43v-5.84a3.83,3.83,0,0,0-.43-2.14,1.73,1.73,0,0,0-1.53-.6,1.87,1.87,0,0,0-1.71.79,5.47,5.47,0,0,0-.49,2.74v5H609.6Z"/><path class="cls-4" d="M624.15,168.49v8.21h-2.42v-8.21h-1v-2.26h1V162.4h2.42v3.83H626v2.26Z"/><path class="cls-4" d="M635.57,166.24H638V176.7h-2.43v-1.1a4.64,4.64,0,0,1-6.8-.17,5.83,5.83,0,0,1-1.41-4,5.65,5.65,0,0,1,1.41-3.92,4.54,4.54,0,0,1,3.52-1.57,4.45,4.45,0,0,1,3.28,1.5Zm-5.74,5.2a3.64,3.64,0,0,0,.81,2.45,2.64,2.64,0,0,0,2.08,1,2.77,2.77,0,0,0,2.17-.92,4,4,0,0,0,0-4.86,2.74,2.74,0,0,0-2.15-.93,2.67,2.67,0,0,0-2.08.95A3.48,3.48,0,0,0,629.83,171.44Z"/><path class="cls-4" d="M643.54,168.49v8.21h-2.42v-8.21h-1v-2.26h1V162.4h2.42v3.83h1.88v2.26Z"/><path class="cls-4" d="M646.69,161.89a1.58,1.58,0,0,1,1.57-1.56,1.52,1.52,0,0,1,1.12.46,1.49,1.49,0,0,1,.46,1.11,1.52,1.52,0,0,1-.46,1.12,1.49,1.49,0,0,1-1.11.46,1.58,1.58,0,0,1-1.58-1.59Zm2.78,4.35V176.7h-2.42V166.24Z"/><path class="cls-4" d="M652,171.39a5.2,5.2,0,0,1,1.62-3.86,5.72,5.72,0,0,1,7.93,0,5.6,5.6,0,0,1,0,7.87,5.54,5.54,0,0,1-4,1.58,5.32,5.32,0,0,1-3.94-1.61A5.42,5.42,0,0,1,652,171.39Zm2.47,0a3.53,3.53,0,0,0,.84,2.48,3.26,3.26,0,0,0,4.53,0,3.93,3.93,0,0,0,0-4.88,3.22,3.22,0,0,0-4.51,0A3.36,3.36,0,0,0,654.51,171.44Z"/><path class="cls-4" d="M665.76,166.24h2.43v1a4,4,0,0,1,2.86-1.26,3.61,3.61,0,0,1,2.85,1.15,4.71,4.71,0,0,1,.88,3.19v6.41h-2.43v-5.84a3.83,3.83,0,0,0-.43-2.14,1.73,1.73,0,0,0-1.53-.6,1.87,1.87,0,0,0-1.71.79,5.47,5.47,0,0,0-.49,2.74v5h-2.43Z"/><path class="cls-4" d="M494.45,235.14V218.55h3.48a12.67,12.67,0,0,1,4,.49,7.4,7.4,0,0,1,2.83,1.64A8.58,8.58,0,0,1,504.6,233a7.8,7.8,0,0,1-2.81,1.64,12.82,12.82,0,0,1-3.9.46Zm2.5-2.35h1.13a9.41,9.41,0,0,0,2.8-.35,5.69,5.69,0,0,0,3.87-5.59,5.76,5.76,0,0,0-1.83-4.43,6.92,6.92,0,0,0-4.84-1.51H497Z"/><path class="cls-4" d="M519.49,230.47H512a3.18,3.18,0,0,0,.84,2.05,2.56,2.56,0,0,0,1.9.75,2.47,2.47,0,0,0,1.49-.43,6.11,6.11,0,0,0,1.32-1.59l2,1.14a8.14,8.14,0,0,1-1,1.38,5.25,5.25,0,0,1-1.13.95,4.49,4.49,0,0,1-1.3.54,6.35,6.35,0,0,1-1.51.17,4.92,4.92,0,0,1-3.76-1.5,5.64,5.64,0,0,1-1.42-4,5.8,5.8,0,0,1,1.38-4,5.24,5.24,0,0,1,7.33,0,5.79,5.79,0,0,1,1.33,4Zm-2.48-2a2.32,2.32,0,0,0-2.44-1.93,2.49,2.49,0,0,0-.83.13,2.33,2.33,0,0,0-.7.39,2.43,2.43,0,0,0-.54.61,2.83,2.83,0,0,0-.34.81Z"/><path class="cls-4" d="M528.21,226.46l-2,1.06q-.47-1-1.17-1a.81.81,0,0,0-.57.22.74.74,0,0,0-.24.56q0,.6,1.4,1.19a8.33,8.33,0,0,1,2.59,1.53,2.61,2.61,0,0,1,.67,1.88,3.29,3.29,0,0,1-1.12,2.54,4,4,0,0,1-6.35-1.6l2.06-1a4.47,4.47,0,0,0,.66,1,1.49,1.49,0,0,0,1.05.41q1.22,0,1.22-1.12,0-.64-.95-1.2l-.73-.35-.74-.35a4.53,4.53,0,0,1-1.48-1,2.54,2.54,0,0,1-.55-1.69,3,3,0,0,1,.93-2.26,3.28,3.28,0,0,1,2.32-.89A3.17,3.17,0,0,1,528.21,226.46Z"/><path class="cls-4" d="M530.7,220.32a1.58,1.58,0,0,1,1.57-1.56,1.52,1.52,0,0,1,1.12.46,1.49,1.49,0,0,1,.46,1.11,1.52,1.52,0,0,1-.46,1.12,1.49,1.49,0,0,1-1.11.46,1.58,1.58,0,0,1-1.58-1.59Zm2.78,4.35v10.46h-2.42V224.67Z"/><path class="cls-4" d="M546.66,234.89q0,.74,0,1.31a8.78,8.78,0,0,1-.13,1,4.42,4.42,0,0,1-1,2,4.89,4.89,0,0,1-3.9,1.63,5.2,5.2,0,0,1-3.45-1.13,4.61,4.61,0,0,1-1.61-3.21h2.43a2.75,2.75,0,0,0,.46,1.19,2.6,2.6,0,0,0,2.19,1q2.65,0,2.65-3.25V234a4.51,4.51,0,0,1-3.32,1.47,4.46,4.46,0,0,1-3.5-1.55A5.73,5.73,0,0,1,536,230a6,6,0,0,1,1.28-3.89,4.44,4.44,0,0,1,3.63-1.7,4.22,4.22,0,0,1,3.29,1.47v-1.18h2.42Zm-2.32-5a3.52,3.52,0,0,0-.82-2.44,2.7,2.7,0,0,0-2.12-.93,2.6,2.6,0,0,0-2.17,1,4.2,4.2,0,0,0,0,4.71,2.6,2.6,0,0,0,2.17,1,2.65,2.65,0,0,0,2.19-1A3.6,3.6,0,0,0,544.34,229.93Z"/><path class="cls-4" d="M549.71,224.67h2.43v1a4,4,0,0,1,2.86-1.26,3.61,3.61,0,0,1,2.85,1.15,4.71,4.71,0,0,1,.88,3.19v6.41h-2.43v-5.84a3.83,3.83,0,0,0-.43-2.14,1.73,1.73,0,0,0-1.53-.6,1.87,1.87,0,0,0-1.71.79,5.47,5.47,0,0,0-.49,2.74v5h-2.43Z"/><path class="cls-4" d="M571.05,226.93v8.21h-2.42v-8.21h-1v-2.26h1v-3.83h2.42v3.83h1.88v2.26Z"/><path class="cls-4" d="M574.22,229.83a5.2,5.2,0,0,1,1.62-3.86,5.72,5.72,0,0,1,7.93,0,5.6,5.6,0,0,1,0,7.87,5.54,5.54,0,0,1-4,1.58,5.32,5.32,0,0,1-3.94-1.61A5.42,5.42,0,0,1,574.22,229.83Zm2.47,0a3.53,3.53,0,0,0,.84,2.48,3.26,3.26,0,0,0,4.53,0,3.93,3.93,0,0,0,0-4.88,3.22,3.22,0,0,0-4.51,0A3.36,3.36,0,0,0,576.69,229.87Z"/><path class="cls-4" d="M595.18,235.14V218.55h3.48a12.67,12.67,0,0,1,4,.49,7.4,7.4,0,0,1,2.83,1.64,8.58,8.58,0,0,1-.11,12.34,7.8,7.8,0,0,1-2.81,1.64,12.82,12.82,0,0,1-3.9.46Zm2.5-2.35h1.13a9.41,9.41,0,0,0,2.8-.35,5.69,5.69,0,0,0,3.87-5.59,5.76,5.76,0,0,0-1.83-4.43,6.92,6.92,0,0,0-4.84-1.51h-1.13Z"/><path class="cls-4" d="M620.22,230.47h-7.5a3.18,3.18,0,0,0,.84,2.05,2.56,2.56,0,0,0,1.9.75,2.47,2.47,0,0,0,1.49-.43,6.11,6.11,0,0,0,1.32-1.59l2,1.14a8.14,8.14,0,0,1-1,1.38,5.25,5.25,0,0,1-1.13.95,4.49,4.49,0,0,1-1.3.54,6.35,6.35,0,0,1-1.51.17,4.92,4.92,0,0,1-3.76-1.5,5.64,5.64,0,0,1-1.42-4,5.8,5.8,0,0,1,1.38-4,5.24,5.24,0,0,1,7.33,0,5.79,5.79,0,0,1,1.33,4Zm-2.48-2a2.32,2.32,0,0,0-2.44-1.93,2.49,2.49,0,0,0-.83.13,2.33,2.33,0,0,0-.7.39,2.43,2.43,0,0,0-.54.61,2.83,2.83,0,0,0-.34.81Z"/><path class="cls-4" d="M625.28,217v18.14h-2.42V217Z"/><path class="cls-4" d="M628,220.32a1.58,1.58,0,0,1,1.57-1.56,1.52,1.52,0,0,1,1.12.46,1.49,1.49,0,0,1,.46,1.11,1.52,1.52,0,0,1-.46,1.12,1.49,1.49,0,0,1-1.11.46,1.58,1.58,0,0,1-1.58-1.59Zm2.78,4.35v10.46h-2.42V224.67Z"/><path class="cls-4" d="M635.12,224.67l2.71,5.88,2.7-5.88h2.72l-5.44,11.18-5.39-11.18Z"/><path class="cls-4" d="M654,230.47h-7.5a3.18,3.18,0,0,0,.84,2.05,2.56,2.56,0,0,0,1.9.75,2.47,2.47,0,0,0,1.49-.43,6.11,6.11,0,0,0,1.32-1.59l2,1.14a8.14,8.14,0,0,1-1,1.38,5.25,5.25,0,0,1-1.13.95,4.49,4.49,0,0,1-1.3.54,6.35,6.35,0,0,1-1.51.17,4.92,4.92,0,0,1-3.76-1.5,5.64,5.64,0,0,1-1.42-4,5.8,5.8,0,0,1,1.38-4,5.24,5.24,0,0,1,7.33,0,5.79,5.79,0,0,1,1.33,4Zm-2.48-2a2.32,2.32,0,0,0-2.44-1.93,2.49,2.49,0,0,0-.83.13,2.33,2.33,0,0,0-.7.39,2.43,2.43,0,0,0-.54.61,2.83,2.83,0,0,0-.34.81Z"/><path class="cls-4" d="M656.67,224.67h2.42v.93a4.61,4.61,0,0,1,1.18-1,2.71,2.71,0,0,1,1.25-.27,3.91,3.91,0,0,1,2,.62l-1.11,2.21a2.31,2.31,0,0,0-1.34-.49q-2,0-2,3v5.42h-2.42Z"/><path class="cls-4" d="M669.15,233.19l-4.71-8.52h2.8l3.2,6,3-6h2.73l-8.34,16.16h-2.76Z"/><rect class="cls-6" x="276.37" y="488.63" width="162" height="90"/><rect class="cls-7" x="276.37" y="488.63" width="162" height="90"/><path class="cls-8" d="M314.07,512.76l4.17,10.45,4.23-10.45H325L318.19,529l-6.61-16.21Z"/><path class="cls-8" d="M332.27,518.33h2.21v9.51h-2.21v-1a4.22,4.22,0,0,1-6.18-.16,5.3,5.3,0,0,1-1.28-3.63,5.14,5.14,0,0,1,1.28-3.56,4.12,4.12,0,0,1,3.2-1.43,4,4,0,0,1,3,1.37Zm-5.21,4.73a3.31,3.31,0,0,0,.73,2.23,2.4,2.4,0,0,0,1.89.87,2.52,2.52,0,0,0,2-.84,3.61,3.61,0,0,0,0-4.41,2.49,2.49,0,0,0-2-.85,2.43,2.43,0,0,0-1.89.86A3.17,3.17,0,0,0,327.05,523.06Z"/><path class="cls-8" d="M339.44,511.35v16.49h-2.2V511.35Z"/><path class="cls-8" d="M341.9,514.37a1.36,1.36,0,0,1,.42-1,1.43,1.43,0,0,1,2,0,1.35,1.35,0,0,1,.42,1,1.38,1.38,0,0,1-.42,1,1.35,1.35,0,0,1-1,.42,1.43,1.43,0,0,1-1.44-1.45Zm2.53,4v9.51h-2.2v-9.51Z"/><path class="cls-8" d="M354.22,511.35h2.21v16.49h-2.21v-1a4.1,4.1,0,0,1-2.94,1.27,4.18,4.18,0,0,1-3.24-1.43,5.31,5.31,0,0,1-1.28-3.63A5.13,5.13,0,0,1,348,519.5a4.11,4.11,0,0,1,6.18-.07ZM349,523.06a3.31,3.31,0,0,0,.73,2.23,2.4,2.4,0,0,0,1.89.87,2.52,2.52,0,0,0,2-.84,3.61,3.61,0,0,0,0-4.41,2.49,2.49,0,0,0-2-.85,2.43,2.43,0,0,0-1.89.86A3.17,3.17,0,0,0,349,523.06Z"/><path class="cls-8" d="M366.21,518.33h2.21v9.51h-2.21v-1a4.22,4.22,0,0,1-6.18-.16,5.31,5.31,0,0,1-1.28-3.63,5.14,5.14,0,0,1,1.28-3.56,4.12,4.12,0,0,1,3.2-1.43,4,4,0,0,1,3,1.37ZM361,523.06a3.31,3.31,0,0,0,.73,2.23,2.4,2.4,0,0,0,1.89.87,2.52,2.52,0,0,0,2-.84,3.61,3.61,0,0,0,0-4.41,2.49,2.49,0,0,0-2-.85,2.43,2.43,0,0,0-1.89.86A3.17,3.17,0,0,0,361,523.06Z"/><path class="cls-8" d="M373.46,520.38v7.46h-2.2v-7.46h-.94v-2.05h.94v-3.49h2.2v3.49h1.71v2.05Z"/><path class="cls-8" d="M376.33,514.37a1.36,1.36,0,0,1,.42-1,1.43,1.43,0,0,1,2,0,1.35,1.35,0,0,1,.42,1,1.38,1.38,0,0,1-.42,1,1.35,1.35,0,0,1-1,.42,1.43,1.43,0,0,1-1.44-1.45Zm2.53,4v9.51h-2.2v-9.51Z"/><path class="cls-8" d="M381.19,523a4.73,4.73,0,0,1,1.47-3.51,5.2,5.2,0,0,1,7.21,0,5.09,5.09,0,0,1,0,7.16,5,5,0,0,1-3.64,1.44,4.83,4.83,0,0,1-3.58-1.46A4.92,4.92,0,0,1,381.19,523Zm2.25,0a3.21,3.21,0,0,0,.76,2.26,3,3,0,0,0,4.12,0,3.57,3.57,0,0,0,0-4.43,2.92,2.92,0,0,0-4.1,0A3.06,3.06,0,0,0,383.44,523.06Z"/><path class="cls-8" d="M393.66,518.33h2.21v.88a3.6,3.6,0,0,1,2.6-1.14,3.28,3.28,0,0,1,2.59,1,4.27,4.27,0,0,1,.8,2.9v5.83h-2.21v-5.31a3.48,3.48,0,0,0-.39-1.94,1.57,1.57,0,0,0-1.39-.55,1.69,1.69,0,0,0-1.55.72,5,5,0,0,0-.45,2.49v4.59h-2.21Z"/><path class="cls-8" d="M332.64,541.46V554.4h-2.28V541.46H326.9v-2.14h9.2v2.14Z"/><path class="cls-8" d="M345.55,550.17h-6.82a2.89,2.89,0,0,0,.76,1.87,2.32,2.32,0,0,0,1.73.68,2.25,2.25,0,0,0,1.36-.39,5.55,5.55,0,0,0,1.2-1.45l1.86,1a7.36,7.36,0,0,1-.91,1.25,4.84,4.84,0,0,1-1,.86,4.09,4.09,0,0,1-1.18.49,5.78,5.78,0,0,1-1.38.16,4.48,4.48,0,0,1-3.42-1.37,5.13,5.13,0,0,1-1.29-3.65,5.27,5.27,0,0,1,1.25-3.65,4.76,4.76,0,0,1,6.66,0,5.26,5.26,0,0,1,1.21,3.68Zm-2.26-1.8a2.1,2.1,0,0,0-2.22-1.76,2.29,2.29,0,0,0-.75.12,2.14,2.14,0,0,0-.64.35,2.23,2.23,0,0,0-.49.55,2.56,2.56,0,0,0-.31.73Z"/><path class="cls-8" d="M353.48,546.51l-1.82,1q-.43-.88-1.06-.88a.73.73,0,0,0-.52.2.67.67,0,0,0-.21.51q0,.55,1.27,1.08a7.57,7.57,0,0,1,2.35,1.39,2.37,2.37,0,0,1,.61,1.71,3,3,0,0,1-1,2.3,3.64,3.64,0,0,1-5.77-1.46l1.88-.87a4.09,4.09,0,0,0,.6.87,1.36,1.36,0,0,0,1,.37q1.11,0,1.11-1,0-.59-.86-1.09l-.66-.32-.67-.32a4.13,4.13,0,0,1-1.35-.94,2.31,2.31,0,0,1-.5-1.53,2.72,2.72,0,0,1,.85-2.05,3,3,0,0,1,2.11-.81A2.88,2.88,0,0,1,353.48,546.51Z"/><path class="cls-8" d="M358.33,546.94v7.46h-2.2v-7.46h-.94v-2.05h.94v-3.49h2.2v3.49H360v2.05Z"/><path class="cls-8" d="M361.2,540.94a1.36,1.36,0,0,1,.42-1,1.43,1.43,0,0,1,2,0,1.35,1.35,0,0,1,.42,1,1.38,1.38,0,0,1-.42,1,1.35,1.35,0,0,1-1,.42,1.43,1.43,0,0,1-1.44-1.45Zm2.53,4v9.51h-2.2v-9.51Z"/><path class="cls-8" d="M366.52,544.89h2.21v.88a3.6,3.6,0,0,1,2.6-1.14,3.28,3.28,0,0,1,2.59,1,4.27,4.27,0,0,1,.8,2.9v5.83H372.5v-5.31a3.48,3.48,0,0,0-.39-1.94,1.57,1.57,0,0,0-1.39-.55,1.69,1.69,0,0,0-1.55.72,5,5,0,0,0-.45,2.49v4.59h-2.21Z"/><path class="cls-8" d="M386.68,554.18q0,.67,0,1.19a8.3,8.3,0,0,1-.12.9,4,4,0,0,1-.92,1.85,4.45,4.45,0,0,1-3.54,1.48,4.73,4.73,0,0,1-3.13-1,4.19,4.19,0,0,1-1.46-2.92h2.21a2.5,2.5,0,0,0,.42,1.08,2.36,2.36,0,0,0,2,.89q2.41,0,2.41-3v-1.33a4.1,4.1,0,0,1-3,1.34,4.05,4.05,0,0,1-3.18-1.41,5.21,5.21,0,0,1-1.25-3.56,5.49,5.49,0,0,1,1.16-3.54,4,4,0,0,1,3.3-1.54,3.83,3.83,0,0,1,3,1.34v-1.07h2.2Zm-2.11-4.51a3.2,3.2,0,0,0-.74-2.22,2.45,2.45,0,0,0-1.92-.85,2.36,2.36,0,0,0-2,.93,3.82,3.82,0,0,0,0,4.28,2.37,2.37,0,0,0,2,.91,2.41,2.41,0,0,0,2-.92A3.27,3.27,0,0,0,384.57,549.67Z"/><rect class="cls-9" x="483.37" y="488.63" width="180" height="90"/><rect class="cls-7" x="483.37" y="488.63" width="180" height="90"/><path class="cls-8" d="M530.07,512.76l4.17,10.45,4.23-10.45H541L534.19,529l-6.61-16.21Z"/><path class="cls-8" d="M548.27,518.33h2.21v9.51h-2.21v-1a4.22,4.22,0,0,1-6.18-.16,5.31,5.31,0,0,1-1.28-3.63,5.14,5.14,0,0,1,1.28-3.56,4.12,4.12,0,0,1,3.2-1.43,4,4,0,0,1,3,1.37Zm-5.21,4.73a3.31,3.31,0,0,0,.73,2.23,2.4,2.4,0,0,0,1.89.87,2.52,2.52,0,0,0,2-.84,3.61,3.61,0,0,0,0-4.41,2.49,2.49,0,0,0-2-.85,2.43,2.43,0,0,0-1.89.86A3.17,3.17,0,0,0,543.05,523.06Z"/><path class="cls-8" d="M555.44,511.35v16.49h-2.2V511.35Z"/><path class="cls-8" d="M557.9,514.37a1.36,1.36,0,0,1,.42-1,1.43,1.43,0,0,1,2,0,1.35,1.35,0,0,1,.42,1,1.38,1.38,0,0,1-.42,1,1.35,1.35,0,0,1-1,.42,1.43,1.43,0,0,1-1.44-1.45Zm2.53,4v9.51h-2.2v-9.51Z"/><path class="cls-8" d="M570.22,511.35h2.21v16.49h-2.21v-1a4.1,4.1,0,0,1-2.94,1.27,4.18,4.18,0,0,1-3.24-1.43,5.31,5.31,0,0,1-1.28-3.63A5.13,5.13,0,0,1,564,519.5a4.11,4.11,0,0,1,6.18-.07ZM565,523.06a3.31,3.31,0,0,0,.73,2.23,2.4,2.4,0,0,0,1.89.87,2.52,2.52,0,0,0,2-.84,3.61,3.61,0,0,0,0-4.41,2.49,2.49,0,0,0-2-.85,2.43,2.43,0,0,0-1.89.86A3.17,3.17,0,0,0,565,523.06Z"/><path class="cls-8" d="M582.21,518.33h2.21v9.51h-2.21v-1a4.22,4.22,0,0,1-6.18-.16,5.31,5.31,0,0,1-1.28-3.63,5.14,5.14,0,0,1,1.28-3.56,4.12,4.12,0,0,1,3.2-1.43,4,4,0,0,1,3,1.37ZM577,523.06a3.31,3.31,0,0,0,.73,2.23,2.4,2.4,0,0,0,1.89.87,2.52,2.52,0,0,0,2-.84,3.61,3.61,0,0,0,0-4.41,2.49,2.49,0,0,0-2-.85,2.43,2.43,0,0,0-1.89.86A3.17,3.17,0,0,0,577,523.06Z"/><path class="cls-8" d="M589.46,520.38v7.46h-2.2v-7.46h-.94v-2.05h.94v-3.49h2.2v3.49h1.71v2.05Z"/><path class="cls-8" d="M592.33,514.37a1.36,1.36,0,0,1,.42-1,1.43,1.43,0,0,1,2,0,1.35,1.35,0,0,1,.42,1,1.38,1.38,0,0,1-.42,1,1.35,1.35,0,0,1-1,.42,1.43,1.43,0,0,1-1.44-1.45Zm2.53,4v9.51h-2.2v-9.51Z"/><path class="cls-8" d="M597.19,523a4.73,4.73,0,0,1,1.47-3.51,5.2,5.2,0,0,1,7.21,0,5.09,5.09,0,0,1,0,7.16,5,5,0,0,1-3.64,1.44,4.83,4.83,0,0,1-3.58-1.46A4.92,4.92,0,0,1,597.19,523Zm2.25,0a3.21,3.21,0,0,0,.76,2.26,3,3,0,0,0,4.12,0,3.57,3.57,0,0,0,0-4.43,2.92,2.92,0,0,0-4.1,0A3.06,3.06,0,0,0,599.44,523.06Z"/><path class="cls-8" d="M609.66,518.33h2.21v.88a3.6,3.6,0,0,1,2.6-1.14,3.28,3.28,0,0,1,2.59,1,4.27,4.27,0,0,1,.8,2.9v5.83h-2.21v-5.31a3.48,3.48,0,0,0-.39-1.94,1.57,1.57,0,0,0-1.39-.55,1.69,1.69,0,0,0-1.55.72,5,5,0,0,0-.45,2.49v4.59h-2.21Z"/><path class="cls-8" d="M526,554.4V539.33h3.16a11.54,11.54,0,0,1,3.59.45,6.73,6.73,0,0,1,2.57,1.49,7.22,7.22,0,0,1,2.33,5.6,7.34,7.34,0,0,1-5,7.12,11.66,11.66,0,0,1-3.54.42Zm2.28-2.14h1a8.55,8.55,0,0,0,2.55-.32,5.53,5.53,0,0,0,1.86-9.1,6.29,6.29,0,0,0-4.4-1.38h-1Z"/><path class="cls-8" d="M539.63,549.58a4.73,4.73,0,0,1,1.47-3.51,5.2,5.2,0,0,1,7.21,0,5.09,5.09,0,0,1,0,7.16,5,5,0,0,1-3.64,1.44,4.83,4.83,0,0,1-3.58-1.46A4.92,4.92,0,0,1,539.63,549.58Zm2.25,0a3.21,3.21,0,0,0,.76,2.26,3,3,0,0,0,4.12,0,3.57,3.57,0,0,0,0-4.43,2.92,2.92,0,0,0-4.1,0A3.06,3.06,0,0,0,541.87,549.62Z"/><path class="cls-8" d="M559.5,545.3v2.92a5.37,5.37,0,0,0-1.35-1.26,2.63,2.63,0,0,0-1.38-.35,2.71,2.71,0,0,0-2.06.87,3,3,0,0,0-.82,2.18,3.12,3.12,0,0,0,.79,2.2,2.67,2.67,0,0,0,2,.86,2.78,2.78,0,0,0,1.4-.34,5.51,5.51,0,0,0,1.38-1.29V554a5.76,5.76,0,0,1-2.68.69,5.12,5.12,0,0,1-3.69-1.43,4.76,4.76,0,0,1-1.48-3.56,4.82,4.82,0,0,1,1.5-3.59,5.09,5.09,0,0,1,3.69-1.46A5.52,5.52,0,0,1,559.5,545.3Z"/><path class="cls-8" d="M563.83,544.89v5.46q0,2.36,1.87,2.36t1.87-2.36v-5.46h2.2v5.51a6.13,6.13,0,0,1-.28,2,3.32,3.32,0,0,1-.95,1.34,4.62,4.62,0,0,1-5.65,0,3.36,3.36,0,0,1-1-1.34,5.43,5.43,0,0,1-.27-2v-5.51Z"/><path class="cls-8" d="M572.53,544.89h2.2v.88a4.56,4.56,0,0,1,1.08-.9,2.64,2.64,0,0,1,1.2-.24,2.92,2.92,0,0,1,2.55,1.41,3.3,3.3,0,0,1,2.8-1.41q3.21,0,3.21,3.9v5.88h-2.21v-5.28a4.07,4.07,0,0,0-.33-1.93,1.2,1.2,0,0,0-1.12-.58,1.43,1.43,0,0,0-1.32.68,4.4,4.4,0,0,0-.42,2.2v4.91H578v-5.25q0-2.54-1.46-2.54a1.47,1.47,0,0,0-1.35.69,4.33,4.33,0,0,0-.42,2.19v4.91h-2.2Z"/><path class="cls-8" d="M597,550.17h-6.82A2.89,2.89,0,0,0,591,552a2.32,2.32,0,0,0,1.73.68,2.25,2.25,0,0,0,1.36-.39,5.55,5.55,0,0,0,1.2-1.45l1.86,1a7.36,7.36,0,0,1-.91,1.25,4.84,4.84,0,0,1-1,.86,4.09,4.09,0,0,1-1.18.49,5.78,5.78,0,0,1-1.38.16,4.48,4.48,0,0,1-3.42-1.37,5.13,5.13,0,0,1-1.29-3.65,5.27,5.27,0,0,1,1.25-3.65,4.76,4.76,0,0,1,6.66,0,5.26,5.26,0,0,1,1.21,3.68Zm-2.26-1.8a2.1,2.1,0,0,0-2.22-1.76,2.29,2.29,0,0,0-.75.12,2.14,2.14,0,0,0-.64.35,2.23,2.23,0,0,0-.49.55,2.56,2.56,0,0,0-.31.73Z"/><path class="cls-8" d="M599.41,544.89h2.21v.88a3.6,3.6,0,0,1,2.6-1.14,3.28,3.28,0,0,1,2.59,1,4.27,4.27,0,0,1,.8,2.9v5.83H605.4v-5.31a3.48,3.48,0,0,0-.39-1.94,1.57,1.57,0,0,0-1.39-.55,1.69,1.69,0,0,0-1.55.72,5,5,0,0,0-.45,2.49v4.59h-2.21Z"/><path class="cls-8" d="M612.64,546.94v7.46h-2.2v-7.46h-.94v-2.05h.94v-3.49h2.2v3.49h1.71v2.05Z"/><path class="cls-8" d="M621.37,546.51l-1.82,1q-.43-.88-1.06-.88a.73.73,0,0,0-.52.2.67.67,0,0,0-.21.51q0,.55,1.27,1.08a7.57,7.57,0,0,1,2.35,1.39,2.37,2.37,0,0,1,.61,1.71,3,3,0,0,1-1,2.3,3.64,3.64,0,0,1-5.77-1.46l1.88-.87a4.09,4.09,0,0,0,.6.87,1.36,1.36,0,0,0,1,.37q1.11,0,1.11-1,0-.59-.86-1.09l-.66-.32-.67-.32a4.13,4.13,0,0,1-1.35-.94,2.31,2.31,0,0,1-.5-1.53,2.72,2.72,0,0,1,.85-2.05,3,3,0,0,1,2.11-.81A2.88,2.88,0,0,1,621.37,546.51Z"/><line class="cls-3" x1="357.87" y1="416.63" x2="357.87" y2="472.73"/><polygon class="cls-4" points="357.87 483.93 362.07 472.73 353.67 472.73 357.87 483.93"/><polygon class="cls-5" points="357.87 483.93 362.07 472.73 353.67 472.73 357.87 483.93"/><line class="cls-3" x1="438.37" y1="534.13" x2="467.47" y2="534.13"/><polygon class="cls-4" points="478.67 534.13 467.47 529.93 467.47 538.33 478.67 534.13"/><polygon class="cls-5" points="478.67 534.13 467.47 529.93 467.47 538.33 478.67 534.13"/><rect class="cls-10" x="492.37" y="362.63" width="162" height="18"/><path class="cls-8" d="M532.66,372.38l3.27,4.5H534l-3-4.32h-.29v4.32h-1.59V366.32h1.87a4.67,4.67,0,0,1,3,.79,2.89,2.89,0,0,1,1,2.31,3,3,0,0,1-.64,1.93A2.86,2.86,0,0,1,532.66,372.38Zm-2-1.21h.51q2.26,0,2.26-1.73t-2.2-1.62h-.57Z"/><path class="cls-8" d="M543.06,373.91h-4.77a2,2,0,0,0,.53,1.31,1.62,1.62,0,0,0,1.21.48,1.57,1.57,0,0,0,1-.27,3.88,3.88,0,0,0,.84-1l1.3.72a5.15,5.15,0,0,1-.64.88,3.42,3.42,0,0,1-.72.6,2.86,2.86,0,0,1-.83.34,4,4,0,0,1-1,.11,3.13,3.13,0,0,1-2.39-1,3.59,3.59,0,0,1-.9-2.56,3.69,3.69,0,0,1,.88-2.56,3.33,3.33,0,0,1,4.66,0,3.68,3.68,0,0,1,.85,2.58Zm-1.58-1.26a1.47,1.47,0,0,0-1.55-1.23,1.58,1.58,0,0,0-.53.09,1.48,1.48,0,0,0-.45.25,1.54,1.54,0,0,0-.35.39,1.79,1.79,0,0,0-.22.51Z"/><path class="cls-8" d="M546.28,365.33v11.55h-1.54V365.33Z"/><path class="cls-8" d="M554.29,373.91h-4.77a2,2,0,0,0,.53,1.31,1.62,1.62,0,0,0,1.21.48,1.57,1.57,0,0,0,1-.27,3.88,3.88,0,0,0,.84-1l1.3.72a5.15,5.15,0,0,1-.64.88,3.42,3.42,0,0,1-.72.6,2.86,2.86,0,0,1-.83.34,4,4,0,0,1-1,.11,3.13,3.13,0,0,1-2.39-1,3.59,3.59,0,0,1-.9-2.56,3.69,3.69,0,0,1,.88-2.56,3.33,3.33,0,0,1,4.66,0,3.68,3.68,0,0,1,.85,2.58Zm-1.58-1.26a1.47,1.47,0,0,0-1.55-1.23,1.58,1.58,0,0,0-.53.09,1.48,1.48,0,0,0-.45.25,1.54,1.54,0,0,0-.35.39,1.79,1.79,0,0,0-.22.51Z"/><path class="cls-8" d="M560.88,370.22h1.54v6.66h-1.54v-.7a3,3,0,0,1-4.33-.11,3.71,3.71,0,0,1-.9-2.54,3.6,3.6,0,0,1,.9-2.5,2.89,2.89,0,0,1,2.24-1,2.83,2.83,0,0,1,2.08,1Zm-3.65,3.31a2.32,2.32,0,0,0,.51,1.56,1.68,1.68,0,0,0,1.33.61,1.76,1.76,0,0,0,1.38-.59,2.53,2.53,0,0,0,0-3.09,1.74,1.74,0,0,0-1.37-.59,1.7,1.7,0,0,0-1.33.6A2.22,2.22,0,0,0,557.23,373.53Z"/><path class="cls-8" d="M568.23,371.35,567,372q-.3-.62-.75-.62a.51.51,0,0,0-.36.14.47.47,0,0,0-.15.36q0,.38.89.76a5.32,5.32,0,0,1,1.65,1,1.66,1.66,0,0,1,.42,1.2,2.1,2.1,0,0,1-.71,1.61,2.55,2.55,0,0,1-4-1l1.31-.61a2.84,2.84,0,0,0,.42.61,1,1,0,0,0,.67.26q.78,0,.78-.71,0-.41-.6-.77L566,374l-.47-.23a2.89,2.89,0,0,1-.94-.66,1.62,1.62,0,0,1-.35-1.07,1.9,1.9,0,0,1,.59-1.44,2.09,2.09,0,0,1,1.48-.57A2,2,0,0,1,568.23,371.35Z"/><path class="cls-8" d="M576.11,373.91h-4.77a2,2,0,0,0,.53,1.31,1.62,1.62,0,0,0,1.21.48,1.57,1.57,0,0,0,1-.27,3.88,3.88,0,0,0,.84-1l1.3.72a5.15,5.15,0,0,1-.64.88,3.42,3.42,0,0,1-.72.6,2.86,2.86,0,0,1-.83.34,4,4,0,0,1-1,.11,3.13,3.13,0,0,1-2.39-1,3.59,3.59,0,0,1-.9-2.56,3.69,3.69,0,0,1,.88-2.56,3.33,3.33,0,0,1,4.66,0,3.68,3.68,0,0,1,.85,2.58Zm-1.58-1.26a1.47,1.47,0,0,0-1.55-1.23,1.58,1.58,0,0,0-.53.09,1.48,1.48,0,0,0-.45.25,1.54,1.54,0,0,0-.35.39,1.79,1.79,0,0,0-.22.51Z"/><path class="cls-8" d="M582.4,376.88V365.6l7.7,8.05v-7.33h1.59v11.2l-7.7-8v7.39Z"/><path class="cls-8" d="M593.7,373.5a3.31,3.31,0,0,1,1-2.45,3.64,3.64,0,0,1,5,0,3.56,3.56,0,0,1,0,5,3.53,3.53,0,0,1-2.55,1,3.38,3.38,0,0,1-2.51-1A3.45,3.45,0,0,1,593.7,373.5Zm1.57,0a2.24,2.24,0,0,0,.53,1.58,2.07,2.07,0,0,0,2.88,0,2.5,2.5,0,0,0,0-3.1,2,2,0,0,0-2.87,0A2.14,2.14,0,0,0,595.27,373.53Z"/><path class="cls-8" d="M604.08,371.65v5.22h-1.54v-5.22h-.66v-1.44h.66v-2.44h1.54v2.44h1.2v1.44Z"/><path class="cls-8" d="M612.5,373.91h-4.77a2,2,0,0,0,.53,1.31,1.62,1.62,0,0,0,1.21.48,1.57,1.57,0,0,0,1-.27,3.88,3.88,0,0,0,.84-1l1.3.72a5.15,5.15,0,0,1-.64.88,3.42,3.42,0,0,1-.72.6,2.86,2.86,0,0,1-.83.34,4,4,0,0,1-1,.11,3.13,3.13,0,0,1-2.39-1,3.59,3.59,0,0,1-.9-2.56A3.69,3.69,0,0,1,607,371a3.33,3.33,0,0,1,4.66,0,3.68,3.68,0,0,1,.85,2.58Zm-1.58-1.26a1.47,1.47,0,0,0-1.55-1.23,1.58,1.58,0,0,0-.53.09,1.48,1.48,0,0,0-.45.25,1.54,1.54,0,0,0-.35.39,1.79,1.79,0,0,0-.22.51Z"/><path class="cls-8" d="M618.05,371.35l-1.27.68q-.3-.62-.75-.62a.51.51,0,0,0-.36.14.47.47,0,0,0-.15.36q0,.38.89.76a5.32,5.32,0,0,1,1.65,1,1.66,1.66,0,0,1,.42,1.2,2.1,2.1,0,0,1-.71,1.61,2.55,2.55,0,0,1-4-1l1.31-.61a2.84,2.84,0,0,0,.42.61,1,1,0,0,0,.67.26q.78,0,.78-.71,0-.41-.6-.77l-.46-.23-.47-.23a2.89,2.89,0,0,1-.94-.66,1.62,1.62,0,0,1-.35-1.07,1.9,1.9,0,0,1,.59-1.44,2.09,2.09,0,0,1,1.48-.57A2,2,0,0,1,618.05,371.35Z"/><rect class="cls-10" x="492.37" y="335.63" width="162" height="18"/><path class="cls-8" d="M541.93,339.32v10.55h-1.59V339.32Z"/><path class="cls-8" d="M544.17,343.22h1.54v.62a2.52,2.52,0,0,1,1.82-.8,2.3,2.3,0,0,1,1.81.73,3,3,0,0,1,.56,2v4.08h-1.54v-3.72a2.44,2.44,0,0,0-.27-1.36,1.1,1.1,0,0,0-1-.38,1.19,1.19,0,0,0-1.09.51,3.48,3.48,0,0,0-.31,1.74v3.21h-1.54Z"/><path class="cls-8" d="M555.71,344.35l-1.27.68q-.3-.62-.75-.62a.51.51,0,0,0-.36.14.47.47,0,0,0-.15.36q0,.38.89.76a5.32,5.32,0,0,1,1.65,1,1.66,1.66,0,0,1,.42,1.2,2.1,2.1,0,0,1-.71,1.61,2.55,2.55,0,0,1-4-1l1.31-.61a2.84,2.84,0,0,0,.42.61,1,1,0,0,0,.67.26q.78,0,.78-.71,0-.41-.6-.77l-.46-.23-.47-.23a2.89,2.89,0,0,1-.94-.66,1.62,1.62,0,0,1-.35-1.07,1.9,1.9,0,0,1,.59-1.44,2.09,2.09,0,0,1,1.48-.57A2,2,0,0,1,555.71,344.35Z"/><path class="cls-8" d="M559.11,344.65v5.22h-1.54v-5.22h-.66v-1.44h.66v-2.44h1.54v2.44h1.2v1.44Z"/><path class="cls-8" d="M566.37,343.22h1.54v6.66h-1.54v-.7a3,3,0,0,1-4.33-.11,3.71,3.71,0,0,1-.9-2.54,3.6,3.6,0,0,1,.9-2.5,2.89,2.89,0,0,1,2.24-1,2.83,2.83,0,0,1,2.08,1Zm-3.65,3.31a2.32,2.32,0,0,0,.51,1.56,1.68,1.68,0,0,0,1.33.61,1.76,1.76,0,0,0,1.38-.59,2.53,2.53,0,0,0,0-3.09,1.74,1.74,0,0,0-1.37-.59,1.7,1.7,0,0,0-1.33.6A2.22,2.22,0,0,0,562.72,346.53Z"/><path class="cls-8" d="M571.4,338.33v11.55h-1.54V338.33Z"/><path class="cls-8" d="M574.89,338.33v11.55h-1.54V338.33Z"/><path class="cls-8" d="M581.74,343.22h1.54v6.66h-1.54v-.7a3,3,0,0,1-4.33-.11,3.71,3.71,0,0,1-.9-2.54,3.6,3.6,0,0,1,.9-2.5,2.89,2.89,0,0,1,2.24-1,2.83,2.83,0,0,1,2.08,1Zm-3.65,3.31a2.32,2.32,0,0,0,.51,1.56,1.68,1.68,0,0,0,1.33.61,1.76,1.76,0,0,0,1.38-.59,2.53,2.53,0,0,0,0-3.09,1.74,1.74,0,0,0-1.37-.59,1.7,1.7,0,0,0-1.33.6A2.22,2.22,0,0,0,578.09,346.53Z"/><path class="cls-8" d="M586.81,344.65v5.22h-1.54v-5.22h-.66v-1.44h.66v-2.44h1.54v2.44H588v1.44Z"/><path class="cls-8" d="M588.82,340.45a1,1,0,0,1,.29-.7,1,1,0,0,1,1.42,0,1,1,0,0,1,.29.7,1,1,0,0,1-.29.71.94.94,0,0,1-.7.29,1,1,0,0,1-1-1Zm1.77,2.77v6.66h-1.54v-6.66Z"/><path class="cls-8" d="M592.23,346.5a3.31,3.31,0,0,1,1-2.45,3.64,3.64,0,0,1,5,0,3.56,3.56,0,0,1,0,5,3.53,3.53,0,0,1-2.55,1,3.38,3.38,0,0,1-2.51-1A3.45,3.45,0,0,1,592.23,346.5Zm1.57,0a2.24,2.24,0,0,0,.53,1.58,2.07,2.07,0,0,0,2.88,0,2.5,2.5,0,0,0,0-3.1,2,2,0,0,0-2.87,0A2.14,2.14,0,0,0,593.8,346.53Z"/><path class="cls-8" d="M601,343.22h1.54v.62a2.52,2.52,0,0,1,1.82-.8,2.3,2.3,0,0,1,1.81.73,3,3,0,0,1,.56,2v4.08h-1.54v-3.72a2.44,2.44,0,0,0-.27-1.36,1.1,1.1,0,0,0-1-.38,1.19,1.19,0,0,0-1.09.51,3.48,3.48,0,0,0-.31,1.74v3.21H601Z"/><rect class="cls-10" x="492.37" y="389.63" width="162" height="18"/><path class="cls-8" d="M551.23,394.82v9.06h-1.59v-9.06h-2.43v-1.5h6.44v1.5Z"/><path class="cls-8" d="M555.74,397.22V401q0,1.66,1.31,1.65t1.31-1.65v-3.82h1.54v3.86a4.3,4.3,0,0,1-.2,1.38,2.32,2.32,0,0,1-.66.94,3.23,3.23,0,0,1-4,0,2.34,2.34,0,0,1-.68-.94,3.8,3.8,0,0,1-.19-1.38v-3.86Z"/><path class="cls-8" d="M563.41,398.65v5.22h-1.54v-5.22h-.66v-1.44h.66v-2.44h1.54v2.44h1.2v1.44Z"/><path class="cls-8" d="M565.43,400.5a3.31,3.31,0,0,1,1-2.45,3.64,3.64,0,0,1,5,0,3.56,3.56,0,0,1,0,5,3.53,3.53,0,0,1-2.55,1,3.38,3.38,0,0,1-2.51-1A3.45,3.45,0,0,1,565.43,400.5Zm1.57,0a2.24,2.24,0,0,0,.53,1.58,2.07,2.07,0,0,0,2.88,0,2.5,2.5,0,0,0,0-3.1,2,2,0,0,0-2.87,0A2.14,2.14,0,0,0,567,400.53Z"/><path class="cls-8" d="M574.16,397.22h1.54v.59a2.94,2.94,0,0,1,.75-.61,1.73,1.73,0,0,1,.79-.17,2.49,2.49,0,0,1,1.27.4l-.7,1.41a1.47,1.47,0,0,0-.85-.31q-1.26,0-1.26,1.9v3.45h-1.54Z"/><path class="cls-8" d="M579.37,394.45a1,1,0,0,1,.29-.7,1,1,0,0,1,1.42,0,1,1,0,0,1,.29.7,1,1,0,0,1-.29.71.94.94,0,0,1-.7.29,1,1,0,0,1-1-1Zm1.77,2.77v6.66H579.6v-6.66Z"/><path class="cls-8" d="M588,397.22h1.54v6.66H588v-.7a3,3,0,0,1-4.33-.11,3.71,3.71,0,0,1-.9-2.54,3.6,3.6,0,0,1,.9-2.5,2.89,2.89,0,0,1,2.24-1,2.83,2.83,0,0,1,2.08,1Zm-3.65,3.31a2.32,2.32,0,0,0,.51,1.56,1.68,1.68,0,0,0,1.33.61,1.76,1.76,0,0,0,1.38-.59,2.53,2.53,0,0,0,0-3.09,1.74,1.74,0,0,0-1.37-.59,1.7,1.7,0,0,0-1.33.6A2.22,2.22,0,0,0,584.35,400.53Z"/><path class="cls-8" d="M593,392.33v11.55h-1.54V392.33Z"/><path class="cls-8" d="M598.84,398.35l-1.27.68q-.3-.62-.75-.62a.51.51,0,0,0-.36.14.47.47,0,0,0-.15.36q0,.38.89.76a5.32,5.32,0,0,1,1.65,1,1.66,1.66,0,0,1,.42,1.2,2.1,2.1,0,0,1-.71,1.61,2.55,2.55,0,0,1-4-1l1.31-.61a2.84,2.84,0,0,0,.42.61,1,1,0,0,0,.67.26q.78,0,.78-.71,0-.41-.6-.77l-.46-.23-.47-.23a2.89,2.89,0,0,1-.94-.66,1.62,1.62,0,0,1-.35-1.07,1.9,1.9,0,0,1,.59-1.44,2.09,2.09,0,0,1,1.48-.57A2,2,0,0,1,598.84,398.35Z"/><rect class="cls-10" x="492.37" y="416.63" width="162" height="18"/><path class="cls-8" d="M531.58,420.89v1.89a4.42,4.42,0,0,0-2.86-1.16,3.64,3.64,0,0,0-2.74,1.17,3.94,3.94,0,0,0-1.12,2.84,3.85,3.85,0,0,0,1.12,2.8,3.7,3.7,0,0,0,2.75,1.14,3.37,3.37,0,0,0,1.43-.27,4.06,4.06,0,0,0,.68-.37,7.84,7.84,0,0,0,.74-.56v1.92a5.74,5.74,0,0,1-2.87.77,5.3,5.3,0,0,1-3.86-1.58,5.24,5.24,0,0,1-1.59-3.84,5.42,5.42,0,0,1,1.33-3.6,5.31,5.31,0,0,1,4.25-1.93A5.39,5.39,0,0,1,531.58,420.89Z"/><path class="cls-8" d="M533,427.5a3.31,3.31,0,0,1,1-2.45,3.64,3.64,0,0,1,5,0,3.56,3.56,0,0,1,0,5,3.53,3.53,0,0,1-2.55,1,3.38,3.38,0,0,1-2.51-1A3.45,3.45,0,0,1,533,427.5Zm1.57,0a2.24,2.24,0,0,0,.53,1.58,2.07,2.07,0,0,0,2.88,0,2.5,2.5,0,0,0,0-3.1,2,2,0,0,0-2.87,0A2.14,2.14,0,0,0,534.55,427.53Z"/><path class="cls-8" d="M541.71,424.22h1.54v.62a2.52,2.52,0,0,1,1.82-.8,2.3,2.3,0,0,1,1.81.73,3,3,0,0,1,.56,2v4.08H545.9v-3.72a2.44,2.44,0,0,0-.27-1.36,1.1,1.1,0,0,0-1-.38,1.19,1.19,0,0,0-1.09.51,3.48,3.48,0,0,0-.31,1.74v3.21h-1.54Z"/><path class="cls-8" d="M554.57,424.5v2a3.76,3.76,0,0,0-.94-.88,1.84,1.84,0,0,0-1-.25,1.9,1.9,0,0,0-1.44.61,2.14,2.14,0,0,0-.57,1.52,2.18,2.18,0,0,0,.55,1.54,1.87,1.87,0,0,0,1.43.6,2,2,0,0,0,1-.24,3.85,3.85,0,0,0,1-.9v2a4,4,0,0,1-1.87.49,3.58,3.58,0,0,1-2.58-1,3.33,3.33,0,0,1-1-2.5,3.37,3.37,0,0,1,1.05-2.52,3.56,3.56,0,0,1,2.58-1A3.86,3.86,0,0,1,554.57,424.5Z"/><path class="cls-8" d="M562.12,427.91h-4.77a2,2,0,0,0,.53,1.31,1.62,1.62,0,0,0,1.21.48,1.57,1.57,0,0,0,1-.27,3.88,3.88,0,0,0,.84-1l1.3.72a5.15,5.15,0,0,1-.64.88,3.42,3.42,0,0,1-.72.6,2.86,2.86,0,0,1-.83.34,4,4,0,0,1-1,.11,3.13,3.13,0,0,1-2.39-1,3.59,3.59,0,0,1-.9-2.56,3.69,3.69,0,0,1,.88-2.56,3.33,3.33,0,0,1,4.66,0,3.68,3.68,0,0,1,.85,2.58Zm-1.58-1.26a1.47,1.47,0,0,0-1.55-1.23,1.58,1.58,0,0,0-.53.09,1.48,1.48,0,0,0-.45.25,1.54,1.54,0,0,0-.35.39,1.79,1.79,0,0,0-.22.51Z"/><path class="cls-8" d="M565.34,434.5H563.8V424.22h1.54v.72a2.85,2.85,0,0,1,2.06-.91,2.88,2.88,0,0,1,2.26,1,3.65,3.65,0,0,1,.9,2.54,3.6,3.6,0,0,1-.9,2.5,2.92,2.92,0,0,1-4.33.05Zm3.66-6.91a2.3,2.3,0,0,0-.52-1.56,1.68,1.68,0,0,0-1.33-.61,1.76,1.76,0,0,0-1.37.59,2.23,2.23,0,0,0-.53,1.54,2.28,2.28,0,0,0,.53,1.54,1.73,1.73,0,0,0,1.37.59,1.67,1.67,0,0,0,1.32-.6A2.18,2.18,0,0,0,569,427.59Z"/><path class="cls-8" d="M573.9,425.65v5.22h-1.54v-5.22h-.66v-1.44h.66v-2.44h1.54v2.44h1.2v1.44Z"/><path class="cls-8" d="M586.18,425.38h4.36v.35a7.21,7.21,0,0,1-.28,2.11,4.48,4.48,0,0,1-.92,1.59,4.78,4.78,0,0,1-3.74,1.65,5.14,5.14,0,0,1-3.79-1.6,5.5,5.5,0,0,1,3.94-9.36,5.36,5.36,0,0,1,2.31.51,6.69,6.69,0,0,1,2,1.64l-1.13,1.09a3.85,3.85,0,0,0-3.17-1.73,3.78,3.78,0,0,0-2.81,1.16,3.86,3.86,0,0,0-1.13,2.84,4,4,0,0,0,3.83,4,3.18,3.18,0,0,0,2.11-.79,2.82,2.82,0,0,0,1-1.91h-2.63Z"/><path class="cls-8" d="M593.79,424.22V428q0,1.66,1.31,1.65T596.4,428v-3.82h1.54v3.86a4.3,4.3,0,0,1-.2,1.38,2.32,2.32,0,0,1-.66.94,3.23,3.23,0,0,1-4,0,2.34,2.34,0,0,1-.68-.94,3.8,3.8,0,0,1-.19-1.38v-3.86Z"/><path class="cls-8" d="M599.65,421.45a1,1,0,0,1,.29-.7,1,1,0,0,1,1.42,0,1,1,0,0,1,.29.7,1,1,0,0,1-.29.71.94.94,0,0,1-.7.29,1,1,0,0,1-1-1Zm1.77,2.77v6.66h-1.54v-6.66Z"/><path class="cls-8" d="M608.28,419.33h1.54v11.55h-1.54v-.7a2.87,2.87,0,0,1-2.06.89,2.93,2.93,0,0,1-2.27-1,3.71,3.71,0,0,1-.9-2.54,3.59,3.59,0,0,1,.9-2.49,2.88,2.88,0,0,1,4.33,0Zm-3.65,8.2a2.32,2.32,0,0,0,.51,1.56,1.68,1.68,0,0,0,1.33.61,1.76,1.76,0,0,0,1.38-.59,2.53,2.53,0,0,0,0-3.09,1.74,1.74,0,0,0-1.37-.59,1.7,1.7,0,0,0-1.33.6A2.22,2.22,0,0,0,604.62,427.53Z"/><path class="cls-8" d="M617.83,427.91h-4.77a2,2,0,0,0,.53,1.31,1.62,1.62,0,0,0,1.21.48,1.57,1.57,0,0,0,1-.27,3.88,3.88,0,0,0,.84-1l1.3.72a5.15,5.15,0,0,1-.64.88,3.42,3.42,0,0,1-.72.6,2.86,2.86,0,0,1-.83.34,4,4,0,0,1-1,.11,3.13,3.13,0,0,1-2.39-1,3.59,3.59,0,0,1-.9-2.56,3.69,3.69,0,0,1,.88-2.56,3.33,3.33,0,0,1,4.66,0,3.68,3.68,0,0,1,.85,2.58Zm-1.58-1.26a1.47,1.47,0,0,0-1.55-1.23,1.58,1.58,0,0,0-.53.09,1.48,1.48,0,0,0-.45.25,1.54,1.54,0,0,0-.35.39,1.79,1.79,0,0,0-.22.51Z"/><path class="cls-8" d="M623.38,425.35l-1.27.68q-.3-.62-.75-.62a.51.51,0,0,0-.36.14.47.47,0,0,0-.15.36q0,.38.89.76a5.32,5.32,0,0,1,1.65,1,1.66,1.66,0,0,1,.42,1.2,2.1,2.1,0,0,1-.71,1.61,2.55,2.55,0,0,1-4-1l1.31-.61a2.84,2.84,0,0,0,.42.61,1,1,0,0,0,.67.26q.78,0,.78-.71,0-.41-.6-.77l-.46-.23-.47-.23a2.89,2.89,0,0,1-.94-.66,1.62,1.62,0,0,1-.35-1.07,1.9,1.9,0,0,1,.59-1.44,2.09,2.09,0,0,1,1.48-.57A2,2,0,0,1,623.38,425.35Z"/><rect class="cls-10" x="492.37" y="443.63" width="162" height="18"/><path class="cls-8" d="M546.69,453.38l3.27,4.5H548l-3-4.32h-.29v4.32h-1.59V447.32H545a4.67,4.67,0,0,1,3,.79,2.89,2.89,0,0,1,1,2.31,3,3,0,0,1-.64,1.93A2.86,2.86,0,0,1,546.69,453.38Zm-2-1.21h.51q2.26,0,2.26-1.73t-2.2-1.62h-.57Z"/><path class="cls-8" d="M557.09,454.91h-4.77a2,2,0,0,0,.53,1.31,1.62,1.62,0,0,0,1.21.48,1.57,1.57,0,0,0,1-.27,3.88,3.88,0,0,0,.84-1l1.3.72a5.15,5.15,0,0,1-.64.88,3.42,3.42,0,0,1-.72.6,2.86,2.86,0,0,1-.83.34,4,4,0,0,1-1,.11,3.13,3.13,0,0,1-2.39-1,3.59,3.59,0,0,1-.9-2.56,3.69,3.69,0,0,1,.88-2.56,3.33,3.33,0,0,1,4.66,0,3.68,3.68,0,0,1,.85,2.58Zm-1.58-1.26a1.47,1.47,0,0,0-1.55-1.23,1.58,1.58,0,0,0-.53.09,1.48,1.48,0,0,0-.45.25,1.54,1.54,0,0,0-.35.39,1.79,1.79,0,0,0-.22.51Z"/><path class="cls-8" d="M560.37,452.65v5.22h-1.54v-5.22h-.55v-1.44h.55v-2.57a2.79,2.79,0,0,1,.44-1.78,2.15,2.15,0,0,1,1.75-.72,3,3,0,0,1,1,.24V448l-.16-.08a1.94,1.94,0,0,0-.82-.25.56.56,0,0,0-.55.29,2.83,2.83,0,0,0-.14,1.11v2.19H562v1.44Z"/><path class="cls-8" d="M569.2,454.91h-4.77a2,2,0,0,0,.53,1.31,1.62,1.62,0,0,0,1.21.48,1.57,1.57,0,0,0,1-.27,3.88,3.88,0,0,0,.84-1l1.3.72a5.15,5.15,0,0,1-.64.88,3.42,3.42,0,0,1-.72.6,2.86,2.86,0,0,1-.83.34,4,4,0,0,1-1,.11,3.13,3.13,0,0,1-2.39-1,3.59,3.59,0,0,1-.9-2.56,3.69,3.69,0,0,1,.88-2.56,3.33,3.33,0,0,1,4.66,0,3.68,3.68,0,0,1,.85,2.58Zm-1.58-1.26a1.47,1.47,0,0,0-1.55-1.23,1.58,1.58,0,0,0-.53.09,1.48,1.48,0,0,0-.45.25,1.54,1.54,0,0,0-.35.39,1.79,1.79,0,0,0-.22.51Z"/><path class="cls-8" d="M570.88,451.22h1.54v.59a2.94,2.94,0,0,1,.75-.61A1.73,1.73,0,0,1,574,451a2.49,2.49,0,0,1,1.27.4l-.7,1.41a1.47,1.47,0,0,0-.85-.31q-1.26,0-1.26,1.9v3.45h-1.54Z"/><path class="cls-8" d="M582.08,454.91h-4.77a2,2,0,0,0,.53,1.31,1.62,1.62,0,0,0,1.21.48,1.57,1.57,0,0,0,1-.27,3.88,3.88,0,0,0,.84-1l1.3.72a5.15,5.15,0,0,1-.64.88,3.42,3.42,0,0,1-.72.6,2.86,2.86,0,0,1-.83.34,4,4,0,0,1-1,.11,3.13,3.13,0,0,1-2.39-1,3.59,3.59,0,0,1-.9-2.56,3.69,3.69,0,0,1,.88-2.56,3.33,3.33,0,0,1,4.66,0,3.68,3.68,0,0,1,.85,2.58Zm-1.58-1.26a1.47,1.47,0,0,0-1.55-1.23,1.58,1.58,0,0,0-.53.09,1.48,1.48,0,0,0-.45.25,1.54,1.54,0,0,0-.35.39,1.79,1.79,0,0,0-.22.51Z"/><path class="cls-8" d="M583.77,451.22h1.54v.62a2.52,2.52,0,0,1,1.82-.8,2.3,2.3,0,0,1,1.81.73,3,3,0,0,1,.56,2v4.08H588v-3.72a2.44,2.44,0,0,0-.27-1.36,1.1,1.1,0,0,0-1-.38,1.19,1.19,0,0,0-1.09.51,3.48,3.48,0,0,0-.31,1.74v3.21h-1.54Z"/><path class="cls-8" d="M596.62,451.5v2a3.76,3.76,0,0,0-.94-.88,1.84,1.84,0,0,0-1-.25,1.9,1.9,0,0,0-1.44.61,2.14,2.14,0,0,0-.57,1.52,2.18,2.18,0,0,0,.55,1.54,1.87,1.87,0,0,0,1.43.6,2,2,0,0,0,1-.24,3.85,3.85,0,0,0,1-.9v2a4,4,0,0,1-1.87.49,3.58,3.58,0,0,1-2.58-1,3.33,3.33,0,0,1-1-2.5,3.37,3.37,0,0,1,1.05-2.52,3.56,3.56,0,0,1,2.58-1A3.86,3.86,0,0,1,596.62,451.5Z"/><path class="cls-8" d="M604.18,454.91h-4.77a2,2,0,0,0,.53,1.31,1.62,1.62,0,0,0,1.21.48,1.57,1.57,0,0,0,1-.27,3.88,3.88,0,0,0,.84-1l1.3.72a5.15,5.15,0,0,1-.64.88,3.42,3.42,0,0,1-.72.6,2.86,2.86,0,0,1-.83.34,4,4,0,0,1-1,.11,3.13,3.13,0,0,1-2.39-1,3.59,3.59,0,0,1-.9-2.56,3.69,3.69,0,0,1,.88-2.56,3.33,3.33,0,0,1,4.66,0,3.68,3.68,0,0,1,.85,2.58Zm-1.58-1.26a1.47,1.47,0,0,0-1.55-1.23,1.58,1.58,0,0,0-.53.09,1.48,1.48,0,0,0-.45.25,1.54,1.54,0,0,0-.35.39,1.79,1.79,0,0,0-.22.51Z"/><line class="cls-3" x1="123.37" y1="263.63" x2="263.38" y2="362.46"/><polygon class="cls-4" points="272.53 368.92 265.8 359.03 260.96 365.89 272.53 368.92"/><polygon class="cls-5" points="272.53 368.92 265.8 359.03 260.96 365.89 272.53 368.92"/></svg>