<svg id="Layer_1" data-name="Layer 1" xmlns="http://www.w3.org/2000/svg" viewBox="0 0 686 857"><defs><style>.cls-1{fill:#fff;}.cls-2,.cls-3,.cls-5,.cls-8{fill:none;}.cls-2{stroke:#000;}.cls-2,.cls-3,.cls-8{stroke-linecap:round;stroke-linejoin:round;}.cls-2,.cls-8{stroke-width:2px;}.cls-3,.cls-5{stroke:#268bd2;stroke-width:3px;}.cls-4{fill:#268bd2;}.cls-5{stroke-miterlimit:10;}.cls-6{fill:#fdf6e3;}.cls-7{fill:#f6f8f5;}.cls-8{stroke:#073642;}.cls-9{fill:#073642;}.cls-10{fill:#fdfcf9;}</style></defs><title>information_flow</title><rect class="cls-1" x="1" y="82" width="684" height="630"/><rect class="cls-2" x="1" y="82" width="684" height="630"/><line class="cls-3" x1="343.5" y1="352" x2="343.5" y2="372.1"/><polygon class="cls-4" points="343.5 383.3 347.7 372.1 339.3 372.1 343.5 383.3"/><polygon class="cls-5" points="343.5 383.3 347.7 372.1 339.3 372.1 343.5 383.3"/><line class="cls-3" x1="447.28" y1="352" x2="466.93" y2="375.75"/><polygon class="cls-4" points="474.07 384.38 470.17 373.07 463.7 378.43 474.07 384.38"/><polygon class="cls-5" points="474.07 384.38 470.17 373.07 463.7 378.43 474.07 384.38"/><rect class="cls-6" x="235" y="100" width="216" height="252"/><rect class="cls-2" x="235" y="100" width="216" height="252"/><rect class="cls-7" x="253" y="1" width="180" height="63"/><rect class="cls-8" x="253" y="1" width="180" height="63"/><path class="cls-9" d="M300.34,29.65,305,36.07h-2.78l-4.31-6.17h-.41v6.17h-2.28V21h2.67a6.66,6.66,0,0,1,4.32,1.12,4.13,4.13,0,0,1,1.46,3.3,4.29,4.29,0,0,1-.92,2.75A4.09,4.09,0,0,1,300.34,29.65Zm-2.83-1.73h.72q3.23,0,3.23-2.47,0-2.31-3.14-2.31h-.81Z" transform="translate(-10.79 -6.04)"/><path class="cls-9" d="M315.2,31.83h-6.82a2.89,2.89,0,0,0,.76,1.87,2.32,2.32,0,0,0,1.73.68,2.25,2.25,0,0,0,1.36-.39,5.56,5.56,0,0,0,1.2-1.45l1.86,1a7.41,7.41,0,0,1-.91,1.25,4.81,4.81,0,0,1-1,.86,4.12,4.12,0,0,1-1.18.49,5.74,5.74,0,0,1-1.38.16A4.48,4.48,0,0,1,307.38,35a5.13,5.13,0,0,1-1.29-3.65,5.27,5.27,0,0,1,1.25-3.65,4.76,4.76,0,0,1,6.66,0,5.26,5.26,0,0,1,1.21,3.68ZM312.94,30a2.11,2.11,0,0,0-2.22-1.76,2.28,2.28,0,0,0-.75.12,2.14,2.14,0,0,0-.64.35,2.24,2.24,0,0,0-.49.55,2.57,2.57,0,0,0-.31.73Z" transform="translate(-10.79 -6.04)"/><path class="cls-9" d="M324.61,41.25V35a4.16,4.16,0,0,1-6.18-.08,5.14,5.14,0,0,1-1.28-3.56,5.29,5.29,0,0,1,1.28-3.62,4.15,4.15,0,0,1,3.23-1.45,4.06,4.06,0,0,1,2.95,1.3v-1h2.21V41.25Zm-5.21-10a3.3,3.3,0,0,0,.74,2.24,2.36,2.36,0,0,0,1.88.88,2.51,2.51,0,0,0,2-.84,3.18,3.18,0,0,0,.76-2.21,3.25,3.25,0,0,0-.75-2.21,2.48,2.48,0,0,0-2-.85,2.43,2.43,0,0,0-1.89.86A3.14,3.14,0,0,0,319.4,31.27Z" transform="translate(-10.79 -6.04)"/><path class="cls-9" d="M332,26.56V32q0,2.36,1.87,2.36T335.74,32V26.56h2.2v5.51a6.14,6.14,0,0,1-.28,2,3.32,3.32,0,0,1-.95,1.34,4.62,4.62,0,0,1-5.65,0,3.36,3.36,0,0,1-1-1.34,5.43,5.43,0,0,1-.27-2V26.56Z" transform="translate(-10.79 -6.04)"/><path class="cls-9" d="M340.38,22.6a1.43,1.43,0,0,1,1.43-1.42,1.38,1.38,0,0,1,1,.42,1.35,1.35,0,0,1,.42,1,1.38,1.38,0,0,1-.42,1,1.35,1.35,0,0,1-1,.42,1.43,1.43,0,0,1-1.44-1.45Zm2.53,4v9.51h-2.2V26.56Z" transform="translate(-10.79 -6.04)"/><path class="cls-9" d="M345.69,26.56h2.2v.85a4.2,4.2,0,0,1,1.07-.87,2.46,2.46,0,0,1,1.13-.24,3.55,3.55,0,0,1,1.82.57l-1,2a2.1,2.1,0,0,0-1.22-.45q-1.8,0-1.8,2.71v4.93h-2.2Z" transform="translate(-10.79 -6.04)"/><path class="cls-9" d="M361.71,31.83H354.9a2.89,2.89,0,0,0,.76,1.87,2.32,2.32,0,0,0,1.73.68,2.25,2.25,0,0,0,1.36-.39,5.56,5.56,0,0,0,1.2-1.45l1.86,1a7.36,7.36,0,0,1-.91,1.25,4.84,4.84,0,0,1-1,.86,4.12,4.12,0,0,1-1.18.49,5.73,5.73,0,0,1-1.38.16A4.48,4.48,0,0,1,353.89,35a5.13,5.13,0,0,1-1.29-3.65,5.27,5.27,0,0,1,1.25-3.65,4.76,4.76,0,0,1,6.66,0,5.26,5.26,0,0,1,1.21,3.68ZM359.46,30a2.1,2.1,0,0,0-2.22-1.76,2.29,2.29,0,0,0-.75.12,2.14,2.14,0,0,0-.64.35,2.23,2.23,0,0,0-.49.55A2.56,2.56,0,0,0,355,30Z" transform="translate(-10.79 -6.04)"/><path class="cls-9" d="M364.12,26.56h2.2v.88a4.59,4.59,0,0,1,1.08-.9,2.63,2.63,0,0,1,1.2-.24,2.92,2.92,0,0,1,2.55,1.41,3.3,3.3,0,0,1,2.8-1.41q3.21,0,3.21,3.9v5.88H375V30.79a4.07,4.07,0,0,0-.33-1.93,1.2,1.2,0,0,0-1.12-.58,1.43,1.43,0,0,0-1.32.68,4.41,4.41,0,0,0-.42,2.2v4.91h-2.21V30.82q0-2.54-1.46-2.54a1.47,1.47,0,0,0-1.35.69,4.32,4.32,0,0,0-.42,2.19v4.91h-2.2Z" transform="translate(-10.79 -6.04)"/><path class="cls-9" d="M388.6,31.83h-6.82a2.89,2.89,0,0,0,.76,1.87,2.32,2.32,0,0,0,1.73.68,2.25,2.25,0,0,0,1.36-.39,5.56,5.56,0,0,0,1.2-1.45l1.86,1a7.36,7.36,0,0,1-.91,1.25,4.84,4.84,0,0,1-1,.86,4.12,4.12,0,0,1-1.18.49,5.73,5.73,0,0,1-1.38.16A4.48,4.48,0,0,1,380.78,35a5.13,5.13,0,0,1-1.29-3.65,5.27,5.27,0,0,1,1.25-3.65,4.76,4.76,0,0,1,6.66,0,5.26,5.26,0,0,1,1.21,3.68ZM386.34,30a2.1,2.1,0,0,0-2.22-1.76,2.29,2.29,0,0,0-.75.12,2.14,2.14,0,0,0-.64.35,2.23,2.23,0,0,0-.49.55,2.56,2.56,0,0,0-.31.73Z" transform="translate(-10.79 -6.04)"/><path class="cls-9" d="M391,26.56h2.21v.88a3.6,3.6,0,0,1,2.6-1.14,3.28,3.28,0,0,1,2.59,1,4.28,4.28,0,0,1,.8,2.9v5.83H397V30.76a3.48,3.48,0,0,0-.39-1.94,1.58,1.58,0,0,0-1.39-.55,1.7,1.7,0,0,0-1.55.72,5,5,0,0,0-.45,2.49v4.59H391Z" transform="translate(-10.79 -6.04)"/><path class="cls-9" d="M404.23,28.61v7.46H402V28.61h-.94V26.56H402V23.07h2.2v3.49h1.71v2.05Z" transform="translate(-10.79 -6.04)"/><path class="cls-9" d="M413,28.18l-1.82,1q-.43-.88-1.06-.88a.73.73,0,0,0-.52.2.67.67,0,0,0-.21.51q0,.55,1.27,1.08A7.57,7.57,0,0,1,413,31.45a2.37,2.37,0,0,1,.61,1.71,3,3,0,0,1-1,2.3A3.64,3.64,0,0,1,406.79,34l1.88-.87a4.09,4.09,0,0,0,.6.87,1.36,1.36,0,0,0,1,.37q1.11,0,1.11-1,0-.59-.86-1.09l-.66-.32-.67-.32a4.13,4.13,0,0,1-1.35-.94,2.31,2.31,0,0,1-.5-1.53,2.71,2.71,0,0,1,.85-2.05,3,3,0,0,1,2.11-.81A2.88,2.88,0,0,1,413,28.18Z" transform="translate(-10.79 -6.04)"/><path class="cls-9" d="M320.07,44.95l1.52.59a18.77,18.77,0,0,0-1.12,3.53,16.6,16.6,0,0,0-.24,1.72q-.08.91-.08,2t.08,2a16.53,16.53,0,0,0,.24,1.72A18.13,18.13,0,0,0,321.59,60l-1.52.59a18,18,0,0,1-1.6-7.81A18,18,0,0,1,320.07,44.95Z" transform="translate(-10.79 -6.04)"/><path class="cls-9" d="M325.67,46.13v9.71H329v1.6h-5V46.13Z" transform="translate(-10.79 -6.04)"/><path class="cls-9" d="M332.32,52.85v4.59h-1.71V46.13h1.93a8.78,8.78,0,0,1,2.15.2,2.88,2.88,0,0,1,1.29.75,3.22,3.22,0,0,1,1,2.4,3.1,3.1,0,0,1-1,2.46,4.12,4.12,0,0,1-2.81.91Zm0-1.58H333q2.35,0,2.35-1.81t-2.42-1.75h-.56Z" transform="translate(-10.79 -6.04)"/><path class="cls-9" d="M338.32,57.44l2.38-12.16,3.88,8.79,4-8.79,2.14,12.16H349l-1.09-6.83L344.56,58l-3.25-7.35-1.22,6.83Z" transform="translate(-10.79 -6.04)"/><path class="cls-9" d="M353.84,55.32l1.46.57-2.09,4.18-1.11-.46Z" transform="translate(-10.79 -6.04)"/><path class="cls-9" d="M364.1,46.13v9.71h3.33v1.6h-5V46.13Z" transform="translate(-10.79 -6.04)"/><path class="cls-9" d="M375.47,47.82l-1.38.82a2.39,2.39,0,0,0-.74-.88,2,2,0,0,0-2.12.17,1.25,1.25,0,0,0-.47,1q0,.83,1.23,1.33l1.13.46a4.81,4.81,0,0,1,2,1.36,3.06,3.06,0,0,1,.64,2,3.46,3.46,0,0,1-1,2.58,3.57,3.57,0,0,1-2.6,1,3.47,3.47,0,0,1-2.43-.87,4,4,0,0,1-1.18-2.45l1.73-.38a2.94,2.94,0,0,0,.41,1.38,1.95,1.95,0,0,0,2.86.2,1.85,1.85,0,0,0,.53-1.36,1.92,1.92,0,0,0-.09-.6,1.53,1.53,0,0,0-.29-.5,2.27,2.27,0,0,0-.5-.43,4.88,4.88,0,0,0-.73-.38l-1.09-.46q-2.32-1-2.32-2.87a2.72,2.72,0,0,1,1-2.13,3.52,3.52,0,0,1,2.42-.86A3.39,3.39,0,0,1,375.47,47.82Z" transform="translate(-10.79 -6.04)"/><path class="cls-9" d="M384.06,47.74h-4.53v2.72h4.4v1.6h-4.4v3.78h4.53v1.6h-6.24V46.13h6.24Z" transform="translate(-10.79 -6.04)"/><path class="cls-9" d="M387.49,60.58,386,60a18.14,18.14,0,0,0,1.12-3.52A18.16,18.16,0,0,0,386,45.53l1.52-.59a18,18,0,0,1,1.6,7.82A18,18,0,0,1,387.49,60.58Z" transform="translate(-10.79 -6.04)"/><rect class="cls-6" x="253" y="127" width="180" height="63"/><rect class="cls-8" x="253" y="127" width="180" height="63"/><path class="cls-9" d="M272.49,162.07V147h3.16a11.5,11.5,0,0,1,3.59.45,6.73,6.73,0,0,1,2.57,1.49,7.8,7.8,0,0,1-.1,11.22,7.11,7.11,0,0,1-2.56,1.49,11.64,11.64,0,0,1-3.54.42Zm2.28-2.14h1a8.56,8.56,0,0,0,2.55-.32,5.18,5.18,0,0,0,3.52-5.08,5.24,5.24,0,0,0-1.66-4,6.29,6.29,0,0,0-4.4-1.38h-1Z" transform="translate(-10.79 -6.04)"/><path class="cls-9" d="M295.26,157.83h-6.82a2.89,2.89,0,0,0,.76,1.87,2.32,2.32,0,0,0,1.73.68,2.25,2.25,0,0,0,1.36-.39,5.56,5.56,0,0,0,1.2-1.45l1.86,1a7.41,7.41,0,0,1-.91,1.25,4.81,4.81,0,0,1-1,.86,4.12,4.12,0,0,1-1.18.49,5.74,5.74,0,0,1-1.38.16,4.48,4.48,0,0,1-3.42-1.37,5.13,5.13,0,0,1-1.29-3.65,5.27,5.27,0,0,1,1.25-3.65,4.76,4.76,0,0,1,6.66,0,5.26,5.26,0,0,1,1.21,3.68ZM293,156a2.11,2.11,0,0,0-2.22-1.76,2.28,2.28,0,0,0-.75.12,2.14,2.14,0,0,0-.64.35,2.24,2.24,0,0,0-.49.55,2.57,2.57,0,0,0-.31.73Z" transform="translate(-10.79 -6.04)"/><path class="cls-9" d="M303.19,154.18l-1.82,1q-.43-.88-1.06-.88a.73.73,0,0,0-.52.2.67.67,0,0,0-.21.51q0,.55,1.27,1.08a7.57,7.57,0,0,1,2.35,1.39,2.37,2.37,0,0,1,.61,1.71,3,3,0,0,1-1,2.3A3.64,3.64,0,0,1,297,160l1.88-.87a4.07,4.07,0,0,0,.6.87,1.36,1.36,0,0,0,1,.37q1.11,0,1.11-1,0-.59-.86-1.09L300,158l-.67-.32a4.12,4.12,0,0,1-1.35-.94,2.31,2.31,0,0,1-.5-1.53,2.71,2.71,0,0,1,.85-2.05,3,3,0,0,1,2.11-.81A2.88,2.88,0,0,1,303.19,154.18Z" transform="translate(-10.79 -6.04)"/><path class="cls-9" d="M305.44,148.6a1.43,1.43,0,0,1,1.43-1.42,1.38,1.38,0,0,1,1,.42,1.35,1.35,0,0,1,.42,1,1.38,1.38,0,0,1-.42,1,1.35,1.35,0,0,1-1,.42,1.38,1.38,0,0,1-1-.42A1.4,1.4,0,0,1,305.44,148.6Zm2.53,4v9.51h-2.2v-9.51Z" transform="translate(-10.79 -6.04)"/><path class="cls-9" d="M320,161.85q0,.67,0,1.19a8.22,8.22,0,0,1-.12.9,4,4,0,0,1-.92,1.85,4.45,4.45,0,0,1-3.54,1.48,4.73,4.73,0,0,1-3.13-1,4.19,4.19,0,0,1-1.46-2.92h2.21a2.5,2.5,0,0,0,.42,1.08,2.36,2.36,0,0,0,2,.89q2.41,0,2.41-3V161a4.1,4.1,0,0,1-3,1.34,4.05,4.05,0,0,1-3.18-1.41,5.21,5.21,0,0,1-1.25-3.56,5.49,5.49,0,0,1,1.16-3.54,4,4,0,0,1,3.3-1.54,3.83,3.83,0,0,1,3,1.34v-1.07H320Zm-2.11-4.51a3.2,3.2,0,0,0-.74-2.22,2.45,2.45,0,0,0-1.92-.85,2.37,2.37,0,0,0-2,.93,3.82,3.82,0,0,0,0,4.28,2.37,2.37,0,0,0,2,.91,2.41,2.41,0,0,0,2-.92A3.27,3.27,0,0,0,317.85,157.34Z" transform="translate(-10.79 -6.04)"/><path class="cls-9" d="M322.73,152.56h2.21v.88a3.6,3.6,0,0,1,2.6-1.14,3.28,3.28,0,0,1,2.59,1,4.28,4.28,0,0,1,.8,2.9v5.83h-2.21v-5.31a3.48,3.48,0,0,0-.39-1.94,1.58,1.58,0,0,0-1.39-.55,1.7,1.7,0,0,0-1.55.72,5,5,0,0,0-.45,2.49v4.59h-2.21Z" transform="translate(-10.79 -6.04)"/><path class="cls-9" d="M340.29,162.07V147h3.16a11.51,11.51,0,0,1,3.59.45,6.73,6.73,0,0,1,2.57,1.49,7.8,7.8,0,0,1-.1,11.22,7.11,7.11,0,0,1-2.56,1.49,11.63,11.63,0,0,1-3.54.42Zm2.28-2.14h1a8.55,8.55,0,0,0,2.55-.32,5.18,5.18,0,0,0,3.52-5.08,5.24,5.24,0,0,0-1.66-4,6.29,6.29,0,0,0-4.4-1.38h-1Z" transform="translate(-10.79 -6.04)"/><path class="cls-9" d="M353.94,157.25a4.73,4.73,0,0,1,1.47-3.51,5.2,5.2,0,0,1,7.21,0,5.09,5.09,0,0,1,0,7.16,5,5,0,0,1-3.64,1.44,4.83,4.83,0,0,1-3.58-1.46A4.93,4.93,0,0,1,353.94,157.25Zm2.25,0a3.21,3.21,0,0,0,.76,2.26,3,3,0,0,0,4.12,0,3.57,3.57,0,0,0,0-4.43,2.92,2.92,0,0,0-4.1,0A3.06,3.06,0,0,0,356.19,157.29Z" transform="translate(-10.79 -6.04)"/><path class="cls-9" d="M373.81,153v2.92a5.33,5.33,0,0,0-1.35-1.26,2.63,2.63,0,0,0-1.38-.35,2.71,2.71,0,0,0-2.06.87,3,3,0,0,0-.82,2.18,3.12,3.12,0,0,0,.79,2.2,2.67,2.67,0,0,0,2,.86,2.79,2.79,0,0,0,1.4-.34,5.55,5.55,0,0,0,1.38-1.29v2.9a5.77,5.77,0,0,1-2.68.69,5.12,5.12,0,0,1-3.69-1.43,4.76,4.76,0,0,1-1.48-3.56,4.82,4.82,0,0,1,1.5-3.59,5.09,5.09,0,0,1,3.69-1.46A5.52,5.52,0,0,1,373.81,153Z" transform="translate(-10.79 -6.04)"/><path class="cls-9" d="M378.14,152.56V158q0,2.36,1.87,2.36t1.87-2.36v-5.46h2.2v5.51a6.14,6.14,0,0,1-.28,2,3.32,3.32,0,0,1-.95,1.34,4.62,4.62,0,0,1-5.65,0,3.36,3.36,0,0,1-1-1.34,5.43,5.43,0,0,1-.27-2v-5.51Z" transform="translate(-10.79 -6.04)"/><path class="cls-9" d="M386.84,152.56H389v.88a4.59,4.59,0,0,1,1.08-.9,2.63,2.63,0,0,1,1.2-.24,2.92,2.92,0,0,1,2.55,1.41,3.3,3.3,0,0,1,2.8-1.41q3.21,0,3.21,3.9v5.88h-2.21v-5.28a4.07,4.07,0,0,0-.33-1.93,1.2,1.2,0,0,0-1.12-.58,1.43,1.43,0,0,0-1.32.68,4.41,4.41,0,0,0-.42,2.2v4.91h-2.21v-5.25q0-2.54-1.46-2.54a1.47,1.47,0,0,0-1.35.69,4.32,4.32,0,0,0-.42,2.19v4.91h-2.2Z" transform="translate(-10.79 -6.04)"/><path class="cls-9" d="M411.32,157.83h-6.82a2.89,2.89,0,0,0,.76,1.87,2.32,2.32,0,0,0,1.73.68,2.25,2.25,0,0,0,1.36-.39,5.56,5.56,0,0,0,1.2-1.45l1.86,1a7.36,7.36,0,0,1-.91,1.25,4.84,4.84,0,0,1-1,.86,4.12,4.12,0,0,1-1.18.49,5.73,5.73,0,0,1-1.38.16A4.48,4.48,0,0,1,403.5,161a5.13,5.13,0,0,1-1.29-3.65,5.27,5.27,0,0,1,1.25-3.65,4.76,4.76,0,0,1,6.66,0,5.26,5.26,0,0,1,1.21,3.68Zm-2.26-1.8a2.1,2.1,0,0,0-2.22-1.76,2.29,2.29,0,0,0-.75.12,2.14,2.14,0,0,0-.64.35,2.23,2.23,0,0,0-.49.55,2.56,2.56,0,0,0-.31.73Z" transform="translate(-10.79 -6.04)"/><path class="cls-9" d="M413.73,152.56h2.21v.88a3.6,3.6,0,0,1,2.6-1.14,3.28,3.28,0,0,1,2.59,1,4.28,4.28,0,0,1,.8,2.9v5.83h-2.21v-5.31a3.48,3.48,0,0,0-.39-1.94,1.58,1.58,0,0,0-1.39-.55,1.7,1.7,0,0,0-1.55.72,5,5,0,0,0-.45,2.49v4.59h-2.21Z" transform="translate(-10.79 -6.04)"/><path class="cls-9" d="M427,154.61v7.46h-2.2v-7.46h-.94v-2.05h.94v-3.49H427v3.49h1.71v2.05Z" transform="translate(-10.79 -6.04)"/><path class="cls-9" d="M435.69,154.18l-1.82,1q-.43-.88-1.06-.88a.73.73,0,0,0-.52.2.67.67,0,0,0-.21.51q0,.55,1.27,1.08a7.57,7.57,0,0,1,2.35,1.39,2.37,2.37,0,0,1,.61,1.71,3,3,0,0,1-1,2.3,3.64,3.64,0,0,1-5.77-1.46l1.88-.87a4.09,4.09,0,0,0,.6.87,1.36,1.36,0,0,0,1,.37q1.11,0,1.11-1,0-.59-.86-1.09l-.66-.32-.67-.32a4.13,4.13,0,0,1-1.35-.94,2.31,2.31,0,0,1-.5-1.53,2.71,2.71,0,0,1,.85-2.05,3,3,0,0,1,2.11-.81A2.88,2.88,0,0,1,435.69,154.18Z" transform="translate(-10.79 -6.04)"/><path class="cls-9" d="M335.27,170.95l1.52.59a18.77,18.77,0,0,0-1.12,3.53,16.34,16.34,0,0,0-.24,1.72q-.08.91-.08,2t.08,2a16.27,16.27,0,0,0,.24,1.72,18.13,18.13,0,0,0,1.12,3.52l-1.52.59a19.93,19.93,0,0,1,0-15.63Z" transform="translate(-10.79 -6.04)"/><path class="cls-9" d="M340.87,172.13v9.71h3.33v1.6h-5V172.13Z" transform="translate(-10.79 -6.04)"/><path class="cls-9" d="M345.81,183.44V172.13h2.37a8.64,8.64,0,0,1,2.7.34,5,5,0,0,1,1.93,1.12,5.85,5.85,0,0,1-.07,8.42,5.33,5.33,0,0,1-1.92,1.12,8.74,8.74,0,0,1-2.66.31Zm1.71-1.6h.77a6.42,6.42,0,0,0,1.91-.24,3.88,3.88,0,0,0,2.64-3.81,3.93,3.93,0,0,0-1.25-3,4.72,4.72,0,0,0-3.3-1h-.77Z" transform="translate(-10.79 -6.04)"/><path class="cls-9" d="M356.31,183.44l2.38-12.16,3.88,8.79,4-8.79,2.14,12.16H367l-1.09-6.83L362.54,184l-3.25-7.35-1.22,6.83Z" transform="translate(-10.79 -6.04)"/><path class="cls-9" d="M372.31,186.58l-1.52-.59a18.14,18.14,0,0,0,1.12-3.52,18.16,18.16,0,0,0-1.12-10.93l1.52-.59a19.91,19.91,0,0,1,0,15.63Z" transform="translate(-10.79 -6.04)"/><line class="cls-3" x1="343.5" y1="64" x2="343.5" y2="111.1"/><polygon class="cls-4" points="343.5 122.3 347.7 111.1 339.3 111.1 343.5 122.3"/><polygon class="cls-5" points="343.5 122.3 347.7 111.1 339.3 111.1 343.5 122.3"/><rect class="cls-6" x="253" y="235" width="180" height="90"/><rect class="cls-8" x="253" y="235" width="180" height="90"/><path class="cls-9" d="M291.49,255.21v15.08h-2.28V255.21Z" transform="translate(-10.79 -6.04)"/><path class="cls-9" d="M294.7,260.78h2.2v.88a4.61,4.61,0,0,1,1.08-.9,2.62,2.62,0,0,1,1.2-.24,2.92,2.92,0,0,1,2.55,1.41,3.3,3.3,0,0,1,2.8-1.41q3.21,0,3.21,3.9v5.88h-2.21V265a4.08,4.08,0,0,0-.33-1.93,1.2,1.2,0,0,0-1.12-.58,1.43,1.43,0,0,0-1.32.68,4.4,4.4,0,0,0-.42,2.2v4.91h-2.21V265q0-2.54-1.46-2.54a1.47,1.47,0,0,0-1.35.69,4.32,4.32,0,0,0-.42,2.19v4.91h-2.2Z" transform="translate(-10.79 -6.04)"/><path class="cls-9" d="M313,275.47h-2.2V260.78H313v1a4.06,4.06,0,0,1,2.95-1.3,4.11,4.11,0,0,1,3.23,1.45,5.22,5.22,0,0,1,1.29,3.62,5.14,5.14,0,0,1-1.28,3.56,4.17,4.17,0,0,1-6.19.08Zm5.22-9.87a3.29,3.29,0,0,0-.74-2.23,2.4,2.4,0,0,0-1.89-.87,2.51,2.51,0,0,0-2,.84,3.18,3.18,0,0,0-.75,2.21,3.25,3.25,0,0,0,.75,2.21,2.47,2.47,0,0,0,2,.85,2.38,2.38,0,0,0,1.88-.86A3.12,3.12,0,0,0,318.18,265.59Z" transform="translate(-10.79 -6.04)"/><path class="cls-9" d="M324.95,253.8v16.49h-2.2V253.8Z" transform="translate(-10.79 -6.04)"/><path class="cls-9" d="M336.39,266.05h-6.82a2.89,2.89,0,0,0,.76,1.87,2.32,2.32,0,0,0,1.73.68,2.25,2.25,0,0,0,1.36-.39,5.56,5.56,0,0,0,1.2-1.45l1.86,1a7.36,7.36,0,0,1-.91,1.25,4.84,4.84,0,0,1-1,.86,4.12,4.12,0,0,1-1.18.49,5.73,5.73,0,0,1-1.38.16,4.48,4.48,0,0,1-3.42-1.37,5.13,5.13,0,0,1-1.29-3.65,5.27,5.27,0,0,1,1.25-3.65,4.76,4.76,0,0,1,6.66,0,5.26,5.26,0,0,1,1.21,3.68Zm-2.26-1.8a2.1,2.1,0,0,0-2.22-1.76,2.29,2.29,0,0,0-.75.12,2.14,2.14,0,0,0-.64.35,2.23,2.23,0,0,0-.49.55,2.56,2.56,0,0,0-.31.73Z" transform="translate(-10.79 -6.04)"/><path class="cls-9" d="M338.79,260.78H341v.88a4.59,4.59,0,0,1,1.08-.9,2.63,2.63,0,0,1,1.2-.24,2.92,2.92,0,0,1,2.55,1.41,3.3,3.3,0,0,1,2.8-1.41q3.21,0,3.21,3.9v5.88h-2.21V265a4.07,4.07,0,0,0-.33-1.93,1.2,1.2,0,0,0-1.12-.58,1.43,1.43,0,0,0-1.32.68,4.41,4.41,0,0,0-.42,2.2v4.91h-2.21V265q0-2.54-1.46-2.54a1.47,1.47,0,0,0-1.35.69,4.32,4.32,0,0,0-.42,2.19v4.91h-2.2Z" transform="translate(-10.79 -6.04)"/><path class="cls-9" d="M363.28,266.05h-6.82a2.89,2.89,0,0,0,.76,1.87,2.32,2.32,0,0,0,1.73.68,2.25,2.25,0,0,0,1.36-.39,5.56,5.56,0,0,0,1.2-1.45l1.86,1a7.36,7.36,0,0,1-.91,1.25,4.84,4.84,0,0,1-1,.86,4.12,4.12,0,0,1-1.18.49,5.73,5.73,0,0,1-1.38.16,4.48,4.48,0,0,1-3.42-1.37,5.13,5.13,0,0,1-1.29-3.65,5.27,5.27,0,0,1,1.25-3.65,4.76,4.76,0,0,1,6.66,0,5.26,5.26,0,0,1,1.21,3.68Zm-2.26-1.8a2.1,2.1,0,0,0-2.22-1.76,2.29,2.29,0,0,0-.75.12,2.14,2.14,0,0,0-.64.35,2.23,2.23,0,0,0-.49.55,2.56,2.56,0,0,0-.31.73Z" transform="translate(-10.79 -6.04)"/><path class="cls-9" d="M365.68,260.78h2.21v.88a3.6,3.6,0,0,1,2.6-1.14,3.28,3.28,0,0,1,2.59,1,4.28,4.28,0,0,1,.8,2.9v5.83h-2.21V265a3.48,3.48,0,0,0-.39-1.94,1.58,1.58,0,0,0-1.39-.55,1.7,1.7,0,0,0-1.55.72,5,5,0,0,0-.45,2.49v4.59h-2.21Z" transform="translate(-10.79 -6.04)"/><path class="cls-9" d="M378.91,262.83v7.46h-2.2v-7.46h-.94v-2.05h.94v-3.49h2.2v3.49h1.71v2.05Z" transform="translate(-10.79 -6.04)"/><path class="cls-9" d="M389.29,260.78h2.21v9.51h-2.21v-1a4.22,4.22,0,0,1-6.18-.16,5.3,5.3,0,0,1-1.28-3.63,5.14,5.14,0,0,1,1.28-3.56,4.12,4.12,0,0,1,3.2-1.43,4,4,0,0,1,3,1.37Zm-5.21,4.73a3.31,3.31,0,0,0,.73,2.23,2.4,2.4,0,0,0,1.89.87,2.52,2.52,0,0,0,2-.84,3.61,3.61,0,0,0,0-4.41,2.49,2.49,0,0,0-2-.85,2.43,2.43,0,0,0-1.89.86A3.17,3.17,0,0,0,384.07,265.51Z" transform="translate(-10.79 -6.04)"/><path class="cls-9" d="M396.53,262.83v7.46h-2.2v-7.46h-.94v-2.05h.94v-3.49h2.2v3.49h1.71v2.05Z" transform="translate(-10.79 -6.04)"/><path class="cls-9" d="M399.4,256.82a1.43,1.43,0,0,1,1.43-1.42,1.38,1.38,0,0,1,1,.42,1.35,1.35,0,0,1,.42,1,1.38,1.38,0,0,1-.42,1,1.35,1.35,0,0,1-1,.42,1.43,1.43,0,0,1-1.44-1.45Zm2.53,4v9.51h-2.2v-9.51Z" transform="translate(-10.79 -6.04)"/><path class="cls-9" d="M404.27,265.47a4.73,4.73,0,0,1,1.47-3.51,5.2,5.2,0,0,1,7.21,0,5.09,5.09,0,0,1,0,7.16,5,5,0,0,1-3.64,1.44,4.83,4.83,0,0,1-3.58-1.46A4.93,4.93,0,0,1,404.27,265.47Zm2.25,0a3.21,3.21,0,0,0,.76,2.26,3,3,0,0,0,4.12,0,3.57,3.57,0,0,0,0-4.43,2.92,2.92,0,0,0-4.1,0A3.06,3.06,0,0,0,406.51,265.51Z" transform="translate(-10.79 -6.04)"/><path class="cls-9" d="M416.74,260.78h2.21v.88a3.6,3.6,0,0,1,2.6-1.14,3.28,3.28,0,0,1,2.59,1,4.28,4.28,0,0,1,.8,2.9v5.83h-2.21V265a3.48,3.48,0,0,0-.39-1.94,1.58,1.58,0,0,0-1.39-.55,1.7,1.7,0,0,0-1.55.72,5,5,0,0,0-.45,2.49v4.59h-2.21Z" transform="translate(-10.79 -6.04)"/><path class="cls-9" d="M288,283.91v12.94h-2.28V283.91h-3.47v-2.14h9.2v2.14Z" transform="translate(-10.79 -6.04)"/><path class="cls-9" d="M300.91,292.61h-6.82a2.89,2.89,0,0,0,.76,1.87,2.32,2.32,0,0,0,1.73.68,2.25,2.25,0,0,0,1.36-.39,5.56,5.56,0,0,0,1.2-1.45l1.86,1a7.41,7.41,0,0,1-.91,1.25,4.81,4.81,0,0,1-1,.86,4.12,4.12,0,0,1-1.18.49,5.74,5.74,0,0,1-1.38.16,4.48,4.48,0,0,1-3.42-1.37,5.13,5.13,0,0,1-1.29-3.65,5.27,5.27,0,0,1,1.25-3.65,4.76,4.76,0,0,1,6.66,0,5.26,5.26,0,0,1,1.21,3.68Zm-2.26-1.8a2.11,2.11,0,0,0-2.22-1.76,2.28,2.28,0,0,0-.75.12,2.14,2.14,0,0,0-.64.35,2.24,2.24,0,0,0-.49.55,2.57,2.57,0,0,0-.31.73Z" transform="translate(-10.79 -6.04)"/><path class="cls-9" d="M310.71,287.75v2.92a5.35,5.35,0,0,0-1.35-1.26,2.63,2.63,0,0,0-1.38-.35,2.72,2.72,0,0,0-2.06.87,3,3,0,0,0-.82,2.18,3.12,3.12,0,0,0,.79,2.2,2.67,2.67,0,0,0,2,.86,2.8,2.8,0,0,0,1.4-.34,5.55,5.55,0,0,0,1.38-1.29v2.9a5.77,5.77,0,0,1-2.68.69,5.12,5.12,0,0,1-3.69-1.43,4.76,4.76,0,0,1-1.48-3.56,4.82,4.82,0,0,1,1.5-3.59,5.09,5.09,0,0,1,3.69-1.46A5.52,5.52,0,0,1,310.71,287.75Z" transform="translate(-10.79 -6.04)"/><path class="cls-9" d="M313.34,280.36h2.2v7.77a3.78,3.78,0,0,1,2.59-1.05,3.34,3.34,0,0,1,2.58,1,4.25,4.25,0,0,1,.82,2.9v5.83h-2.2v-5.62a2.68,2.68,0,0,0-.41-1.66,1.56,1.56,0,0,0-1.3-.51,1.79,1.79,0,0,0-1.62.71,4.89,4.89,0,0,0-.46,2.48v4.6h-2.2Z" transform="translate(-10.79 -6.04)"/><path class="cls-9" d="M324.31,287.34h2.21v.88a3.6,3.6,0,0,1,2.6-1.14,3.28,3.28,0,0,1,2.59,1,4.28,4.28,0,0,1,.8,2.9v5.83h-2.21v-5.31a3.48,3.48,0,0,0-.39-1.94,1.58,1.58,0,0,0-1.39-.55,1.7,1.7,0,0,0-1.55.72,5,5,0,0,0-.45,2.49v4.59h-2.21Z" transform="translate(-10.79 -6.04)"/><path class="cls-9" d="M334.94,283.39a1.43,1.43,0,0,1,1.43-1.42,1.38,1.38,0,0,1,1,.42,1.35,1.35,0,0,1,.42,1,1.38,1.38,0,0,1-.42,1,1.35,1.35,0,0,1-1,.42,1.43,1.43,0,0,1-1.44-1.45Zm2.53,4v9.51h-2.2v-9.51Z" transform="translate(-10.79 -6.04)"/><path class="cls-9" d="M347.66,287.75v2.92a5.33,5.33,0,0,0-1.35-1.26,2.63,2.63,0,0,0-1.38-.35,2.71,2.71,0,0,0-2.06.87,3,3,0,0,0-.82,2.18,3.12,3.12,0,0,0,.79,2.2,2.67,2.67,0,0,0,2,.86,2.79,2.79,0,0,0,1.4-.34,5.55,5.55,0,0,0,1.38-1.29v2.9a5.77,5.77,0,0,1-2.68.69,5.12,5.12,0,0,1-3.69-1.43,4.76,4.76,0,0,1-1.48-3.56,4.82,4.82,0,0,1,1.5-3.59,5.09,5.09,0,0,1,3.69-1.46A5.52,5.52,0,0,1,347.66,287.75Z" transform="translate(-10.79 -6.04)"/><path class="cls-9" d="M356.8,287.34H359v9.51H356.8v-1a4.22,4.22,0,0,1-6.18-.16,5.3,5.3,0,0,1-1.28-3.63,5.14,5.14,0,0,1,1.28-3.56,4.12,4.12,0,0,1,3.2-1.43,4,4,0,0,1,3,1.37Zm-5.21,4.73a3.31,3.31,0,0,0,.73,2.23,2.4,2.4,0,0,0,1.89.87,2.52,2.52,0,0,0,2-.84,3.61,3.61,0,0,0,0-4.41,2.49,2.49,0,0,0-2-.85,2.43,2.43,0,0,0-1.89.86A3.17,3.17,0,0,0,351.58,292.07Z" transform="translate(-10.79 -6.04)"/><path class="cls-9" d="M364,280.36v16.49h-2.2V280.36Z" transform="translate(-10.79 -6.04)"/><path class="cls-9" d="M373.35,296.85v-16.1l11,11.5V281.77h2.28v16l-11-11.47v10.56Z" transform="translate(-10.79 -6.04)"/><path class="cls-9" d="M389.49,292a4.73,4.73,0,0,1,1.47-3.51,5.2,5.2,0,0,1,7.21,0,5.09,5.09,0,0,1,0,7.16,5,5,0,0,1-3.64,1.44,4.83,4.83,0,0,1-3.58-1.46A4.93,4.93,0,0,1,389.49,292Zm2.25,0a3.21,3.21,0,0,0,.76,2.26,3,3,0,0,0,4.12,0,3.57,3.57,0,0,0,0-4.43,2.92,2.92,0,0,0-4.1,0A3.06,3.06,0,0,0,391.73,292.07Z" transform="translate(-10.79 -6.04)"/><path class="cls-9" d="M404.32,289.39v7.46h-2.2v-7.46h-.94v-2.05h.94v-3.49h2.2v3.49H406v2.05Z" transform="translate(-10.79 -6.04)"/><path class="cls-9" d="M416.35,292.61h-6.82a2.89,2.89,0,0,0,.76,1.87,2.32,2.32,0,0,0,1.73.68,2.25,2.25,0,0,0,1.36-.39,5.56,5.56,0,0,0,1.2-1.45l1.86,1a7.36,7.36,0,0,1-.91,1.25,4.84,4.84,0,0,1-1,.86,4.12,4.12,0,0,1-1.18.49,5.73,5.73,0,0,1-1.38.16,4.48,4.48,0,0,1-3.42-1.37,5.13,5.13,0,0,1-1.29-3.65,5.27,5.27,0,0,1,1.25-3.65,4.76,4.76,0,0,1,6.66,0,5.26,5.26,0,0,1,1.21,3.68Zm-2.26-1.8a2.1,2.1,0,0,0-2.22-1.76,2.29,2.29,0,0,0-.75.12,2.14,2.14,0,0,0-.64.35,2.23,2.23,0,0,0-.49.55,2.56,2.56,0,0,0-.31.73Z" transform="translate(-10.79 -6.04)"/><path class="cls-9" d="M424.28,289l-1.82,1Q422,289,421.4,289a.73.73,0,0,0-.52.2.67.67,0,0,0-.21.51q0,.55,1.27,1.08a7.57,7.57,0,0,1,2.35,1.39,2.37,2.37,0,0,1,.61,1.71,3,3,0,0,1-1,2.3,3.64,3.64,0,0,1-5.77-1.46l1.88-.87a4.09,4.09,0,0,0,.6.87,1.36,1.36,0,0,0,1,.37q1.11,0,1.11-1,0-.59-.86-1.09l-.66-.32-.67-.32a4.13,4.13,0,0,1-1.35-.94,2.31,2.31,0,0,1-.5-1.53,2.71,2.71,0,0,1,.85-2.05,3,3,0,0,1,2.11-.81A2.88,2.88,0,0,1,424.28,289Z" transform="translate(-10.79 -6.04)"/><path class="cls-9" d="M308.17,305.73l1.52.59a18.77,18.77,0,0,0-1.12,3.53,16.6,16.6,0,0,0-.24,1.72q-.08.91-.08,2t.08,2a16.53,16.53,0,0,0,.24,1.72,18.13,18.13,0,0,0,1.12,3.52l-1.52.59a19.92,19.92,0,0,1,0-15.63Z" transform="translate(-10.79 -6.04)"/><path class="cls-9" d="M312.07,318.22V306.91h2.37a8.64,8.64,0,0,1,2.7.34,5,5,0,0,1,1.93,1.12,5.85,5.85,0,0,1-.07,8.42,5.33,5.33,0,0,1-1.92,1.12,8.74,8.74,0,0,1-2.66.31Zm1.71-1.6h.77a6.42,6.42,0,0,0,1.91-.24,3.88,3.88,0,0,0,2.64-3.81,3.93,3.93,0,0,0-1.25-3,4.72,4.72,0,0,0-3.3-1h-.77Z" transform="translate(-10.79 -6.04)"/><path class="cls-9" d="M322.57,318.22l2.38-12.16,3.88,8.79,4-8.79L335,318.22h-1.75l-1.09-6.83-3.35,7.35-3.25-7.35-1.22,6.83Z" transform="translate(-10.79 -6.04)"/><path class="cls-9" d="M340.5,308.52v9.71H338.8v-9.71h-2.6v-1.6h6.9v1.6Z" transform="translate(-10.79 -6.04)"/><path class="cls-9" d="M344.62,318.22V306.14l8.25,8.63v-7.86h1.71v12l-8.25-8.61v7.92Z" transform="translate(-10.79 -6.04)"/><path class="cls-9" d="M358.48,316.1l1.46.57-2.09,4.18-1.11-.46Z" transform="translate(-10.79 -6.04)"/><path class="cls-9" d="M373.43,308.6l-1.38.82a2.39,2.39,0,0,0-.74-.88,2,2,0,0,0-2.12.17,1.25,1.25,0,0,0-.47,1q0,.83,1.23,1.33l1.13.46a4.81,4.81,0,0,1,2,1.36,3.06,3.06,0,0,1,.64,2,3.46,3.46,0,0,1-1,2.58,3.57,3.57,0,0,1-2.6,1,3.47,3.47,0,0,1-2.43-.87,4,4,0,0,1-1.18-2.45l1.73-.38a2.94,2.94,0,0,0,.41,1.38,1.95,1.95,0,0,0,2.86.2,1.85,1.85,0,0,0,.53-1.36,1.92,1.92,0,0,0-.09-.6,1.53,1.53,0,0,0-.29-.5,2.27,2.27,0,0,0-.5-.43,4.88,4.88,0,0,0-.73-.38l-1.09-.46q-2.32-1-2.32-2.87a2.72,2.72,0,0,1,1-2.13,3.52,3.52,0,0,1,2.42-.86A3.39,3.39,0,0,1,373.43,308.6Z" transform="translate(-10.79 -6.04)"/><path class="cls-9" d="M387.29,318.43h-2.15l-.89-.91a5.7,5.7,0,0,1-3.15.91,5.89,5.89,0,0,1-4-1.52,5.46,5.46,0,0,1-1.9-4.29,5.64,5.64,0,0,1,1.79-4.26,5.9,5.9,0,0,1,8-.21A5.68,5.68,0,0,1,387,312.7a5.51,5.51,0,0,1-1.62,3.9Zm-4.7-4.68,1.64,1.63a3.87,3.87,0,0,0,1.08-2.79,4.19,4.19,0,0,0-1.21-3.05,4,4,0,0,0-3-1.23,4,4,0,0,0-3,1.23,4.28,4.28,0,0,0-1.18,3.1,4,4,0,0,0,1.22,3,4.09,4.09,0,0,0,2.89,1.2,4,4,0,0,0,2-.5l-2.66-2.58Z" transform="translate(-10.79 -6.04)"/><path class="cls-9" d="M393,313.4l3.5,4.82h-2.09l-3.23-4.63h-.31v4.63h-1.71V306.91h2a5,5,0,0,1,3.24.84,3.1,3.1,0,0,1,1.1,2.48,3.21,3.21,0,0,1-.69,2.06A3.06,3.06,0,0,1,393,313.4Zm-2.12-1.3h.54q2.42,0,2.42-1.85t-2.36-1.74h-.61Z" transform="translate(-10.79 -6.04)"/><path class="cls-9" d="M399.4,321.36l-1.52-.59a18.14,18.14,0,0,0,1.12-3.52,18.16,18.16,0,0,0-1.12-10.93l1.52-.59a19.91,19.91,0,0,1,0,15.63Z" transform="translate(-10.79 -6.04)"/><line class="cls-3" x1="343.5" y1="190" x2="343.5" y2="219.1"/><polygon class="cls-4" points="343.5 230.3 347.7 219.1 339.3 219.1 343.5 230.3"/><polygon class="cls-5" points="343.5 230.3 347.7 219.1 339.3 219.1 343.5 230.3"/><rect class="cls-6" x="28" y="181" width="162" height="90"/><rect class="cls-8" x="28" y="181" width="162" height="90"/><path class="cls-9" d="M54,216.63v12.94H51.72V216.63H48.26v-2.14h9.2v2.14Z" transform="translate(-10.79 -6.04)"/><path class="cls-9" d="M66.91,225.33H60.09a2.89,2.89,0,0,0,.76,1.87,2.32,2.32,0,0,0,1.73.68,2.25,2.25,0,0,0,1.36-.39,5.56,5.56,0,0,0,1.2-1.45l1.86,1a7.41,7.41,0,0,1-.91,1.25,4.81,4.81,0,0,1-1,.86,4.12,4.12,0,0,1-1.18.49,5.74,5.74,0,0,1-1.38.16,4.48,4.48,0,0,1-3.42-1.37,5.13,5.13,0,0,1-1.29-3.65A5.27,5.27,0,0,1,59,221.17a4.76,4.76,0,0,1,6.66,0,5.26,5.26,0,0,1,1.21,3.68Zm-2.26-1.8a2.11,2.11,0,0,0-2.22-1.76,2.28,2.28,0,0,0-.75.12,2.14,2.14,0,0,0-.64.35,2.24,2.24,0,0,0-.49.55,2.57,2.57,0,0,0-.31.73Z" transform="translate(-10.79 -6.04)"/><path class="cls-9" d="M76.71,220.47v2.92a5.35,5.35,0,0,0-1.35-1.26,2.63,2.63,0,0,0-1.38-.35,2.72,2.72,0,0,0-2.06.87,3,3,0,0,0-.82,2.18,3.12,3.12,0,0,0,.79,2.2,2.67,2.67,0,0,0,2,.86,2.8,2.8,0,0,0,1.4-.34,5.55,5.55,0,0,0,1.38-1.29v2.9a5.77,5.77,0,0,1-2.68.69,5.12,5.12,0,0,1-3.69-1.43,4.76,4.76,0,0,1-1.48-3.56,4.82,4.82,0,0,1,1.5-3.59,5.09,5.09,0,0,1,3.69-1.46A5.52,5.52,0,0,1,76.71,220.47Z" transform="translate(-10.79 -6.04)"/><path class="cls-9" d="M79.34,213.08h2.2v7.77a3.78,3.78,0,0,1,2.59-1.05,3.34,3.34,0,0,1,2.58,1,4.25,4.25,0,0,1,.82,2.9v5.83h-2.2v-5.62a2.68,2.68,0,0,0-.41-1.66,1.56,1.56,0,0,0-1.3-.51,1.79,1.79,0,0,0-1.62.71,4.89,4.89,0,0,0-.46,2.48v4.6h-2.2Z" transform="translate(-10.79 -6.04)"/><path class="cls-9" d="M90.31,220.06h2.21v.88a3.6,3.6,0,0,1,2.6-1.14,3.28,3.28,0,0,1,2.59,1,4.28,4.28,0,0,1,.8,2.9v5.83H96.3v-5.31a3.49,3.49,0,0,0-.39-1.94,1.58,1.58,0,0,0-1.39-.55,1.7,1.7,0,0,0-1.55.72,5,5,0,0,0-.45,2.49v4.59H90.31Z" transform="translate(-10.79 -6.04)"/><path class="cls-9" d="M100.94,216.1a1.43,1.43,0,0,1,1.43-1.42,1.38,1.38,0,0,1,1,.42,1.35,1.35,0,0,1,.42,1,1.38,1.38,0,0,1-.42,1,1.35,1.35,0,0,1-1,.42,1.38,1.38,0,0,1-1-.42A1.4,1.4,0,0,1,100.94,216.1Zm2.53,4v9.51h-2.2v-9.51Z" transform="translate(-10.79 -6.04)"/><path class="cls-9" d="M113.66,220.47v2.92a5.35,5.35,0,0,0-1.35-1.26,2.63,2.63,0,0,0-1.38-.35,2.72,2.72,0,0,0-2.06.87,3,3,0,0,0-.82,2.18,3.12,3.12,0,0,0,.79,2.2,2.67,2.67,0,0,0,2,.86,2.8,2.8,0,0,0,1.4-.34,5.55,5.55,0,0,0,1.38-1.29v2.9a5.77,5.77,0,0,1-2.68.69,5.12,5.12,0,0,1-3.69-1.43,4.76,4.76,0,0,1-1.48-3.56,4.82,4.82,0,0,1,1.5-3.59A5.09,5.09,0,0,1,111,219.8,5.52,5.52,0,0,1,113.66,220.47Z" transform="translate(-10.79 -6.04)"/><path class="cls-9" d="M122.8,220.06H125v9.51H122.8v-1a4.22,4.22,0,0,1-6.18-.16,5.3,5.3,0,0,1-1.28-3.63,5.14,5.14,0,0,1,1.28-3.56,4.12,4.12,0,0,1,3.2-1.43,4,4,0,0,1,3,1.37Zm-5.21,4.73a3.31,3.31,0,0,0,.73,2.23,2.4,2.4,0,0,0,1.89.87,2.52,2.52,0,0,0,2-.84,3.61,3.61,0,0,0,0-4.41,2.49,2.49,0,0,0-2-.85,2.43,2.43,0,0,0-1.89.86A3.17,3.17,0,0,0,117.58,224.79Z" transform="translate(-10.79 -6.04)"/><path class="cls-9" d="M130,213.08v16.49h-2.2V213.08Z" transform="translate(-10.79 -6.04)"/><path class="cls-9" d="M139.35,229.57v-16.1l11,11.5V214.49h2.28v16l-11-11.47v10.56Z" transform="translate(-10.79 -6.04)"/><path class="cls-9" d="M155.49,224.75a4.73,4.73,0,0,1,1.47-3.51,5.2,5.2,0,0,1,7.21,0,5.09,5.09,0,0,1,0,7.16,5,5,0,0,1-3.64,1.44,4.83,4.83,0,0,1-3.58-1.46A4.93,4.93,0,0,1,155.49,224.75Zm2.25,0a3.21,3.21,0,0,0,.76,2.26,3,3,0,0,0,4.12,0,3.57,3.57,0,0,0,0-4.43,2.92,2.92,0,0,0-4.1,0A3.05,3.05,0,0,0,157.73,224.79Z" transform="translate(-10.79 -6.04)"/><path class="cls-9" d="M170.32,222.11v7.46h-2.2v-7.46h-.94v-2.05h.94v-3.49h2.2v3.49H172v2.05Z" transform="translate(-10.79 -6.04)"/><path class="cls-9" d="M182.35,225.33h-6.82a2.89,2.89,0,0,0,.76,1.87,2.32,2.32,0,0,0,1.73.68,2.25,2.25,0,0,0,1.36-.39,5.56,5.56,0,0,0,1.2-1.45l1.86,1a7.41,7.41,0,0,1-.91,1.25,4.81,4.81,0,0,1-1,.86,4.12,4.12,0,0,1-1.18.49,5.74,5.74,0,0,1-1.38.16,4.48,4.48,0,0,1-3.42-1.37,5.13,5.13,0,0,1-1.29-3.65,5.27,5.27,0,0,1,1.25-3.65,4.76,4.76,0,0,1,6.66,0,5.26,5.26,0,0,1,1.21,3.68Zm-2.26-1.8a2.11,2.11,0,0,0-2.22-1.76,2.28,2.28,0,0,0-.75.12,2.14,2.14,0,0,0-.64.35,2.24,2.24,0,0,0-.49.55,2.57,2.57,0,0,0-.31.73Z" transform="translate(-10.79 -6.04)"/><path class="cls-9" d="M190.28,221.68l-1.82,1q-.43-.88-1.06-.88a.73.73,0,0,0-.52.2.67.67,0,0,0-.21.51q0,.55,1.27,1.08a7.57,7.57,0,0,1,2.35,1.39,2.37,2.37,0,0,1,.61,1.71,3,3,0,0,1-1,2.3,3.64,3.64,0,0,1-5.77-1.46l1.88-.87a4.07,4.07,0,0,0,.6.87,1.36,1.36,0,0,0,1,.37q1.11,0,1.11-1,0-.59-.86-1.09l-.66-.32-.67-.32a4.12,4.12,0,0,1-1.35-.94,2.31,2.31,0,0,1-.5-1.53,2.71,2.71,0,0,1,.85-2.05,3,3,0,0,1,2.11-.81A2.88,2.88,0,0,1,190.28,221.68Z" transform="translate(-10.79 -6.04)"/><path class="cls-9" d="M74.17,238.45l1.52.59a18.77,18.77,0,0,0-1.12,3.53,16.6,16.6,0,0,0-.24,1.72q-.08.91-.08,2t.08,2a16.53,16.53,0,0,0,.24,1.72,18.13,18.13,0,0,0,1.12,3.52l-1.52.59a19.92,19.92,0,0,1,0-15.63Z" transform="translate(-10.79 -6.04)"/><path class="cls-9" d="M78.07,250.94V239.63h2.37a8.64,8.64,0,0,1,2.7.34,5,5,0,0,1,1.93,1.12,5.85,5.85,0,0,1-.07,8.42,5.33,5.33,0,0,1-1.92,1.12,8.74,8.74,0,0,1-2.66.31Zm1.71-1.6h.77a6.42,6.42,0,0,0,1.91-.24,3.88,3.88,0,0,0,2.64-3.81,3.93,3.93,0,0,0-1.25-3,4.72,4.72,0,0,0-3.3-1h-.77Z" transform="translate(-10.79 -6.04)"/><path class="cls-9" d="M88.57,250.94l2.38-12.16,3.88,8.79,4-8.79L101,250.94H99.24l-1.09-6.83-3.35,7.35-3.25-7.35-1.22,6.83Z" transform="translate(-10.79 -6.04)"/><path class="cls-9" d="M106.5,241.24v9.71H104.8v-9.71h-2.6v-1.6h6.9v1.6Z" transform="translate(-10.79 -6.04)"/><path class="cls-9" d="M110.62,250.94V238.86l8.25,8.63v-7.86h1.71v12L112.33,243v7.92Z" transform="translate(-10.79 -6.04)"/><path class="cls-9" d="M124.48,248.82l1.46.57-2.09,4.18-1.11-.46Z" transform="translate(-10.79 -6.04)"/><path class="cls-9" d="M139.43,241.32l-1.38.82a2.38,2.38,0,0,0-.74-.88,1.73,1.73,0,0,0-.94-.23,1.75,1.75,0,0,0-1.18.4,1.25,1.25,0,0,0-.47,1q0,.83,1.23,1.33l1.13.46a4.82,4.82,0,0,1,2,1.36,3.06,3.06,0,0,1,.64,2,3.46,3.46,0,0,1-1,2.58,3.57,3.57,0,0,1-2.6,1,3.48,3.48,0,0,1-2.43-.87,4,4,0,0,1-1.18-2.45l1.73-.38a2.94,2.94,0,0,0,.41,1.38,1.95,1.95,0,0,0,2.86.2,1.85,1.85,0,0,0,.53-1.36,1.92,1.92,0,0,0-.09-.6,1.54,1.54,0,0,0-.29-.5,2.28,2.28,0,0,0-.5-.43,4.88,4.88,0,0,0-.73-.38l-1.09-.46q-2.32-1-2.32-2.87a2.72,2.72,0,0,1,1-2.13,3.52,3.52,0,0,1,2.42-.86A3.38,3.38,0,0,1,139.43,241.32Z" transform="translate(-10.79 -6.04)"/><path class="cls-9" d="M153.29,251.15h-2.15l-.89-.91a5.7,5.7,0,0,1-3.15.91,5.89,5.89,0,0,1-4-1.52,5.46,5.46,0,0,1-1.9-4.29,5.64,5.64,0,0,1,1.79-4.26,5.9,5.9,0,0,1,8-.21,5.68,5.68,0,0,1,2.05,4.55,5.51,5.51,0,0,1-1.62,3.9Zm-4.69-4.68,1.64,1.63a3.87,3.87,0,0,0,1.08-2.79,4.19,4.19,0,0,0-1.21-3.05,4,4,0,0,0-3-1.23,4,4,0,0,0-3,1.23,4.28,4.28,0,0,0-1.18,3.1,4,4,0,0,0,1.22,3,4.09,4.09,0,0,0,2.89,1.2,4,4,0,0,0,2-.5l-2.66-2.58Z" transform="translate(-10.79 -6.04)"/><path class="cls-9" d="M159,246.12l3.5,4.82h-2.09l-3.23-4.63h-.31v4.63h-1.71V239.63h2a5,5,0,0,1,3.24.84,3.1,3.1,0,0,1,1.1,2.48,3.21,3.21,0,0,1-.69,2.06A3.06,3.06,0,0,1,159,246.12Zm-2.12-1.3h.54q2.42,0,2.42-1.85t-2.36-1.74h-.61Z" transform="translate(-10.79 -6.04)"/><path class="cls-9" d="M165.4,254.08l-1.52-.59A18.13,18.13,0,0,0,165,250,18.17,18.17,0,0,0,163.88,239l1.52-.59a19.92,19.92,0,0,1,0,15.63Z" transform="translate(-10.79 -6.04)"/><rect class="cls-6" x="469" y="388" width="180" height="198"/><rect class="cls-8" x="469" y="388" width="180" height="198"/><path class="cls-9" d="M547.4,412h6.23v.5a10.3,10.3,0,0,1-.4,3,6.4,6.4,0,0,1-1.32,2.27,6.83,6.83,0,0,1-5.34,2.36,7.34,7.34,0,0,1-5.42-2.29,7.87,7.87,0,0,1,8.93-12.65,9.51,9.51,0,0,1,2.88,2.34l-1.62,1.55a5.5,5.5,0,0,0-4.52-2.47,5.4,5.4,0,0,0-4,1.65,5.51,5.51,0,0,0-1.62,4.06,5.66,5.66,0,0,0,5.47,5.66,4.55,4.55,0,0,0,3-1.13,4,4,0,0,0,1.49-2.73H547.4Z" transform="translate(-10.79 -6.04)"/><path class="cls-9" d="M558.27,410.3v5.46q0,2.36,1.87,2.36t1.87-2.36V410.3h2.2v5.51a6.14,6.14,0,0,1-.28,2,3.32,3.32,0,0,1-.95,1.34,4.62,4.62,0,0,1-5.65,0,3.36,3.36,0,0,1-1-1.34,5.43,5.43,0,0,1-.27-2V410.3Z" transform="translate(-10.79 -6.04)"/><path class="cls-9" d="M566.64,406.35a1.43,1.43,0,0,1,1.43-1.42,1.38,1.38,0,0,1,1,.42,1.35,1.35,0,0,1,.42,1,1.38,1.38,0,0,1-.42,1,1.35,1.35,0,0,1-1,.42,1.43,1.43,0,0,1-1.44-1.45Zm2.53,4v9.51H567V410.3Z" transform="translate(-10.79 -6.04)"/><path class="cls-9" d="M579,403.32h2.21v16.49H579v-1a4.1,4.1,0,0,1-2.94,1.27,4.19,4.19,0,0,1-3.24-1.43A5.3,5.3,0,0,1,571.5,415a5.13,5.13,0,0,1,1.28-3.55,4.11,4.11,0,0,1,6.18-.07ZM573.75,415a3.31,3.31,0,0,0,.73,2.23,2.4,2.4,0,0,0,1.89.87,2.52,2.52,0,0,0,2-.84,3.61,3.61,0,0,0,0-4.41,2.49,2.49,0,0,0-2-.85,2.43,2.43,0,0,0-1.89.86A3.17,3.17,0,0,0,573.75,415Z" transform="translate(-10.79 -6.04)"/><path class="cls-9" d="M592.61,415.58h-6.82a2.89,2.89,0,0,0,.76,1.87,2.32,2.32,0,0,0,1.73.68,2.25,2.25,0,0,0,1.36-.39,5.56,5.56,0,0,0,1.2-1.45l1.86,1a7.36,7.36,0,0,1-.91,1.25,4.84,4.84,0,0,1-1,.86,4.12,4.12,0,0,1-1.18.49,5.73,5.73,0,0,1-1.38.16,4.48,4.48,0,0,1-3.42-1.37,5.13,5.13,0,0,1-1.29-3.65,5.27,5.27,0,0,1,1.25-3.65,4.76,4.76,0,0,1,6.66,0,5.26,5.26,0,0,1,1.21,3.68Zm-2.26-1.8a2.1,2.1,0,0,0-2.22-1.76,2.29,2.29,0,0,0-.75.12,2.14,2.14,0,0,0-.64.35,2.23,2.23,0,0,0-.49.55,2.56,2.56,0,0,0-.31.73Z" transform="translate(-10.79 -6.04)"/><path class="cls-9" d="M600.54,411.92l-1.82,1q-.43-.88-1.06-.88a.73.73,0,0,0-.52.2.67.67,0,0,0-.21.51q0,.55,1.27,1.08a7.57,7.57,0,0,1,2.35,1.39,2.37,2.37,0,0,1,.61,1.71,3,3,0,0,1-1,2.3,3.64,3.64,0,0,1-5.77-1.46l1.88-.87a4.09,4.09,0,0,0,.6.87,1.36,1.36,0,0,0,1,.37q1.11,0,1.11-1,0-.59-.86-1.09l-.66-.32-.67-.32a4.13,4.13,0,0,1-1.35-.94,2.31,2.31,0,0,1-.5-1.53,2.71,2.71,0,0,1,.85-2.05,3,3,0,0,1,2.11-.81A2.88,2.88,0,0,1,600.54,411.92Z" transform="translate(-10.79 -6.04)"/><path class="cls-9" d="M548.27,428.69l1.52.59a18.77,18.77,0,0,0-1.12,3.53,16.34,16.34,0,0,0-.24,1.72q-.08.91-.08,2t.08,2a16.27,16.27,0,0,0,.24,1.72,18.13,18.13,0,0,0,1.12,3.52l-1.52.59a19.93,19.93,0,0,1,0-15.63Z" transform="translate(-10.79 -6.04)"/><path class="cls-9" d="M552.17,441.18V429.88h2.37a8.64,8.64,0,0,1,2.7.34,5.05,5.05,0,0,1,1.93,1.12,5.85,5.85,0,0,1-.07,8.42,5.33,5.33,0,0,1-1.92,1.12,8.74,8.74,0,0,1-2.66.31Zm1.71-1.6h.77a6.42,6.42,0,0,0,1.91-.24,3.88,3.88,0,0,0,2.64-3.81,3.93,3.93,0,0,0-1.25-3,4.72,4.72,0,0,0-3.3-1h-.77Z" transform="translate(-10.79 -6.04)"/><path class="cls-9" d="M562.67,441.18,565,429l3.88,8.79,4-8.79,2.14,12.16h-1.75l-1.09-6.83-3.35,7.35-3.25-7.35-1.22,6.83Z" transform="translate(-10.79 -6.04)"/><path class="cls-9" d="M583.3,435.3H588v.37a7.71,7.71,0,0,1-.3,2.26,4.8,4.8,0,0,1-1,1.7,5.12,5.12,0,0,1-4,1.77,5.51,5.51,0,0,1-4.07-1.71,5.89,5.89,0,0,1,4.22-10,5.74,5.74,0,0,1,2.48.54,7.14,7.14,0,0,1,2.16,1.76l-1.22,1.16a4.13,4.13,0,0,0-3.39-1.85,4.05,4.05,0,0,0-3,1.24,4.13,4.13,0,0,0-1.22,3,4.25,4.25,0,0,0,4.1,4.25,3.4,3.4,0,0,0,2.26-.85,3,3,0,0,0,1.12-2.05H583.3Z" transform="translate(-10.79 -6.04)"/><path class="cls-9" d="M591.3,444.32l-1.52-.59a18.14,18.14,0,0,0,1.12-3.52,18.16,18.16,0,0,0-1.12-10.93l1.52-.59a19.91,19.91,0,0,1,0,15.63Z" transform="translate(-10.79 -6.04)"/><line class="cls-3" x1="190" y1="226.5" x2="219.1" y2="226.5"/><polygon class="cls-4" points="230.3 226.5 219.1 222.3 219.1 230.7 230.3 226.5"/><polygon class="cls-5" points="230.3 226.5 219.1 222.3 219.1 230.7 230.3 226.5"/><rect class="cls-7" x="262" y="388" width="162" height="90"/><rect class="cls-8" x="262" y="388" width="162" height="90"/><path class="cls-9" d="M323.44,420.42l-1.85,1.09a3.18,3.18,0,0,0-1-1.17,2.62,2.62,0,0,0-2.83.22,1.66,1.66,0,0,0-.62,1.33q0,1.1,1.64,1.78l1.5.62A6.42,6.42,0,0,1,323,426.1a4.08,4.08,0,0,1,.85,2.62,4.61,4.61,0,0,1-1.39,3.44,4.76,4.76,0,0,1-3.47,1.37,4.64,4.64,0,0,1-3.24-1.16,5.35,5.35,0,0,1-1.57-3.27l2.3-.51a3.92,3.92,0,0,0,.55,1.84,2.6,2.6,0,0,0,3.82.26,2.47,2.47,0,0,0,.7-1.81,2.53,2.53,0,0,0-.12-.81,2.05,2.05,0,0,0-.38-.67,3,3,0,0,0-.67-.58,6.51,6.51,0,0,0-1-.51l-1.46-.61q-3.1-1.31-3.1-3.83a3.63,3.63,0,0,1,1.3-2.84,4.69,4.69,0,0,1,3.23-1.15A4.51,4.51,0,0,1,323.44,420.42Z" transform="translate(-10.79 -6.04)"/><path class="cls-9" d="M325.7,428.43a4.73,4.73,0,0,1,1.47-3.51,5.2,5.2,0,0,1,7.21,0,5.09,5.09,0,0,1,0,7.16,5,5,0,0,1-3.64,1.44,4.83,4.83,0,0,1-3.58-1.46A4.93,4.93,0,0,1,325.7,428.43Zm2.25,0a3.21,3.21,0,0,0,.76,2.26,3,3,0,0,0,4.12,0,3.57,3.57,0,0,0,0-4.43,2.92,2.92,0,0,0-4.1,0A3.06,3.06,0,0,0,327.95,428.47Z" transform="translate(-10.79 -6.04)"/><path class="cls-9" d="M340.45,425.79v7.46h-2.21v-7.46h-.78v-2.05h.78v-3.67a4,4,0,0,1,.63-2.54,3.06,3.06,0,0,1,2.5-1,4.3,4.3,0,0,1,1.47.34v2.25l-.22-.12a2.77,2.77,0,0,0-1.17-.36.8.8,0,0,0-.79.42,4,4,0,0,0-.21,1.58v3.13h2.39v2.05Z" transform="translate(-10.79 -6.04)"/><path class="cls-9" d="M347.1,425.79v7.46h-2.2v-7.46H344v-2.05h.94v-3.49h2.2v3.49h1.71v2.05Z" transform="translate(-10.79 -6.04)"/><path class="cls-9" d="M351.49,423.74l2.49,5.43,2.69-6.3,2.71,6.3,2.46-5.43h2.46l-5,10.22-2.65-6.12L354,434l-5-10.22Z" transform="translate(-10.79 -6.04)"/><path class="cls-9" d="M372.47,423.74h2.21v9.51h-2.21v-1a4.22,4.22,0,0,1-6.18-.16,5.3,5.3,0,0,1-1.28-3.63,5.14,5.14,0,0,1,1.28-3.56,4.12,4.12,0,0,1,3.2-1.43,4,4,0,0,1,3,1.37Zm-5.21,4.73a3.31,3.31,0,0,0,.73,2.23,2.4,2.4,0,0,0,1.89.87,2.52,2.52,0,0,0,2-.84,3.61,3.61,0,0,0,0-4.41,2.49,2.49,0,0,0-2-.85,2.43,2.43,0,0,0-1.89.86A3.17,3.17,0,0,0,367.26,428.47Z" transform="translate(-10.79 -6.04)"/><path class="cls-9" d="M377.45,423.74h2.2v.85a4.2,4.2,0,0,1,1.07-.87,2.46,2.46,0,0,1,1.13-.24,3.55,3.55,0,0,1,1.82.57l-1,2a2.1,2.1,0,0,0-1.22-.45q-1.8,0-1.8,2.71v4.93h-2.2Z" transform="translate(-10.79 -6.04)"/><path class="cls-9" d="M393.47,429h-6.82a2.89,2.89,0,0,0,.76,1.87,2.32,2.32,0,0,0,1.73.68,2.25,2.25,0,0,0,1.36-.39,5.56,5.56,0,0,0,1.2-1.45l1.86,1a7.36,7.36,0,0,1-.91,1.25,4.84,4.84,0,0,1-1,.86,4.12,4.12,0,0,1-1.18.49,5.73,5.73,0,0,1-1.38.16,4.48,4.48,0,0,1-3.42-1.37,5.13,5.13,0,0,1-1.29-3.65,5.27,5.27,0,0,1,1.25-3.65,4.76,4.76,0,0,1,6.66,0,5.26,5.26,0,0,1,1.21,3.68Zm-2.26-1.8a2.1,2.1,0,0,0-2.22-1.76,2.29,2.29,0,0,0-.75.12,2.14,2.14,0,0,0-.64.35,2.23,2.23,0,0,0-.49.55,2.56,2.56,0,0,0-.31.73Z" transform="translate(-10.79 -6.04)"/><path class="cls-9" d="M296.43,459.81V444.74h3.16a11.52,11.52,0,0,1,3.59.45,6.73,6.73,0,0,1,2.57,1.49,7.8,7.8,0,0,1-.1,11.22,7.08,7.08,0,0,1-2.56,1.49,11.64,11.64,0,0,1-3.54.42Zm2.28-2.14h1a8.56,8.56,0,0,0,2.55-.32,5.18,5.18,0,0,0,3.52-5.08,5.24,5.24,0,0,0-1.66-4,6.29,6.29,0,0,0-4.4-1.38h-1Z" transform="translate(-10.79 -6.04)"/><path class="cls-9" d="M319.19,455.58h-6.82a2.89,2.89,0,0,0,.76,1.87,2.32,2.32,0,0,0,1.73.68,2.25,2.25,0,0,0,1.36-.39,5.55,5.55,0,0,0,1.2-1.45l1.86,1a7.37,7.37,0,0,1-.91,1.25,4.81,4.81,0,0,1-1,.86,4.09,4.09,0,0,1-1.18.49,5.74,5.74,0,0,1-1.38.16,4.47,4.47,0,0,1-3.42-1.37,5.13,5.13,0,0,1-1.29-3.65,5.27,5.27,0,0,1,1.25-3.65,4.76,4.76,0,0,1,6.66,0,5.26,5.26,0,0,1,1.21,3.68Zm-2.26-1.8a2.11,2.11,0,0,0-2.22-1.76,2.28,2.28,0,0,0-.75.12,2.18,2.18,0,0,0-.64.35,2.24,2.24,0,0,0-.49.55,2.57,2.57,0,0,0-.31.73Z" transform="translate(-10.79 -6.04)"/><path class="cls-9" d="M322.44,450.3l2.46,5.34,2.45-5.34h2.47l-4.94,10.17L320,450.3Z" transform="translate(-10.79 -6.04)"/><path class="cls-9" d="M339.63,455.58h-6.82a2.89,2.89,0,0,0,.76,1.87,2.32,2.32,0,0,0,1.73.68,2.25,2.25,0,0,0,1.36-.39,5.55,5.55,0,0,0,1.2-1.45l1.86,1a7.32,7.32,0,0,1-.91,1.25,4.84,4.84,0,0,1-1,.86,4.09,4.09,0,0,1-1.18.49,5.73,5.73,0,0,1-1.38.16,4.48,4.48,0,0,1-3.42-1.37,5.13,5.13,0,0,1-1.29-3.65,5.27,5.27,0,0,1,1.25-3.65,4.76,4.76,0,0,1,6.66,0,5.26,5.26,0,0,1,1.21,3.68Zm-2.26-1.8a2.1,2.1,0,0,0-2.22-1.76,2.29,2.29,0,0,0-.75.12,2.19,2.19,0,0,0-.64.35,2.23,2.23,0,0,0-.49.55,2.56,2.56,0,0,0-.31.73Z" transform="translate(-10.79 -6.04)"/><path class="cls-9" d="M344.23,443.32v16.49H342V443.32Z" transform="translate(-10.79 -6.04)"/><path class="cls-9" d="M346.56,455a4.73,4.73,0,0,1,1.47-3.51,5.2,5.2,0,0,1,7.21,0,5.09,5.09,0,0,1,0,7.16,5,5,0,0,1-3.64,1.44,4.83,4.83,0,0,1-3.58-1.46A4.92,4.92,0,0,1,346.56,455Zm2.25,0a3.21,3.21,0,0,0,.76,2.26,3,3,0,0,0,4.12,0,3.57,3.57,0,0,0,0-4.43,2.92,2.92,0,0,0-4.1,0A3.06,3.06,0,0,0,348.81,455Z" transform="translate(-10.79 -6.04)"/><path class="cls-9" d="M361.23,465H359V450.3h2.2v1a4.07,4.07,0,0,1,2.95-1.3,4.11,4.11,0,0,1,3.23,1.45,5.22,5.22,0,0,1,1.29,3.62,5.14,5.14,0,0,1-1.28,3.56,4.17,4.17,0,0,1-6.19.08Zm5.22-9.87a3.28,3.28,0,0,0-.74-2.23,2.4,2.4,0,0,0-1.89-.87,2.51,2.51,0,0,0-2,.84,3.19,3.19,0,0,0-.75,2.21,3.25,3.25,0,0,0,.75,2.21,2.47,2.47,0,0,0,2,.85,2.38,2.38,0,0,0,1.88-.86A3.12,3.12,0,0,0,366.45,455.12Z" transform="translate(-10.79 -6.04)"/><path class="cls-9" d="M371,450.3h2.2v.88a4.59,4.59,0,0,1,1.08-.9,2.64,2.64,0,0,1,1.2-.24,2.92,2.92,0,0,1,2.55,1.41,3.3,3.3,0,0,1,2.8-1.41q3.21,0,3.21,3.9v5.88h-2.21v-5.28a4.07,4.07,0,0,0-.33-1.93,1.2,1.2,0,0,0-1.12-.58,1.43,1.43,0,0,0-1.32.68,4.41,4.41,0,0,0-.42,2.2v4.91h-2.21v-5.25q0-2.54-1.46-2.54a1.47,1.47,0,0,0-1.35.69,4.33,4.33,0,0,0-.42,2.19v4.91H371Z" transform="translate(-10.79 -6.04)"/><path class="cls-9" d="M395.51,455.58h-6.82a2.89,2.89,0,0,0,.76,1.87,2.32,2.32,0,0,0,1.73.68,2.25,2.25,0,0,0,1.36-.39,5.55,5.55,0,0,0,1.2-1.45l1.86,1a7.32,7.32,0,0,1-.91,1.25,4.84,4.84,0,0,1-1,.86,4.09,4.09,0,0,1-1.18.49,5.73,5.73,0,0,1-1.38.16,4.48,4.48,0,0,1-3.42-1.37,5.13,5.13,0,0,1-1.29-3.65,5.27,5.27,0,0,1,1.25-3.65,4.76,4.76,0,0,1,6.66,0,5.26,5.26,0,0,1,1.21,3.68Zm-2.26-1.8A2.1,2.1,0,0,0,391,452a2.29,2.29,0,0,0-.75.12,2.19,2.19,0,0,0-.64.35,2.23,2.23,0,0,0-.49.55,2.56,2.56,0,0,0-.31.73Z" transform="translate(-10.79 -6.04)"/><path class="cls-9" d="M397.91,450.3h2.21v.88a3.6,3.6,0,0,1,2.6-1.14,3.28,3.28,0,0,1,2.59,1,4.28,4.28,0,0,1,.8,2.9v5.83H403.9V454.5a3.48,3.48,0,0,0-.39-1.94,1.58,1.58,0,0,0-1.39-.55,1.7,1.7,0,0,0-1.55.72,5,5,0,0,0-.45,2.49v4.59h-2.21Z" transform="translate(-10.79 -6.04)"/><path class="cls-9" d="M411.14,452.35v7.46h-2.2v-7.46H408V450.3h.94v-3.49h2.2v3.49h1.71v2.05Z" transform="translate(-10.79 -6.04)"/><line class="cls-3" x1="424" y1="453.25" x2="453.57" y2="460.64"/><polygon class="cls-4" points="464.44 463.36 454.59 456.57 452.56 464.72 464.44 463.36"/><polygon class="cls-5" points="464.44 463.36 454.59 456.57 452.56 464.72 464.44 463.36"/><rect class="cls-6" x="253" y="766" width="180" height="90"/><rect class="cls-8" x="253" y="766" width="180" height="90"/><path class="cls-9" d="M304.51,818.41v6.12h-2.28V809.45h2.58a11.63,11.63,0,0,1,2.86.26,3.84,3.84,0,0,1,1.72,1,4.29,4.29,0,0,1,1.3,3.2,4.13,4.13,0,0,1-1.39,3.28,5.49,5.49,0,0,1-3.74,1.21Zm0-2.11h.85q3.13,0,3.13-2.41t-3.23-2.33h-.75Z" transform="translate(-10.79 -6.04)"/><path class="cls-9" d="M314.81,815v5.46q0,2.36,1.87,2.36t1.87-2.36V815h2.2v5.51a6.13,6.13,0,0,1-.28,2,3.32,3.32,0,0,1-.95,1.34,4.62,4.62,0,0,1-5.65,0,3.38,3.38,0,0,1-1-1.34,5.45,5.45,0,0,1-.27-2V815Z" transform="translate(-10.79 -6.04)"/><path class="cls-9" d="M325.71,808v8.09a4.05,4.05,0,0,1,3-1.37,4.11,4.11,0,0,1,3.2,1.44,5.13,5.13,0,0,1,1.28,3.55,5.23,5.23,0,0,1-1.29,3.63,4.16,4.16,0,0,1-3.23,1.43,4.11,4.11,0,0,1-2.95-1.27v1h-2.2V808Zm5.22,11.81a3.28,3.28,0,0,0-.74-2.23,2.38,2.38,0,0,0-1.88-.88,2.53,2.53,0,0,0-2,.85,3.16,3.16,0,0,0-.75,2.19,3.2,3.2,0,0,0,.74,2.22,2.47,2.47,0,0,0,2,.85,2.42,2.42,0,0,0,1.89-.85A3.12,3.12,0,0,0,330.93,819.84Z" transform="translate(-10.79 -6.04)"/><path class="cls-9" d="M337.7,808v16.49h-2.2V808Z" transform="translate(-10.79 -6.04)"/><path class="cls-9" d="M340.15,811.07a1.36,1.36,0,0,1,.42-1,1.43,1.43,0,0,1,2,0,1.35,1.35,0,0,1,.42,1,1.38,1.38,0,0,1-.42,1,1.35,1.35,0,0,1-1,.42,1.43,1.43,0,0,1-1.44-1.45Zm2.53,4v9.51h-2.2V815Z" transform="translate(-10.79 -6.04)"/><path class="cls-9" d="M352.87,815.43v2.92a5.33,5.33,0,0,0-1.35-1.26,2.63,2.63,0,0,0-1.38-.35,2.71,2.71,0,0,0-2.06.87,3,3,0,0,0-.82,2.18,3.12,3.12,0,0,0,.79,2.2,2.67,2.67,0,0,0,2,.86,2.79,2.79,0,0,0,1.4-.34,5.55,5.55,0,0,0,1.38-1.29v2.9a5.77,5.77,0,0,1-2.68.69,5.12,5.12,0,0,1-3.69-1.43,4.76,4.76,0,0,1-1.48-3.56,4.82,4.82,0,0,1,1.5-3.59,5.09,5.09,0,0,1,3.69-1.46A5.52,5.52,0,0,1,352.87,815.43Z" transform="translate(-10.79 -6.04)"/><path class="cls-9" d="M362,815h2.21v9.51H362v-1a4.22,4.22,0,0,1-6.18-.16,5.31,5.31,0,0,1-1.28-3.63,5.14,5.14,0,0,1,1.28-3.56,4.12,4.12,0,0,1,3.2-1.43,4,4,0,0,1,3,1.37Zm-5.21,4.73a3.31,3.31,0,0,0,.73,2.23,2.4,2.4,0,0,0,1.89.87,2.52,2.52,0,0,0,2-.84,3.61,3.61,0,0,0,0-4.41,2.49,2.49,0,0,0-2-.85,2.43,2.43,0,0,0-1.89.86A3.17,3.17,0,0,0,356.79,819.75Z" transform="translate(-10.79 -6.04)"/><path class="cls-9" d="M369.25,817.07v7.46h-2.2v-7.46h-.94V815h.94v-3.49h2.2V815H371v2.05Z" transform="translate(-10.79 -6.04)"/><path class="cls-9" d="M372.12,811.07a1.36,1.36,0,0,1,.42-1,1.43,1.43,0,0,1,2,0,1.35,1.35,0,0,1,.42,1,1.38,1.38,0,0,1-.42,1,1.35,1.35,0,0,1-1,.42,1.43,1.43,0,0,1-1.44-1.45Zm2.53,4v9.51h-2.2V815Z" transform="translate(-10.79 -6.04)"/><path class="cls-9" d="M377,819.71a4.72,4.72,0,0,1,1.47-3.51,5.2,5.2,0,0,1,7.21,0,5.09,5.09,0,0,1,0,7.16,5,5,0,0,1-3.64,1.44,4.83,4.83,0,0,1-3.58-1.46A4.93,4.93,0,0,1,377,819.71Zm2.25,0A3.21,3.21,0,0,0,380,822a3,3,0,0,0,4.12,0,3.57,3.57,0,0,0,0-4.43,2.92,2.92,0,0,0-4.1,0A3.06,3.06,0,0,0,379.23,819.75Z" transform="translate(-10.79 -6.04)"/><path class="cls-9" d="M389.46,815h2.21v.88a3.6,3.6,0,0,1,2.6-1.14,3.28,3.28,0,0,1,2.59,1,4.27,4.27,0,0,1,.8,2.9v5.83h-2.21v-5.31a3.48,3.48,0,0,0-.39-1.94,1.57,1.57,0,0,0-1.39-.55,1.69,1.69,0,0,0-1.55.72,5,5,0,0,0-.45,2.49v4.59h-2.21Z" transform="translate(-10.79 -6.04)"/><path class="cls-9" d="M406,816.64l-1.82,1q-.43-.88-1.06-.88a.73.73,0,0,0-.52.2.67.67,0,0,0-.21.51q0,.55,1.27,1.08a7.55,7.55,0,0,1,2.35,1.39,2.37,2.37,0,0,1,.61,1.71,3,3,0,0,1-1,2.3,3.64,3.64,0,0,1-5.77-1.46l1.88-.87a4.12,4.12,0,0,0,.6.87,1.36,1.36,0,0,0,1,.37q1.11,0,1.11-1,0-.59-.86-1.09l-.66-.32-.67-.32a4.13,4.13,0,0,1-1.35-.94,2.31,2.31,0,0,1-.5-1.53,2.71,2.71,0,0,1,.85-2.05,3,3,0,0,1,2.11-.81A2.88,2.88,0,0,1,406,816.64Z" transform="translate(-10.79 -6.04)"/><line class="cls-3" x1="343.5" y1="712" x2="343.5" y2="750.1"/><polygon class="cls-4" points="343.5 761.3 347.7 750.1 339.3 750.1 343.5 761.3"/><polygon class="cls-5" points="343.5 761.3 347.7 750.1 339.3 750.1 343.5 761.3"/><path class="cls-4" d="M495.83,124.89V108.3h3.48a12.67,12.67,0,0,1,4,.49,7.4,7.4,0,0,1,2.83,1.64,8.58,8.58,0,0,1-.11,12.34,7.8,7.8,0,0,1-2.81,1.64,12.82,12.82,0,0,1-3.9.46Zm2.5-2.35h1.13a9.41,9.41,0,0,0,2.8-.35,5.69,5.69,0,0,0,3.87-5.59,5.76,5.76,0,0,0-1.83-4.43,6.92,6.92,0,0,0-4.84-1.51h-1.13Z" transform="translate(-10.79 -6.04)"/><path class="cls-4" d="M519.06,114.43h2.43v10.46h-2.43v-1.1a4.64,4.64,0,0,1-6.8-.17,5.83,5.83,0,0,1-1.41-4,5.65,5.65,0,0,1,1.41-3.92,4.54,4.54,0,0,1,3.52-1.57,4.45,4.45,0,0,1,3.28,1.5Zm-5.74,5.2a3.64,3.64,0,0,0,.81,2.45,2.64,2.64,0,0,0,2.08,1,2.77,2.77,0,0,0,2.17-.92,4,4,0,0,0,0-4.86,2.74,2.74,0,0,0-2.15-.93,2.67,2.67,0,0,0-2.08.95A3.48,3.48,0,0,0,513.32,119.63Z" transform="translate(-10.79 -6.04)"/><path class="cls-4" d="M527,116.68v8.21h-2.42v-8.21h-1v-2.26h1v-3.83H527v3.83h1.88v2.26Z" transform="translate(-10.79 -6.04)"/><path class="cls-4" d="M538.44,114.43h2.43v10.46h-2.43v-1.1a4.64,4.64,0,0,1-6.8-.17,5.83,5.83,0,0,1-1.41-4,5.65,5.65,0,0,1,1.41-3.92,4.54,4.54,0,0,1,3.52-1.57,4.45,4.45,0,0,1,3.28,1.5Zm-5.74,5.2a3.64,3.64,0,0,0,.81,2.45,2.64,2.64,0,0,0,2.08,1,2.77,2.77,0,0,0,2.17-.92,4,4,0,0,0,0-4.86,2.74,2.74,0,0,0-2.15-.93,2.67,2.67,0,0,0-2.08.95A3.48,3.48,0,0,0,532.7,119.63Z" transform="translate(-10.79 -6.04)"/><path class="cls-4" d="M550.59,124.89l3.49-17.83,5.69,12.89,5.9-12.89,3.14,17.83h-2.57l-1.6-10-4.91,10.77L555,114.87l-1.78,10Z" transform="translate(-10.79 -6.04)"/><path class="cls-4" d="M579.57,114.43H582v10.46h-2.43v-1.1a4.64,4.64,0,0,1-6.8-.17,5.83,5.83,0,0,1-1.41-4,5.65,5.65,0,0,1,1.41-3.92,4.54,4.54,0,0,1,3.52-1.57,4.45,4.45,0,0,1,3.28,1.5Zm-5.74,5.2a3.64,3.64,0,0,0,.81,2.45,2.64,2.64,0,0,0,2.08,1,2.77,2.77,0,0,0,2.17-.92,4,4,0,0,0,0-4.86,2.74,2.74,0,0,0-2.15-.93,2.67,2.67,0,0,0-2.08.95A3.48,3.48,0,0,0,573.83,119.63Z" transform="translate(-10.79 -6.04)"/><path class="cls-4" d="M585,114.43h2.43v1a4,4,0,0,1,2.86-1.26,3.61,3.61,0,0,1,2.85,1.15,4.71,4.71,0,0,1,.88,3.19v6.41h-2.43V119a3.83,3.83,0,0,0-.43-2.14,1.73,1.73,0,0,0-1.53-.6,1.87,1.87,0,0,0-1.71.79,5.47,5.47,0,0,0-.49,2.74v5H585Z" transform="translate(-10.79 -6.04)"/><path class="cls-4" d="M604.82,114.43h2.43v10.46h-2.43v-1.1a4.64,4.64,0,0,1-6.8-.17,5.83,5.83,0,0,1-1.41-4,5.65,5.65,0,0,1,1.41-3.92,4.54,4.54,0,0,1,3.52-1.57,4.45,4.45,0,0,1,3.28,1.5Zm-5.74,5.2a3.64,3.64,0,0,0,.81,2.45,2.64,2.64,0,0,0,2.08,1,2.77,2.77,0,0,0,2.17-.92,4,4,0,0,0,0-4.86,2.74,2.74,0,0,0-2.15-.93,2.67,2.67,0,0,0-2.08.95A3.48,3.48,0,0,0,599.09,119.63Z" transform="translate(-10.79 -6.04)"/><path class="cls-4" d="M620.42,124.64q0,.74,0,1.31a8.78,8.78,0,0,1-.13,1,4.42,4.42,0,0,1-1,2,4.89,4.89,0,0,1-3.9,1.63,5.2,5.2,0,0,1-3.45-1.13,4.61,4.61,0,0,1-1.61-3.21h2.43a2.75,2.75,0,0,0,.46,1.19,2.6,2.6,0,0,0,2.19,1q2.65,0,2.65-3.25v-1.46a4.51,4.51,0,0,1-3.32,1.47,4.46,4.46,0,0,1-3.5-1.55,5.73,5.73,0,0,1-1.37-3.92,6,6,0,0,1,1.28-3.89,4.44,4.44,0,0,1,3.63-1.7,4.22,4.22,0,0,1,3.29,1.47v-1.18h2.42Zm-2.32-5a3.52,3.52,0,0,0-.82-2.44,2.7,2.7,0,0,0-2.12-.93,2.6,2.6,0,0,0-2.17,1,4.2,4.2,0,0,0,0,4.71,2.6,2.6,0,0,0,2.17,1,2.65,2.65,0,0,0,2.19-1A3.6,3.6,0,0,0,618.1,119.68Z" transform="translate(-10.79 -6.04)"/><path class="cls-4" d="M633,120.23h-7.5a3.18,3.18,0,0,0,.84,2.05,2.56,2.56,0,0,0,1.9.75,2.47,2.47,0,0,0,1.49-.43,6.11,6.11,0,0,0,1.32-1.59l2,1.14a8.14,8.14,0,0,1-1,1.38,5.25,5.25,0,0,1-1.13.95,4.49,4.49,0,0,1-1.3.54,6.35,6.35,0,0,1-1.51.17,4.92,4.92,0,0,1-3.76-1.5,5.64,5.64,0,0,1-1.42-4,5.8,5.8,0,0,1,1.38-4,5.24,5.24,0,0,1,7.33,0,5.79,5.79,0,0,1,1.33,4Zm-2.48-2a2.32,2.32,0,0,0-2.44-1.93,2.49,2.49,0,0,0-.83.13,2.33,2.33,0,0,0-.7.39,2.43,2.43,0,0,0-.54.61,2.83,2.83,0,0,0-.34.81Z" transform="translate(-10.79 -6.04)"/><path class="cls-4" d="M635.64,114.43h2.42v1a5.05,5.05,0,0,1,1.19-1,2.9,2.9,0,0,1,1.32-.27,3.21,3.21,0,0,1,2.8,1.55,3.63,3.63,0,0,1,3.08-1.55q3.53,0,3.53,4.29v6.47h-2.43v-5.81a4.49,4.49,0,0,0-.37-2.13,1.32,1.32,0,0,0-1.24-.63,1.58,1.58,0,0,0-1.46.75,4.85,4.85,0,0,0-.46,2.42v5.4h-2.43v-5.78q0-2.79-1.61-2.79a1.61,1.61,0,0,0-1.49.76,4.75,4.75,0,0,0-.47,2.41v5.4h-2.42Z" transform="translate(-10.79 -6.04)"/><path class="cls-4" d="M662.57,120.23h-7.5a3.18,3.18,0,0,0,.84,2.05,2.56,2.56,0,0,0,1.9.75,2.47,2.47,0,0,0,1.49-.43,6.11,6.11,0,0,0,1.32-1.59l2,1.14a8.14,8.14,0,0,1-1,1.38,5.25,5.25,0,0,1-1.13.95,4.49,4.49,0,0,1-1.3.54,6.35,6.35,0,0,1-1.51.17,4.92,4.92,0,0,1-3.76-1.5,5.64,5.64,0,0,1-1.42-4,5.8,5.8,0,0,1,1.38-4,5.24,5.24,0,0,1,7.33,0,5.79,5.79,0,0,1,1.33,4Zm-2.48-2a2.32,2.32,0,0,0-2.44-1.93,2.49,2.49,0,0,0-.83.13,2.33,2.33,0,0,0-.7.39,2.43,2.43,0,0,0-.54.61,2.83,2.83,0,0,0-.34.81Z" transform="translate(-10.79 -6.04)"/><path class="cls-4" d="M665.22,114.43h2.43v1a4,4,0,0,1,2.86-1.26,3.61,3.61,0,0,1,2.85,1.15,4.71,4.71,0,0,1,.88,3.19v6.41H671.8V119a3.83,3.83,0,0,0-.43-2.14,1.73,1.73,0,0,0-1.53-.6,1.87,1.87,0,0,0-1.71.79,5.47,5.47,0,0,0-.49,2.74v5h-2.43Z" transform="translate(-10.79 -6.04)"/><path class="cls-4" d="M679.77,116.68v8.21h-2.42v-8.21h-1v-2.26h1v-3.83h2.42v3.83h1.88v2.26Z" transform="translate(-10.79 -6.04)"/><path class="cls-4" d="M534.29,154.11V137.52h3.48a12.67,12.67,0,0,1,4,.49,7.4,7.4,0,0,1,2.83,1.64,8.58,8.58,0,0,1-.11,12.34,7.8,7.8,0,0,1-2.81,1.64,12.82,12.82,0,0,1-3.9.46Zm2.5-2.35h1.13a9.41,9.41,0,0,0,2.8-.35,5.69,5.69,0,0,0,3.87-5.59,5.76,5.76,0,0,0-1.83-4.43,6.92,6.92,0,0,0-4.84-1.51h-1.13Z" transform="translate(-10.79 -6.04)"/><path class="cls-4" d="M549.31,148.8a5.2,5.2,0,0,1,1.62-3.86,5.72,5.72,0,0,1,7.93,0,5.6,5.6,0,0,1,0,7.87,5.54,5.54,0,0,1-4,1.58,5.32,5.32,0,0,1-3.94-1.61A5.42,5.42,0,0,1,549.31,148.8Zm2.47,0a3.53,3.53,0,0,0,.84,2.48,3.26,3.26,0,0,0,4.53,0,3.93,3.93,0,0,0,0-4.88,3.22,3.22,0,0,0-4.51,0A3.36,3.36,0,0,0,551.78,148.85Z" transform="translate(-10.79 -6.04)"/><path class="cls-4" d="M571.17,144.1v3.21a5.91,5.91,0,0,0-1.48-1.39,2.89,2.89,0,0,0-1.51-.39,3,3,0,0,0-2.27,1,3.35,3.35,0,0,0-.9,2.4,3.43,3.43,0,0,0,.87,2.42,2.94,2.94,0,0,0,2.25.95,3.07,3.07,0,0,0,1.54-.38,6.08,6.08,0,0,0,1.51-1.42v3.19a6.34,6.34,0,0,1-2.94.76,5.63,5.63,0,0,1-4.06-1.57,5.23,5.23,0,0,1-1.63-3.92,5.31,5.31,0,0,1,1.65-4,5.6,5.6,0,0,1,4.06-1.61A6.07,6.07,0,0,1,571.17,144.1Z" transform="translate(-10.79 -6.04)"/><path class="cls-4" d="M575.92,143.65v6q0,2.6,2.05,2.6t2.05-2.6v-6h2.42v6.06a6.73,6.73,0,0,1-.31,2.17,3.64,3.64,0,0,1-1,1.47,5.08,5.08,0,0,1-6.22,0,3.71,3.71,0,0,1-1.06-1.47,6,6,0,0,1-.3-2.17v-6.06Z" transform="translate(-10.79 -6.04)"/><path class="cls-4" d="M585.5,143.65h2.42v1a5.05,5.05,0,0,1,1.19-1,2.9,2.9,0,0,1,1.32-.27,3.21,3.21,0,0,1,2.8,1.55,3.63,3.63,0,0,1,3.08-1.55q3.53,0,3.53,4.29v6.47h-2.43V148.3a4.49,4.49,0,0,0-.37-2.13,1.32,1.32,0,0,0-1.24-.63,1.58,1.58,0,0,0-1.46.75,4.85,4.85,0,0,0-.46,2.42v5.4h-2.43v-5.78q0-2.79-1.61-2.79a1.61,1.61,0,0,0-1.49.76,4.75,4.75,0,0,0-.47,2.41v5.4H585.5Z" transform="translate(-10.79 -6.04)"/><path class="cls-4" d="M612.43,149.45h-7.5a3.18,3.18,0,0,0,.84,2.05,2.56,2.56,0,0,0,1.9.75,2.47,2.47,0,0,0,1.49-.43,6.11,6.11,0,0,0,1.32-1.59l2,1.14a8.14,8.14,0,0,1-1,1.38,5.25,5.25,0,0,1-1.13.95,4.49,4.49,0,0,1-1.3.54,6.35,6.35,0,0,1-1.51.17,4.92,4.92,0,0,1-3.76-1.5,5.64,5.64,0,0,1-1.42-4,5.8,5.8,0,0,1,1.38-4,5.24,5.24,0,0,1,7.33,0,5.79,5.79,0,0,1,1.33,4Zm-2.48-2a2.32,2.32,0,0,0-2.44-1.93,2.49,2.49,0,0,0-.83.13,2.33,2.33,0,0,0-.7.39,2.43,2.43,0,0,0-.54.61,2.83,2.83,0,0,0-.34.81Z" transform="translate(-10.79 -6.04)"/><path class="cls-4" d="M615.07,143.65h2.43v1a4,4,0,0,1,2.86-1.26,3.61,3.61,0,0,1,2.85,1.15,4.71,4.71,0,0,1,.88,3.19v6.41h-2.43v-5.84a3.83,3.83,0,0,0-.43-2.14,1.73,1.73,0,0,0-1.53-.6,1.87,1.87,0,0,0-1.71.79,5.47,5.47,0,0,0-.49,2.74v5h-2.43Z" transform="translate(-10.79 -6.04)"/><path class="cls-4" d="M629.62,145.9v8.21h-2.42V145.9h-1v-2.26h1v-3.83h2.42v3.83h1.88v2.26Z" transform="translate(-10.79 -6.04)"/><path class="cls-4" d="M641,143.65h2.43v10.46H641V153a4.64,4.64,0,0,1-6.8-.17,5.83,5.83,0,0,1-1.41-4,5.65,5.65,0,0,1,1.41-3.92,4.54,4.54,0,0,1,3.52-1.57,4.45,4.45,0,0,1,3.28,1.5Zm-5.74,5.2a3.64,3.64,0,0,0,.81,2.45,2.64,2.64,0,0,0,2.08,1,2.77,2.77,0,0,0,2.17-.92,4,4,0,0,0,0-4.86,2.74,2.74,0,0,0-2.15-.93,2.67,2.67,0,0,0-2.08.95A3.48,3.48,0,0,0,635.3,148.85Z" transform="translate(-10.79 -6.04)"/><path class="cls-4" d="M649,145.9v8.21h-2.42V145.9h-1v-2.26h1v-3.83H649v3.83h1.88v2.26Z" transform="translate(-10.79 -6.04)"/><path class="cls-4" d="M652.17,139.3a1.58,1.58,0,0,1,1.57-1.56,1.52,1.52,0,0,1,1.12.46,1.49,1.49,0,0,1,.46,1.11,1.52,1.52,0,0,1-.46,1.12,1.49,1.49,0,0,1-1.11.46,1.58,1.58,0,0,1-1.58-1.59Zm2.78,4.35v10.46h-2.42V143.65Z" transform="translate(-10.79 -6.04)"/><path class="cls-4" d="M657.52,148.8a5.2,5.2,0,0,1,1.62-3.86,5.72,5.72,0,0,1,7.93,0,5.6,5.6,0,0,1,0,7.87,5.54,5.54,0,0,1-4,1.58,5.32,5.32,0,0,1-3.94-1.61A5.42,5.42,0,0,1,657.52,148.8Zm2.47,0a3.53,3.53,0,0,0,.84,2.48,3.26,3.26,0,0,0,4.53,0,3.93,3.93,0,0,0,0-4.88,3.22,3.22,0,0,0-4.51,0A3.36,3.36,0,0,0,660,148.85Z" transform="translate(-10.79 -6.04)"/><path class="cls-4" d="M671.23,143.65h2.43v1a4,4,0,0,1,2.86-1.26,3.61,3.61,0,0,1,2.85,1.15,4.71,4.71,0,0,1,.88,3.19v6.41h-2.43v-5.84a3.83,3.83,0,0,0-.43-2.14,1.73,1.73,0,0,0-1.53-.6,1.87,1.87,0,0,0-1.71.79,5.47,5.47,0,0,0-.49,2.74v5h-2.43Z" transform="translate(-10.79 -6.04)"/><path class="cls-4" d="M499.92,212.55V196h3.48a12.67,12.67,0,0,1,4,.49,7.4,7.4,0,0,1,2.83,1.64,8.58,8.58,0,0,1-.11,12.34,7.8,7.8,0,0,1-2.81,1.64,12.82,12.82,0,0,1-3.9.46Zm2.5-2.35h1.13a9.41,9.41,0,0,0,2.8-.35,5.69,5.69,0,0,0,3.87-5.59,5.76,5.76,0,0,0-1.83-4.43,6.92,6.92,0,0,0-4.84-1.51h-1.13Z" transform="translate(-10.79 -6.04)"/><path class="cls-4" d="M525,207.88h-7.5a3.18,3.18,0,0,0,.84,2.05,2.56,2.56,0,0,0,1.9.75,2.47,2.47,0,0,0,1.49-.43,6.11,6.11,0,0,0,1.32-1.59l2,1.14a8.14,8.14,0,0,1-1,1.38,5.25,5.25,0,0,1-1.13.95,4.49,4.49,0,0,1-1.3.54,6.35,6.35,0,0,1-1.51.17,4.92,4.92,0,0,1-3.76-1.5,5.64,5.64,0,0,1-1.42-4,5.8,5.8,0,0,1,1.38-4,5.24,5.24,0,0,1,7.33,0,5.79,5.79,0,0,1,1.33,4Zm-2.48-2A2.32,2.32,0,0,0,520,204a2.49,2.49,0,0,0-.83.13,2.33,2.33,0,0,0-.7.39,2.43,2.43,0,0,0-.54.61,2.83,2.83,0,0,0-.34.81Z" transform="translate(-10.79 -6.04)"/><path class="cls-4" d="M533.69,203.87l-2,1.06q-.47-1-1.17-1a.81.81,0,0,0-.57.22.74.74,0,0,0-.24.56q0,.6,1.4,1.19a8.33,8.33,0,0,1,2.59,1.53,2.61,2.61,0,0,1,.67,1.88,3.29,3.29,0,0,1-1.12,2.54,4,4,0,0,1-6.35-1.6l2.06-1a4.47,4.47,0,0,0,.66,1,1.49,1.49,0,0,0,1.05.41q1.22,0,1.22-1.12,0-.64-.95-1.2l-.73-.35-.74-.35a4.53,4.53,0,0,1-1.48-1,2.54,2.54,0,0,1-.55-1.69,3,3,0,0,1,.93-2.26,3.28,3.28,0,0,1,2.32-.89A3.17,3.17,0,0,1,533.69,203.87Z" transform="translate(-10.79 -6.04)"/><path class="cls-4" d="M536.17,197.73a1.58,1.58,0,0,1,1.57-1.56,1.52,1.52,0,0,1,1.12.46,1.49,1.49,0,0,1,.46,1.11,1.52,1.52,0,0,1-.46,1.12,1.49,1.49,0,0,1-1.11.46,1.58,1.58,0,0,1-1.58-1.59Zm2.78,4.35v10.46h-2.42V202.08Z" transform="translate(-10.79 -6.04)"/><path class="cls-4" d="M552.13,212.3q0,.74,0,1.31a8.78,8.78,0,0,1-.13,1,4.42,4.42,0,0,1-1,2,4.89,4.89,0,0,1-3.9,1.63,5.2,5.2,0,0,1-3.45-1.13,4.61,4.61,0,0,1-1.61-3.21h2.43a2.75,2.75,0,0,0,.46,1.19,2.6,2.6,0,0,0,2.19,1q2.65,0,2.65-3.25v-1.46a4.51,4.51,0,0,1-3.32,1.47,4.46,4.46,0,0,1-3.5-1.55,5.73,5.73,0,0,1-1.37-3.92,6,6,0,0,1,1.28-3.89,4.44,4.44,0,0,1,3.63-1.7,4.22,4.22,0,0,1,3.29,1.47v-1.18h2.42Zm-2.32-5a3.52,3.52,0,0,0-.82-2.44,2.7,2.7,0,0,0-2.12-.93,2.6,2.6,0,0,0-2.17,1,4.2,4.2,0,0,0,0,4.71,2.6,2.6,0,0,0,2.17,1,2.65,2.65,0,0,0,2.19-1A3.6,3.6,0,0,0,549.81,207.34Z" transform="translate(-10.79 -6.04)"/><path class="cls-4" d="M555.18,202.08h2.43v1a4,4,0,0,1,2.86-1.26,3.61,3.61,0,0,1,2.85,1.15,4.71,4.71,0,0,1,.88,3.19v6.41h-2.43V206.7a3.83,3.83,0,0,0-.43-2.14,1.73,1.73,0,0,0-1.53-.6,1.87,1.87,0,0,0-1.71.79,5.47,5.47,0,0,0-.49,2.74v5h-2.43Z" transform="translate(-10.79 -6.04)"/><path class="cls-4" d="M576.53,204.34v8.21h-2.42v-8.21h-1v-2.26h1v-3.83h2.42v3.83h1.88v2.26Z" transform="translate(-10.79 -6.04)"/><path class="cls-4" d="M579.69,207.24a5.2,5.2,0,0,1,1.62-3.86,5.72,5.72,0,0,1,7.93,0,5.6,5.6,0,0,1,0,7.87,5.54,5.54,0,0,1-4,1.58,5.32,5.32,0,0,1-3.94-1.61A5.42,5.42,0,0,1,579.69,207.24Zm2.47,0a3.53,3.53,0,0,0,.84,2.48,3.26,3.26,0,0,0,4.53,0,3.93,3.93,0,0,0,0-4.88,3.22,3.22,0,0,0-4.51,0A3.36,3.36,0,0,0,582.16,207.28Z" transform="translate(-10.79 -6.04)"/><path class="cls-4" d="M600.66,212.55V196h3.48a12.67,12.67,0,0,1,4,.49,7.4,7.4,0,0,1,2.83,1.64,8.58,8.58,0,0,1-.11,12.34,7.8,7.8,0,0,1-2.81,1.64,12.82,12.82,0,0,1-3.9.46Zm2.5-2.35h1.13a9.41,9.41,0,0,0,2.8-.35,5.69,5.69,0,0,0,3.87-5.59,5.76,5.76,0,0,0-1.83-4.43,6.92,6.92,0,0,0-4.84-1.51h-1.13Z" transform="translate(-10.79 -6.04)"/><path class="cls-4" d="M625.7,207.88h-7.5a3.18,3.18,0,0,0,.84,2.05,2.56,2.56,0,0,0,1.9.75,2.47,2.47,0,0,0,1.49-.43,6.11,6.11,0,0,0,1.32-1.59l2,1.14a8.14,8.14,0,0,1-1,1.38,5.25,5.25,0,0,1-1.13.95,4.49,4.49,0,0,1-1.3.54,6.35,6.35,0,0,1-1.51.17,4.92,4.92,0,0,1-3.76-1.5,5.64,5.64,0,0,1-1.42-4,5.8,5.8,0,0,1,1.38-4,5.24,5.24,0,0,1,7.33,0,5.79,5.79,0,0,1,1.33,4Zm-2.48-2a2.32,2.32,0,0,0-2.44-1.93,2.49,2.49,0,0,0-.83.13,2.33,2.33,0,0,0-.7.39,2.43,2.43,0,0,0-.54.61,2.83,2.83,0,0,0-.34.81Z" transform="translate(-10.79 -6.04)"/><path class="cls-4" d="M630.76,194.4v18.14h-2.42V194.4Z" transform="translate(-10.79 -6.04)"/><path class="cls-4" d="M633.45,197.73a1.58,1.58,0,0,1,1.57-1.56,1.52,1.52,0,0,1,1.12.46,1.49,1.49,0,0,1,.46,1.11,1.52,1.52,0,0,1-.46,1.12,1.49,1.49,0,0,1-1.11.46,1.58,1.58,0,0,1-1.58-1.59Zm2.78,4.35v10.46h-2.42V202.08Z" transform="translate(-10.79 -6.04)"/><path class="cls-4" d="M640.6,202.08,643.3,208l2.7-5.88h2.72l-5.44,11.18-5.39-11.18Z" transform="translate(-10.79 -6.04)"/><path class="cls-4" d="M659.5,207.88H652a3.18,3.18,0,0,0,.84,2.05,2.56,2.56,0,0,0,1.9.75,2.47,2.47,0,0,0,1.49-.43,6.11,6.11,0,0,0,1.32-1.59l2,1.14a8.14,8.14,0,0,1-1,1.38,5.25,5.25,0,0,1-1.13.95,4.49,4.49,0,0,1-1.3.54,6.35,6.35,0,0,1-1.51.17,4.92,4.92,0,0,1-3.76-1.5,5.64,5.64,0,0,1-1.42-4,5.8,5.8,0,0,1,1.38-4,5.24,5.24,0,0,1,7.33,0,5.79,5.79,0,0,1,1.33,4Zm-2.48-2a2.32,2.32,0,0,0-2.44-1.93,2.49,2.49,0,0,0-.83.13,2.33,2.33,0,0,0-.7.39,2.43,2.43,0,0,0-.54.61,2.83,2.83,0,0,0-.34.81Z" transform="translate(-10.79 -6.04)"/><path class="cls-4" d="M662.15,202.08h2.42V203a4.61,4.61,0,0,1,1.18-1,2.71,2.71,0,0,1,1.25-.27,3.91,3.91,0,0,1,2,.62l-1.11,2.21a2.31,2.31,0,0,0-1.34-.49q-2,0-2,3v5.42h-2.42Z" transform="translate(-10.79 -6.04)"/><path class="cls-4" d="M674.62,210.6l-4.71-8.52h2.8l3.2,6,3-6h2.73l-8.34,16.16h-2.76Z" transform="translate(-10.79 -6.04)"/><rect class="cls-7" x="262" y="604" width="162" height="90"/><rect class="cls-8" x="262" y="604" width="162" height="90"/><path class="cls-9" d="M310.49,634.17l4.17,10.45,4.23-10.45h2.49l-6.77,16.21L308,634.17Z" transform="translate(-10.79 -6.04)"/><path class="cls-9" d="M328.68,639.74h2.21v9.51h-2.21v-1a4.22,4.22,0,0,1-6.18-.16,5.3,5.3,0,0,1-1.28-3.63,5.14,5.14,0,0,1,1.28-3.56,4.12,4.12,0,0,1,3.2-1.43,4,4,0,0,1,3,1.37Zm-5.21,4.73a3.31,3.31,0,0,0,.73,2.23,2.4,2.4,0,0,0,1.89.87,2.52,2.52,0,0,0,2-.84,3.61,3.61,0,0,0,0-4.41,2.49,2.49,0,0,0-2-.85,2.43,2.43,0,0,0-1.89.86A3.17,3.17,0,0,0,323.47,644.47Z" transform="translate(-10.79 -6.04)"/><path class="cls-9" d="M335.86,632.76v16.49h-2.2V632.76Z" transform="translate(-10.79 -6.04)"/><path class="cls-9" d="M338.31,635.78a1.36,1.36,0,0,1,.42-1,1.43,1.43,0,0,1,2,0,1.35,1.35,0,0,1,.42,1,1.38,1.38,0,0,1-.42,1,1.35,1.35,0,0,1-1,.42,1.43,1.43,0,0,1-1.44-1.45Zm2.53,4v9.51h-2.2v-9.51Z" transform="translate(-10.79 -6.04)"/><path class="cls-9" d="M350.64,632.76h2.21v16.49h-2.21v-1a4.1,4.1,0,0,1-2.94,1.27,4.18,4.18,0,0,1-3.24-1.43,5.31,5.31,0,0,1-1.28-3.63,5.13,5.13,0,0,1,1.28-3.55,4.11,4.11,0,0,1,6.18-.07Zm-5.21,11.71a3.31,3.31,0,0,0,.73,2.23,2.4,2.4,0,0,0,1.89.87,2.52,2.52,0,0,0,2-.84,3.61,3.61,0,0,0,0-4.41,2.49,2.49,0,0,0-2-.85,2.43,2.43,0,0,0-1.89.86A3.17,3.17,0,0,0,345.42,644.47Z" transform="translate(-10.79 -6.04)"/><path class="cls-9" d="M362.63,639.74h2.21v9.51h-2.21v-1a4.22,4.22,0,0,1-6.18-.16,5.31,5.31,0,0,1-1.28-3.63,5.14,5.14,0,0,1,1.28-3.56,4.12,4.12,0,0,1,3.2-1.43,4,4,0,0,1,3,1.37Zm-5.21,4.73a3.31,3.31,0,0,0,.73,2.23,2.4,2.4,0,0,0,1.89.87,2.52,2.52,0,0,0,2-.84,3.61,3.61,0,0,0,0-4.41,2.49,2.49,0,0,0-2-.85,2.43,2.43,0,0,0-1.89.86A3.17,3.17,0,0,0,357.41,644.47Z" transform="translate(-10.79 -6.04)"/><path class="cls-9" d="M369.87,641.79v7.46h-2.2v-7.46h-.94v-2.05h.94v-3.49h2.2v3.49h1.71v2.05Z" transform="translate(-10.79 -6.04)"/><path class="cls-9" d="M372.75,635.78a1.36,1.36,0,0,1,.42-1,1.43,1.43,0,0,1,2,0,1.35,1.35,0,0,1,.42,1,1.38,1.38,0,0,1-.42,1,1.35,1.35,0,0,1-1,.42,1.43,1.43,0,0,1-1.44-1.45Zm2.53,4v9.51h-2.2v-9.51Z" transform="translate(-10.79 -6.04)"/><path class="cls-9" d="M377.61,644.43a4.73,4.73,0,0,1,1.47-3.51,5.2,5.2,0,0,1,7.21,0,5.09,5.09,0,0,1,0,7.16,5,5,0,0,1-3.64,1.44,4.83,4.83,0,0,1-3.58-1.46A4.92,4.92,0,0,1,377.61,644.43Zm2.25,0a3.21,3.21,0,0,0,.76,2.26,3,3,0,0,0,4.12,0,3.57,3.57,0,0,0,0-4.43,2.92,2.92,0,0,0-4.1,0A3.06,3.06,0,0,0,379.86,644.47Z" transform="translate(-10.79 -6.04)"/><path class="cls-9" d="M390.08,639.74h2.21v.88a3.6,3.6,0,0,1,2.6-1.14,3.28,3.28,0,0,1,2.59,1,4.27,4.27,0,0,1,.8,2.9v5.83h-2.21v-5.31a3.48,3.48,0,0,0-.39-1.94,1.57,1.57,0,0,0-1.39-.55,1.69,1.69,0,0,0-1.55.72,5,5,0,0,0-.45,2.49v4.59h-2.21Z" transform="translate(-10.79 -6.04)"/><path class="cls-9" d="M329.06,662.87v12.94h-2.28V662.87h-3.47v-2.14h9.2v2.14Z" transform="translate(-10.79 -6.04)"/><path class="cls-9" d="M342,671.58h-6.82a2.89,2.89,0,0,0,.76,1.87,2.32,2.32,0,0,0,1.73.68,2.25,2.25,0,0,0,1.36-.39,5.55,5.55,0,0,0,1.2-1.45l1.86,1a7.36,7.36,0,0,1-.91,1.25,4.84,4.84,0,0,1-1,.86,4.09,4.09,0,0,1-1.18.49,5.78,5.78,0,0,1-1.38.16,4.48,4.48,0,0,1-3.42-1.37,5.13,5.13,0,0,1-1.29-3.65,5.27,5.27,0,0,1,1.25-3.65,4.76,4.76,0,0,1,6.66,0,5.26,5.26,0,0,1,1.21,3.68Zm-2.26-1.8a2.1,2.1,0,0,0-2.22-1.76,2.29,2.29,0,0,0-.75.12,2.14,2.14,0,0,0-.64.35,2.23,2.23,0,0,0-.49.55,2.56,2.56,0,0,0-.31.73Z" transform="translate(-10.79 -6.04)"/><path class="cls-9" d="M349.9,667.92l-1.82,1q-.43-.88-1.06-.88a.73.73,0,0,0-.52.2.67.67,0,0,0-.21.51q0,.55,1.27,1.08a7.57,7.57,0,0,1,2.35,1.39,2.37,2.37,0,0,1,.61,1.71,3,3,0,0,1-1,2.3,3.64,3.64,0,0,1-5.77-1.46l1.88-.87a4.09,4.09,0,0,0,.6.87,1.36,1.36,0,0,0,1,.37q1.11,0,1.11-1,0-.59-.86-1.09l-.66-.32-.67-.32a4.13,4.13,0,0,1-1.35-.94,2.31,2.31,0,0,1-.5-1.53,2.72,2.72,0,0,1,.85-2.05,3,3,0,0,1,2.11-.81A2.88,2.88,0,0,1,349.9,667.92Z" transform="translate(-10.79 -6.04)"/><path class="cls-9" d="M354.75,668.35v7.46h-2.2v-7.46h-.94V666.3h.94v-3.49h2.2v3.49h1.71v2.05Z" transform="translate(-10.79 -6.04)"/><path class="cls-9" d="M357.62,662.35a1.36,1.36,0,0,1,.42-1,1.43,1.43,0,0,1,2,0,1.35,1.35,0,0,1,.42,1,1.38,1.38,0,0,1-.42,1,1.35,1.35,0,0,1-1,.42,1.43,1.43,0,0,1-1.44-1.45Zm2.53,4v9.51H358V666.3Z" transform="translate(-10.79 -6.04)"/><path class="cls-9" d="M362.93,666.3h2.21v.88a3.6,3.6,0,0,1,2.6-1.14,3.28,3.28,0,0,1,2.59,1,4.27,4.27,0,0,1,.8,2.9v5.83h-2.21V670.5a3.48,3.48,0,0,0-.39-1.94,1.57,1.57,0,0,0-1.39-.55,1.69,1.69,0,0,0-1.55.72,5,5,0,0,0-.45,2.49v4.59h-2.21Z" transform="translate(-10.79 -6.04)"/><path class="cls-9" d="M383.1,675.59q0,.67,0,1.19a8.3,8.3,0,0,1-.12.9,4,4,0,0,1-.92,1.85,4.45,4.45,0,0,1-3.54,1.48,4.73,4.73,0,0,1-3.13-1,4.19,4.19,0,0,1-1.46-2.92h2.21a2.5,2.5,0,0,0,.42,1.08,2.36,2.36,0,0,0,2,.89q2.41,0,2.41-3v-1.33a4.1,4.1,0,0,1-3,1.34,4.05,4.05,0,0,1-3.18-1.41,5.21,5.21,0,0,1-1.25-3.56,5.49,5.49,0,0,1,1.16-3.54,4,4,0,0,1,3.3-1.54,3.83,3.83,0,0,1,3,1.34V666.3h2.2ZM381,671.08a3.2,3.2,0,0,0-.74-2.22,2.45,2.45,0,0,0-1.92-.85,2.36,2.36,0,0,0-2,.93,3.82,3.82,0,0,0,0,4.28,2.37,2.37,0,0,0,2,.91,2.41,2.41,0,0,0,2-.92A3.27,3.27,0,0,0,381,671.08Z" transform="translate(-10.79 -6.04)"/><rect class="cls-6" x="469" y="604" width="180" height="90"/><rect class="cls-8" x="469" y="604" width="180" height="90"/><path class="cls-9" d="M526.49,634.17l4.17,10.45,4.23-10.45h2.49l-6.77,16.21L524,634.17Z" transform="translate(-10.79 -6.04)"/><path class="cls-9" d="M544.68,639.74h2.21v9.51h-2.21v-1a4.22,4.22,0,0,1-6.18-.16,5.31,5.31,0,0,1-1.28-3.63,5.14,5.14,0,0,1,1.28-3.56,4.12,4.12,0,0,1,3.2-1.43,4,4,0,0,1,3,1.37Zm-5.21,4.73a3.31,3.31,0,0,0,.73,2.23,2.4,2.4,0,0,0,1.89.87,2.52,2.52,0,0,0,2-.84,3.61,3.61,0,0,0,0-4.41,2.49,2.49,0,0,0-2-.85,2.43,2.43,0,0,0-1.89.86A3.17,3.17,0,0,0,539.47,644.47Z" transform="translate(-10.79 -6.04)"/><path class="cls-9" d="M551.86,632.76v16.49h-2.2V632.76Z" transform="translate(-10.79 -6.04)"/><path class="cls-9" d="M554.31,635.78a1.36,1.36,0,0,1,.42-1,1.43,1.43,0,0,1,2,0,1.35,1.35,0,0,1,.42,1,1.38,1.38,0,0,1-.42,1,1.35,1.35,0,0,1-1,.42,1.43,1.43,0,0,1-1.44-1.45Zm2.53,4v9.51h-2.2v-9.51Z" transform="translate(-10.79 -6.04)"/><path class="cls-9" d="M566.64,632.76h2.21v16.49h-2.21v-1a4.1,4.1,0,0,1-2.94,1.27,4.18,4.18,0,0,1-3.24-1.43,5.31,5.31,0,0,1-1.28-3.63,5.13,5.13,0,0,1,1.28-3.55,4.11,4.11,0,0,1,6.18-.07Zm-5.21,11.71a3.31,3.31,0,0,0,.73,2.23,2.4,2.4,0,0,0,1.89.87,2.52,2.52,0,0,0,2-.84,3.61,3.61,0,0,0,0-4.41,2.49,2.49,0,0,0-2-.85,2.43,2.43,0,0,0-1.89.86A3.17,3.17,0,0,0,561.42,644.47Z" transform="translate(-10.79 -6.04)"/><path class="cls-9" d="M578.63,639.74h2.21v9.51h-2.21v-1a4.22,4.22,0,0,1-6.18-.16,5.31,5.31,0,0,1-1.28-3.63,5.14,5.14,0,0,1,1.28-3.56,4.12,4.12,0,0,1,3.2-1.43,4,4,0,0,1,3,1.37Zm-5.21,4.73a3.31,3.31,0,0,0,.73,2.23,2.4,2.4,0,0,0,1.89.87,2.52,2.52,0,0,0,2-.84,3.61,3.61,0,0,0,0-4.41,2.49,2.49,0,0,0-2-.85,2.43,2.43,0,0,0-1.89.86A3.17,3.17,0,0,0,573.41,644.47Z" transform="translate(-10.79 -6.04)"/><path class="cls-9" d="M585.87,641.79v7.46h-2.2v-7.46h-.94v-2.05h.94v-3.49h2.2v3.49h1.71v2.05Z" transform="translate(-10.79 -6.04)"/><path class="cls-9" d="M588.75,635.78a1.36,1.36,0,0,1,.42-1,1.43,1.43,0,0,1,2,0,1.35,1.35,0,0,1,.42,1,1.38,1.38,0,0,1-.42,1,1.35,1.35,0,0,1-1,.42,1.43,1.43,0,0,1-1.44-1.45Zm2.53,4v9.51h-2.2v-9.51Z" transform="translate(-10.79 -6.04)"/><path class="cls-9" d="M593.61,644.43a4.73,4.73,0,0,1,1.47-3.51,5.2,5.2,0,0,1,7.21,0,5.09,5.09,0,0,1,0,7.16,5,5,0,0,1-3.64,1.44,4.83,4.83,0,0,1-3.58-1.46A4.92,4.92,0,0,1,593.61,644.43Zm2.25,0a3.21,3.21,0,0,0,.76,2.26,3,3,0,0,0,4.12,0,3.57,3.57,0,0,0,0-4.43,2.92,2.92,0,0,0-4.1,0A3.06,3.06,0,0,0,595.86,644.47Z" transform="translate(-10.79 -6.04)"/><path class="cls-9" d="M606.08,639.74h2.21v.88a3.6,3.6,0,0,1,2.6-1.14,3.28,3.28,0,0,1,2.59,1,4.27,4.27,0,0,1,.8,2.9v5.83h-2.21v-5.31a3.48,3.48,0,0,0-.39-1.94,1.57,1.57,0,0,0-1.39-.55,1.69,1.69,0,0,0-1.55.72,5,5,0,0,0-.45,2.49v4.59h-2.21Z" transform="translate(-10.79 -6.04)"/><path class="cls-9" d="M522.39,675.81V660.74h3.16a11.54,11.54,0,0,1,3.59.45,6.73,6.73,0,0,1,2.57,1.49,7.22,7.22,0,0,1,2.33,5.6,7.34,7.34,0,0,1-5,7.12,11.66,11.66,0,0,1-3.54.42Zm2.28-2.14h1a8.55,8.55,0,0,0,2.55-.32,5.53,5.53,0,0,0,1.86-9.1,6.29,6.29,0,0,0-4.4-1.38h-1Z" transform="translate(-10.79 -6.04)"/><path class="cls-9" d="M536,671a4.73,4.73,0,0,1,1.47-3.51,5.2,5.2,0,0,1,7.21,0,5.09,5.09,0,0,1,0,7.16,5,5,0,0,1-3.64,1.44,4.83,4.83,0,0,1-3.58-1.46A4.92,4.92,0,0,1,536,671Zm2.25,0a3.21,3.21,0,0,0,.76,2.26,3,3,0,0,0,4.12,0,3.57,3.57,0,0,0,0-4.43,2.92,2.92,0,0,0-4.1,0A3.06,3.06,0,0,0,538.29,671Z" transform="translate(-10.79 -6.04)"/><path class="cls-9" d="M555.92,666.71v2.92a5.37,5.37,0,0,0-1.35-1.26,2.63,2.63,0,0,0-1.38-.35,2.71,2.71,0,0,0-2.06.87,3,3,0,0,0-.82,2.18,3.12,3.12,0,0,0,.79,2.2,2.67,2.67,0,0,0,2,.86,2.78,2.78,0,0,0,1.4-.34,5.51,5.51,0,0,0,1.38-1.29v2.9a5.76,5.76,0,0,1-2.68.69,5.12,5.12,0,0,1-3.69-1.43,4.76,4.76,0,0,1-1.48-3.56,4.82,4.82,0,0,1,1.5-3.59,5.09,5.09,0,0,1,3.69-1.46A5.52,5.52,0,0,1,555.92,666.71Z" transform="translate(-10.79 -6.04)"/><path class="cls-9" d="M560.24,666.3v5.46q0,2.36,1.87,2.36t1.87-2.36V666.3h2.2v5.51a6.13,6.13,0,0,1-.28,2,3.32,3.32,0,0,1-.95,1.34,4.62,4.62,0,0,1-5.65,0,3.36,3.36,0,0,1-1-1.34,5.43,5.43,0,0,1-.27-2V666.3Z" transform="translate(-10.79 -6.04)"/><path class="cls-9" d="M568.94,666.3h2.2v.88a4.56,4.56,0,0,1,1.08-.9,2.64,2.64,0,0,1,1.2-.24,2.92,2.92,0,0,1,2.55,1.41,3.3,3.3,0,0,1,2.8-1.41q3.21,0,3.21,3.9v5.88h-2.21v-5.28a4.07,4.07,0,0,0-.33-1.93,1.2,1.2,0,0,0-1.12-.58,1.43,1.43,0,0,0-1.32.68,4.4,4.4,0,0,0-.42,2.2v4.91h-2.21v-5.25q0-2.54-1.46-2.54a1.47,1.47,0,0,0-1.35.69,4.33,4.33,0,0,0-.42,2.19v4.91h-2.2Z" transform="translate(-10.79 -6.04)"/><path class="cls-9" d="M593.43,671.58h-6.82a2.89,2.89,0,0,0,.76,1.87,2.32,2.32,0,0,0,1.73.68,2.25,2.25,0,0,0,1.36-.39,5.55,5.55,0,0,0,1.2-1.45l1.86,1a7.36,7.36,0,0,1-.91,1.25,4.84,4.84,0,0,1-1,.86,4.09,4.09,0,0,1-1.18.49,5.78,5.78,0,0,1-1.38.16,4.48,4.48,0,0,1-3.42-1.37,5.13,5.13,0,0,1-1.29-3.65,5.27,5.27,0,0,1,1.25-3.65,4.76,4.76,0,0,1,6.66,0,5.26,5.26,0,0,1,1.21,3.68Zm-2.26-1.8A2.1,2.1,0,0,0,589,668a2.29,2.29,0,0,0-.75.12,2.14,2.14,0,0,0-.64.35,2.23,2.23,0,0,0-.49.55,2.56,2.56,0,0,0-.31.73Z" transform="translate(-10.79 -6.04)"/><path class="cls-9" d="M595.83,666.3H598v.88a3.6,3.6,0,0,1,2.6-1.14,3.28,3.28,0,0,1,2.59,1,4.27,4.27,0,0,1,.8,2.9v5.83h-2.21V670.5a3.48,3.48,0,0,0-.39-1.94A1.57,1.57,0,0,0,600,668a1.69,1.69,0,0,0-1.55.72,5,5,0,0,0-.45,2.49v4.59h-2.21Z" transform="translate(-10.79 -6.04)"/><path class="cls-9" d="M609.06,668.35v7.46h-2.2v-7.46h-.94V666.3h.94v-3.49h2.2v3.49h1.71v2.05Z" transform="translate(-10.79 -6.04)"/><path class="cls-9" d="M617.79,667.92l-1.82,1q-.43-.88-1.06-.88a.73.73,0,0,0-.52.2.67.67,0,0,0-.21.51q0,.55,1.27,1.08a7.57,7.57,0,0,1,2.35,1.39,2.37,2.37,0,0,1,.61,1.71,3,3,0,0,1-1,2.3,3.64,3.64,0,0,1-5.77-1.46l1.88-.87a4.09,4.09,0,0,0,.6.87,1.36,1.36,0,0,0,1,.37q1.11,0,1.11-1,0-.59-.86-1.09l-.66-.32-.67-.32a4.13,4.13,0,0,1-1.35-.94,2.31,2.31,0,0,1-.5-1.53,2.72,2.72,0,0,1,.85-2.05,3,3,0,0,1,2.11-.81A2.88,2.88,0,0,1,617.79,667.92Z" transform="translate(-10.79 -6.04)"/><line class="cls-3" x1="343.5" y1="478" x2="343.5" y2="588.1"/><polygon class="cls-4" points="343.5 599.3 347.7 588.1 339.3 588.1 343.5 599.3"/><polygon class="cls-5" points="343.5 599.3 347.7 588.1 339.3 588.1 343.5 599.3"/><line class="cls-3" x1="424" y1="649.5" x2="453.1" y2="649.5"/><polygon class="cls-4" points="464.3 649.5 453.1 645.3 453.1 653.7 464.3 649.5"/><polygon class="cls-5" points="464.3 649.5 453.1 645.3 453.1 653.7 464.3 649.5"/><rect class="cls-10" x="478" y="478" width="162" height="18"/><path class="cls-9" d="M529.07,493.79l3.27,4.5h-1.95l-3-4.32h-.29v4.32H525.5V487.73h1.87a4.67,4.67,0,0,1,3,.79,2.89,2.89,0,0,1,1,2.31,3,3,0,0,1-.64,1.93A2.86,2.86,0,0,1,529.07,493.79Zm-2-1.21h.51q2.26,0,2.26-1.73t-2.2-1.62h-.57Z" transform="translate(-10.79 -6.04)"/><path class="cls-9" d="M539.47,495.32H534.7a2,2,0,0,0,.53,1.31,1.62,1.62,0,0,0,1.21.48,1.57,1.57,0,0,0,1-.27,3.88,3.88,0,0,0,.84-1l1.3.72a5.15,5.15,0,0,1-.64.88,3.42,3.42,0,0,1-.72.6,2.86,2.86,0,0,1-.83.34,4,4,0,0,1-1,.11,3.13,3.13,0,0,1-2.39-1,3.59,3.59,0,0,1-.9-2.56,3.69,3.69,0,0,1,.88-2.56,3.33,3.33,0,0,1,4.66,0,3.68,3.68,0,0,1,.85,2.58Zm-1.58-1.26a1.47,1.47,0,0,0-1.55-1.23,1.58,1.58,0,0,0-.53.09,1.48,1.48,0,0,0-.45.25,1.54,1.54,0,0,0-.35.39,1.79,1.79,0,0,0-.22.51Z" transform="translate(-10.79 -6.04)"/><path class="cls-9" d="M542.69,486.74v11.55h-1.54V486.74Z" transform="translate(-10.79 -6.04)"/><path class="cls-9" d="M550.7,495.32h-4.77a2,2,0,0,0,.53,1.31,1.62,1.62,0,0,0,1.21.48,1.57,1.57,0,0,0,1-.27,3.88,3.88,0,0,0,.84-1l1.3.72a5.15,5.15,0,0,1-.64.88,3.42,3.42,0,0,1-.72.6,2.86,2.86,0,0,1-.83.34,4,4,0,0,1-1,.11,3.13,3.13,0,0,1-2.39-1,3.59,3.59,0,0,1-.9-2.56,3.69,3.69,0,0,1,.88-2.56,3.33,3.33,0,0,1,4.66,0,3.68,3.68,0,0,1,.85,2.58Zm-1.58-1.26a1.47,1.47,0,0,0-1.55-1.23,1.58,1.58,0,0,0-.53.09,1.48,1.48,0,0,0-.45.25,1.54,1.54,0,0,0-.35.39,1.79,1.79,0,0,0-.22.51Z" transform="translate(-10.79 -6.04)"/><path class="cls-9" d="M557.29,491.63h1.54v6.66h-1.54v-.7a3,3,0,0,1-4.33-.11,3.71,3.71,0,0,1-.9-2.54,3.6,3.6,0,0,1,.9-2.5,2.89,2.89,0,0,1,2.24-1,2.83,2.83,0,0,1,2.08,1Zm-3.65,3.31a2.32,2.32,0,0,0,.51,1.56,1.68,1.68,0,0,0,1.33.61,1.76,1.76,0,0,0,1.38-.59,2.53,2.53,0,0,0,0-3.09,1.74,1.74,0,0,0-1.37-.59,1.7,1.7,0,0,0-1.33.6A2.22,2.22,0,0,0,553.64,494.94Z" transform="translate(-10.79 -6.04)"/><path class="cls-9" d="M564.65,492.76l-1.27.68q-.3-.62-.75-.62a.51.51,0,0,0-.36.14.47.47,0,0,0-.15.36q0,.38.89.76a5.32,5.32,0,0,1,1.65,1,1.66,1.66,0,0,1,.42,1.2,2.1,2.1,0,0,1-.71,1.61,2.55,2.55,0,0,1-4-1l1.31-.61a2.84,2.84,0,0,0,.42.61,1,1,0,0,0,.67.26q.78,0,.78-.71,0-.41-.6-.77l-.46-.23-.47-.23a2.89,2.89,0,0,1-.94-.66,1.62,1.62,0,0,1-.35-1.07,1.9,1.9,0,0,1,.59-1.44,2.09,2.09,0,0,1,1.48-.57A2,2,0,0,1,564.65,492.76Z" transform="translate(-10.79 -6.04)"/><path class="cls-9" d="M572.53,495.32h-4.77a2,2,0,0,0,.53,1.31,1.62,1.62,0,0,0,1.21.48,1.57,1.57,0,0,0,1-.27,3.88,3.88,0,0,0,.84-1l1.3.72a5.15,5.15,0,0,1-.64.88,3.42,3.42,0,0,1-.72.6,2.86,2.86,0,0,1-.83.34,4,4,0,0,1-1,.11,3.13,3.13,0,0,1-2.39-1,3.59,3.59,0,0,1-.9-2.56,3.69,3.69,0,0,1,.88-2.56,3.33,3.33,0,0,1,4.66,0,3.68,3.68,0,0,1,.85,2.58Zm-1.58-1.26a1.47,1.47,0,0,0-1.55-1.23,1.58,1.58,0,0,0-.53.09,1.48,1.48,0,0,0-.45.25,1.54,1.54,0,0,0-.35.39,1.79,1.79,0,0,0-.22.51Z" transform="translate(-10.79 -6.04)"/><path class="cls-9" d="M578.82,498.29V487l7.7,8.05v-7.33h1.59v11.2l-7.7-8v7.39Z" transform="translate(-10.79 -6.04)"/><path class="cls-9" d="M590.12,494.91a3.31,3.31,0,0,1,1-2.45,3.64,3.64,0,0,1,5,0,3.56,3.56,0,0,1,0,5,3.53,3.53,0,0,1-2.55,1,3.38,3.38,0,0,1-2.51-1A3.45,3.45,0,0,1,590.12,494.91Zm1.57,0a2.24,2.24,0,0,0,.53,1.58,2.07,2.07,0,0,0,2.88,0,2.5,2.5,0,0,0,0-3.1,2,2,0,0,0-2.87,0A2.14,2.14,0,0,0,591.69,494.94Z" transform="translate(-10.79 -6.04)"/><path class="cls-9" d="M600.5,493.06v5.22H599v-5.22h-.66v-1.44H599v-2.44h1.54v2.44h1.2v1.44Z" transform="translate(-10.79 -6.04)"/><path class="cls-9" d="M608.92,495.32h-4.77a2,2,0,0,0,.53,1.31,1.62,1.62,0,0,0,1.21.48,1.57,1.57,0,0,0,1-.27,3.88,3.88,0,0,0,.84-1l1.3.72a5.15,5.15,0,0,1-.64.88,3.42,3.42,0,0,1-.72.6,2.86,2.86,0,0,1-.83.34,4,4,0,0,1-1,.11,3.13,3.13,0,0,1-2.39-1,3.59,3.59,0,0,1-.9-2.56,3.69,3.69,0,0,1,.88-2.56,3.33,3.33,0,0,1,4.66,0,3.68,3.68,0,0,1,.85,2.58Zm-1.58-1.26a1.47,1.47,0,0,0-1.55-1.23,1.58,1.58,0,0,0-.53.09,1.48,1.48,0,0,0-.45.25,1.54,1.54,0,0,0-.35.39,1.79,1.79,0,0,0-.22.51Z" transform="translate(-10.79 -6.04)"/><path class="cls-9" d="M614.47,492.76l-1.27.68q-.3-.62-.75-.62a.51.51,0,0,0-.36.14.47.47,0,0,0-.15.36q0,.38.89.76a5.32,5.32,0,0,1,1.65,1,1.66,1.66,0,0,1,.42,1.2,2.1,2.1,0,0,1-.71,1.61,2.55,2.55,0,0,1-4-1l1.31-.61a2.84,2.84,0,0,0,.42.61,1,1,0,0,0,.67.26q.78,0,.78-.71,0-.41-.6-.77l-.46-.23-.47-.23a2.89,2.89,0,0,1-.94-.66,1.62,1.62,0,0,1-.35-1.07,1.9,1.9,0,0,1,.59-1.44,2.09,2.09,0,0,1,1.48-.57A2,2,0,0,1,614.47,492.76Z" transform="translate(-10.79 -6.04)"/><rect class="cls-10" x="478" y="451" width="162" height="18"/><path class="cls-9" d="M538.34,460.73v10.55h-1.59V460.73Z" transform="translate(-10.79 -6.04)"/><path class="cls-9" d="M540.59,464.63h1.54v.62a2.52,2.52,0,0,1,1.82-.8,2.3,2.3,0,0,1,1.81.73,3,3,0,0,1,.56,2v4.08h-1.54v-3.72a2.44,2.44,0,0,0-.27-1.36,1.1,1.1,0,0,0-1-.38,1.19,1.19,0,0,0-1.09.51,3.48,3.48,0,0,0-.31,1.74v3.21h-1.54Z" transform="translate(-10.79 -6.04)"/><path class="cls-9" d="M552.13,465.76l-1.27.68q-.3-.62-.75-.62a.51.51,0,0,0-.36.14.47.47,0,0,0-.15.36q0,.38.89.76a5.32,5.32,0,0,1,1.65,1,1.66,1.66,0,0,1,.42,1.2,2.1,2.1,0,0,1-.71,1.61,2.55,2.55,0,0,1-4-1l1.31-.61a2.84,2.84,0,0,0,.42.61,1,1,0,0,0,.67.26q.78,0,.78-.71,0-.41-.6-.77l-.46-.23-.47-.23a2.89,2.89,0,0,1-.94-.66,1.62,1.62,0,0,1-.35-1.07,1.9,1.9,0,0,1,.59-1.44,2.09,2.09,0,0,1,1.48-.57A2,2,0,0,1,552.13,465.76Z" transform="translate(-10.79 -6.04)"/><path class="cls-9" d="M555.53,466.06v5.22H554v-5.22h-.66v-1.44H554v-2.44h1.54v2.44h1.2v1.44Z" transform="translate(-10.79 -6.04)"/><path class="cls-9" d="M562.79,464.63h1.54v6.66h-1.54v-.7a3,3,0,0,1-4.33-.11,3.71,3.71,0,0,1-.9-2.54,3.6,3.6,0,0,1,.9-2.5,2.89,2.89,0,0,1,2.24-1,2.83,2.83,0,0,1,2.08,1Zm-3.65,3.31a2.32,2.32,0,0,0,.51,1.56,1.68,1.68,0,0,0,1.33.61,1.76,1.76,0,0,0,1.38-.59,2.53,2.53,0,0,0,0-3.09,1.74,1.74,0,0,0-1.37-.59,1.7,1.7,0,0,0-1.33.6A2.22,2.22,0,0,0,559.14,467.94Z" transform="translate(-10.79 -6.04)"/><path class="cls-9" d="M567.82,459.74v11.55h-1.54V459.74Z" transform="translate(-10.79 -6.04)"/><path class="cls-9" d="M571.3,459.74v11.55h-1.54V459.74Z" transform="translate(-10.79 -6.04)"/><path class="cls-9" d="M578.16,464.63h1.54v6.66h-1.54v-.7a3,3,0,0,1-4.33-.11,3.71,3.71,0,0,1-.9-2.54,3.6,3.6,0,0,1,.9-2.5,2.89,2.89,0,0,1,2.24-1,2.83,2.83,0,0,1,2.08,1Zm-3.65,3.31a2.32,2.32,0,0,0,.51,1.56,1.68,1.68,0,0,0,1.33.61,1.76,1.76,0,0,0,1.38-.59,2.53,2.53,0,0,0,0-3.09,1.74,1.74,0,0,0-1.37-.59,1.7,1.7,0,0,0-1.33.6A2.22,2.22,0,0,0,574.51,467.94Z" transform="translate(-10.79 -6.04)"/><path class="cls-9" d="M583.23,466.06v5.22h-1.54v-5.22H581v-1.44h.66v-2.44h1.54v2.44h1.2v1.44Z" transform="translate(-10.79 -6.04)"/><path class="cls-9" d="M585.24,461.86a1,1,0,0,1,.29-.7,1,1,0,0,1,1.42,0,1,1,0,0,1,.29.7,1,1,0,0,1-.29.71.94.94,0,0,1-.7.29,1,1,0,0,1-1-1Zm1.77,2.77v6.66h-1.54v-6.66Z" transform="translate(-10.79 -6.04)"/><path class="cls-9" d="M588.65,467.91a3.31,3.31,0,0,1,1-2.45,3.64,3.64,0,0,1,5,0,3.56,3.56,0,0,1,0,5,3.53,3.53,0,0,1-2.55,1,3.38,3.38,0,0,1-2.51-1A3.45,3.45,0,0,1,588.65,467.91Zm1.57,0a2.24,2.24,0,0,0,.53,1.58,2.07,2.07,0,0,0,2.88,0,2.5,2.5,0,0,0,0-3.1,2,2,0,0,0-2.87,0A2.14,2.14,0,0,0,590.22,467.94Z" transform="translate(-10.79 -6.04)"/><path class="cls-9" d="M597.37,464.63h1.54v.62a2.52,2.52,0,0,1,1.82-.8,2.3,2.3,0,0,1,1.81.73,3,3,0,0,1,.56,2v4.08h-1.54v-3.72a2.44,2.44,0,0,0-.27-1.36,1.1,1.1,0,0,0-1-.38,1.19,1.19,0,0,0-1.09.51,3.48,3.48,0,0,0-.31,1.74v3.21h-1.54Z" transform="translate(-10.79 -6.04)"/><rect class="cls-10" x="478" y="505" width="162" height="18"/><path class="cls-9" d="M547.64,516.23v9.06h-1.59v-9.06h-2.43v-1.5h6.44v1.5Z" transform="translate(-10.79 -6.04)"/><path class="cls-9" d="M552.15,518.63v3.82q0,1.66,1.31,1.65t1.31-1.65v-3.82h1.54v3.86a4.3,4.3,0,0,1-.2,1.38,2.32,2.32,0,0,1-.66.94,3.23,3.23,0,0,1-4,0,2.34,2.34,0,0,1-.68-.94,3.8,3.8,0,0,1-.19-1.38v-3.86Z" transform="translate(-10.79 -6.04)"/><path class="cls-9" d="M559.83,520.06v5.22h-1.54v-5.22h-.66v-1.44h.66v-2.44h1.54v2.44H561v1.44Z" transform="translate(-10.79 -6.04)"/><path class="cls-9" d="M561.84,521.91a3.31,3.31,0,0,1,1-2.45,3.64,3.64,0,0,1,5,0,3.56,3.56,0,0,1,0,5,3.53,3.53,0,0,1-2.55,1,3.38,3.38,0,0,1-2.51-1A3.45,3.45,0,0,1,561.84,521.91Zm1.57,0a2.24,2.24,0,0,0,.53,1.58,2.07,2.07,0,0,0,2.88,0,2.5,2.5,0,0,0,0-3.1,2,2,0,0,0-2.87,0A2.14,2.14,0,0,0,563.42,521.94Z" transform="translate(-10.79 -6.04)"/><path class="cls-9" d="M570.57,518.63h1.54v.59a2.94,2.94,0,0,1,.75-.61,1.73,1.73,0,0,1,.79-.17,2.49,2.49,0,0,1,1.27.4l-.7,1.41a1.47,1.47,0,0,0-.85-.31q-1.26,0-1.26,1.9v3.45h-1.54Z" transform="translate(-10.79 -6.04)"/><path class="cls-9" d="M575.79,515.86a1,1,0,0,1,.29-.7,1,1,0,0,1,1.42,0,1,1,0,0,1,.29.7,1,1,0,0,1-.29.71.94.94,0,0,1-.7.29,1,1,0,0,1-1-1Zm1.77,2.77v6.66H576v-6.66Z" transform="translate(-10.79 -6.04)"/><path class="cls-9" d="M584.41,518.63H586v6.66h-1.54v-.7a3,3,0,0,1-4.33-.11,3.71,3.71,0,0,1-.9-2.54,3.6,3.6,0,0,1,.9-2.5,2.89,2.89,0,0,1,2.24-1,2.83,2.83,0,0,1,2.08,1Zm-3.65,3.31a2.32,2.32,0,0,0,.51,1.56,1.68,1.68,0,0,0,1.33.61,1.76,1.76,0,0,0,1.38-.59,2.53,2.53,0,0,0,0-3.09,1.74,1.74,0,0,0-1.37-.59,1.7,1.7,0,0,0-1.33.6A2.22,2.22,0,0,0,580.76,521.94Z" transform="translate(-10.79 -6.04)"/><path class="cls-9" d="M589.44,513.74v11.55H587.9V513.74Z" transform="translate(-10.79 -6.04)"/><path class="cls-9" d="M595.26,519.76l-1.27.68q-.3-.62-.75-.62a.51.51,0,0,0-.36.14.47.47,0,0,0-.15.36q0,.38.89.76a5.32,5.32,0,0,1,1.65,1,1.66,1.66,0,0,1,.42,1.2,2.1,2.1,0,0,1-.71,1.61,2.55,2.55,0,0,1-4-1l1.31-.61a2.84,2.84,0,0,0,.42.61,1,1,0,0,0,.67.26q.78,0,.78-.71,0-.41-.6-.77l-.46-.23-.47-.23a2.89,2.89,0,0,1-.94-.66,1.62,1.62,0,0,1-.35-1.07,1.9,1.9,0,0,1,.59-1.44,2.09,2.09,0,0,1,1.48-.57A2,2,0,0,1,595.26,519.76Z" transform="translate(-10.79 -6.04)"/><rect class="cls-10" x="478" y="532" width="162" height="18"/><path class="cls-9" d="M528,542.3v1.89a4.42,4.42,0,0,0-2.86-1.16,3.64,3.64,0,0,0-2.74,1.17,3.94,3.94,0,0,0-1.12,2.84,3.85,3.85,0,0,0,1.12,2.8,3.7,3.7,0,0,0,2.75,1.14,3.37,3.37,0,0,0,1.43-.27,4.06,4.06,0,0,0,.68-.37,7.84,7.84,0,0,0,.74-.56v1.92a5.74,5.74,0,0,1-2.87.77,5.3,5.3,0,0,1-3.86-1.58,5.24,5.24,0,0,1-1.59-3.84,5.42,5.42,0,0,1,1.33-3.6,5.31,5.31,0,0,1,4.25-1.93A5.39,5.39,0,0,1,528,542.3Z" transform="translate(-10.79 -6.04)"/><path class="cls-9" d="M529.4,548.91a3.31,3.31,0,0,1,1-2.45,3.64,3.64,0,0,1,5,0,3.56,3.56,0,0,1,0,5,3.53,3.53,0,0,1-2.55,1,3.38,3.38,0,0,1-2.51-1A3.45,3.45,0,0,1,529.4,548.91Zm1.57,0a2.24,2.24,0,0,0,.53,1.58,2.07,2.07,0,0,0,2.88,0,2.5,2.5,0,0,0,0-3.1,2,2,0,0,0-2.87,0A2.14,2.14,0,0,0,531,548.94Z" transform="translate(-10.79 -6.04)"/><path class="cls-9" d="M538.13,545.63h1.54v.62a2.52,2.52,0,0,1,1.82-.8,2.3,2.3,0,0,1,1.81.73,3,3,0,0,1,.56,2v4.08h-1.54v-3.72a2.44,2.44,0,0,0-.27-1.36,1.1,1.1,0,0,0-1-.38,1.19,1.19,0,0,0-1.09.51,3.48,3.48,0,0,0-.31,1.74v3.21h-1.54Z" transform="translate(-10.79 -6.04)"/><path class="cls-9" d="M551,545.91v2a3.76,3.76,0,0,0-.94-.88,1.84,1.84,0,0,0-1-.25,1.9,1.9,0,0,0-1.44.61,2.14,2.14,0,0,0-.57,1.52,2.18,2.18,0,0,0,.55,1.54,1.87,1.87,0,0,0,1.43.6,2,2,0,0,0,1-.24,3.85,3.85,0,0,0,1-.9v2a4,4,0,0,1-1.87.49,3.58,3.58,0,0,1-2.58-1,3.33,3.33,0,0,1-1-2.5,3.37,3.37,0,0,1,1.05-2.52,3.56,3.56,0,0,1,2.58-1A3.86,3.86,0,0,1,551,545.91Z" transform="translate(-10.79 -6.04)"/><path class="cls-9" d="M558.54,549.32h-4.77a2,2,0,0,0,.53,1.31,1.62,1.62,0,0,0,1.21.48,1.57,1.57,0,0,0,1-.27,3.88,3.88,0,0,0,.84-1l1.3.72a5.15,5.15,0,0,1-.64.88,3.42,3.42,0,0,1-.72.6,2.86,2.86,0,0,1-.83.34,4,4,0,0,1-1,.11,3.13,3.13,0,0,1-2.39-1,3.59,3.59,0,0,1-.9-2.56,3.69,3.69,0,0,1,.88-2.56,3.33,3.33,0,0,1,4.66,0,3.68,3.68,0,0,1,.85,2.58ZM557,548.06a1.47,1.47,0,0,0-1.55-1.23,1.58,1.58,0,0,0-.53.09,1.48,1.48,0,0,0-.45.25,1.54,1.54,0,0,0-.35.39,1.79,1.79,0,0,0-.22.51Z" transform="translate(-10.79 -6.04)"/><path class="cls-9" d="M561.76,555.91h-1.54V545.63h1.54v.72a2.85,2.85,0,0,1,2.06-.91,2.88,2.88,0,0,1,2.26,1A3.65,3.65,0,0,1,567,549a3.6,3.6,0,0,1-.9,2.5,2.92,2.92,0,0,1-4.33.05Zm3.66-6.91a2.3,2.3,0,0,0-.52-1.56,1.68,1.68,0,0,0-1.33-.61,1.76,1.76,0,0,0-1.37.59,2.23,2.23,0,0,0-.53,1.54,2.28,2.28,0,0,0,.53,1.54,1.73,1.73,0,0,0,1.37.59,1.67,1.67,0,0,0,1.32-.6A2.18,2.18,0,0,0,565.42,549Z" transform="translate(-10.79 -6.04)"/><path class="cls-9" d="M570.31,547.06v5.22h-1.54v-5.22h-.66v-1.44h.66v-2.44h1.54v2.44h1.2v1.44Z" transform="translate(-10.79 -6.04)"/><path class="cls-9" d="M582.6,546.79H587v.35a7.21,7.21,0,0,1-.28,2.11,4.48,4.48,0,0,1-.92,1.59,4.78,4.78,0,0,1-3.74,1.65,5.14,5.14,0,0,1-3.79-1.6,5.5,5.5,0,0,1,3.94-9.36,5.36,5.36,0,0,1,2.31.51,6.69,6.69,0,0,1,2,1.64l-1.13,1.09a3.85,3.85,0,0,0-3.17-1.73,3.78,3.78,0,0,0-2.81,1.16,3.86,3.86,0,0,0-1.13,2.84,4,4,0,0,0,3.83,4,3.18,3.18,0,0,0,2.11-.79,2.82,2.82,0,0,0,1-1.91H582.6Z" transform="translate(-10.79 -6.04)"/><path class="cls-9" d="M590.21,545.63v3.82q0,1.66,1.31,1.65t1.31-1.65v-3.82h1.54v3.86a4.3,4.3,0,0,1-.2,1.38,2.32,2.32,0,0,1-.66.94,3.23,3.23,0,0,1-4,0,2.34,2.34,0,0,1-.68-.94,3.8,3.8,0,0,1-.19-1.38v-3.86Z" transform="translate(-10.79 -6.04)"/><path class="cls-9" d="M596.07,542.86a1,1,0,0,1,.29-.7,1,1,0,0,1,1.42,0,1,1,0,0,1,.29.7,1,1,0,0,1-.29.71.94.94,0,0,1-.7.29,1,1,0,0,1-1-1Zm1.77,2.77v6.66H596.3v-6.66Z" transform="translate(-10.79 -6.04)"/><path class="cls-9" d="M604.69,540.74h1.54v11.55h-1.54v-.7a2.87,2.87,0,0,1-2.06.89,2.93,2.93,0,0,1-2.27-1,3.71,3.71,0,0,1-.9-2.54,3.59,3.59,0,0,1,.9-2.49,2.88,2.88,0,0,1,4.33,0Zm-3.65,8.2a2.32,2.32,0,0,0,.51,1.56,1.68,1.68,0,0,0,1.33.61,1.76,1.76,0,0,0,1.38-.59,2.53,2.53,0,0,0,0-3.09,1.74,1.74,0,0,0-1.37-.59,1.7,1.7,0,0,0-1.33.6A2.22,2.22,0,0,0,601,548.94Z" transform="translate(-10.79 -6.04)"/><path class="cls-9" d="M614.24,549.32h-4.77a2,2,0,0,0,.53,1.31,1.62,1.62,0,0,0,1.21.48,1.57,1.57,0,0,0,1-.27,3.88,3.88,0,0,0,.84-1l1.3.72a5.15,5.15,0,0,1-.64.88,3.42,3.42,0,0,1-.72.6,2.86,2.86,0,0,1-.83.34,4,4,0,0,1-1,.11,3.13,3.13,0,0,1-2.39-1,3.59,3.59,0,0,1-.9-2.56,3.69,3.69,0,0,1,.88-2.56,3.33,3.33,0,0,1,4.66,0,3.68,3.68,0,0,1,.85,2.58Zm-1.58-1.26a1.47,1.47,0,0,0-1.55-1.23,1.58,1.58,0,0,0-.53.09,1.48,1.48,0,0,0-.45.25,1.54,1.54,0,0,0-.35.39,1.79,1.79,0,0,0-.22.51Z" transform="translate(-10.79 -6.04)"/><path class="cls-9" d="M619.79,546.76l-1.27.68q-.3-.62-.75-.62a.51.51,0,0,0-.36.14.47.47,0,0,0-.15.36q0,.38.89.76a5.32,5.32,0,0,1,1.65,1,1.66,1.66,0,0,1,.42,1.2,2.1,2.1,0,0,1-.71,1.61,2.55,2.55,0,0,1-4-1l1.31-.61a2.84,2.84,0,0,0,.42.61,1,1,0,0,0,.67.26q.78,0,.78-.71,0-.41-.6-.77l-.46-.23-.47-.23a2.89,2.89,0,0,1-.94-.66,1.62,1.62,0,0,1-.35-1.07,1.9,1.9,0,0,1,.59-1.44,2.09,2.09,0,0,1,1.48-.57A2,2,0,0,1,619.79,546.76Z" transform="translate(-10.79 -6.04)"/><rect class="cls-10" x="478" y="559" width="162" height="18"/><path class="cls-9" d="M543.11,574.79l3.27,4.5h-1.95l-3-4.32h-.29v4.32h-1.59V568.73h1.87a4.67,4.67,0,0,1,3,.79,2.89,2.89,0,0,1,1,2.31,3,3,0,0,1-.64,1.93A2.86,2.86,0,0,1,543.11,574.79Zm-2-1.21h.51q2.26,0,2.26-1.73t-2.2-1.62h-.57Z" transform="translate(-10.79 -6.04)"/><path class="cls-9" d="M553.51,576.32h-4.77a2,2,0,0,0,.53,1.31,1.62,1.62,0,0,0,1.21.48,1.57,1.57,0,0,0,1-.27,3.88,3.88,0,0,0,.84-1l1.3.72a5.15,5.15,0,0,1-.64.88,3.42,3.42,0,0,1-.72.6,2.86,2.86,0,0,1-.83.34,4,4,0,0,1-1,.11,3.13,3.13,0,0,1-2.39-1,3.59,3.59,0,0,1-.9-2.56,3.69,3.69,0,0,1,.88-2.56,3.33,3.33,0,0,1,4.66,0,3.68,3.68,0,0,1,.85,2.58Zm-1.58-1.26a1.47,1.47,0,0,0-1.55-1.23,1.58,1.58,0,0,0-.53.09,1.48,1.48,0,0,0-.45.25,1.54,1.54,0,0,0-.35.39,1.79,1.79,0,0,0-.22.51Z" transform="translate(-10.79 -6.04)"/><path class="cls-9" d="M556.78,574.06v5.22h-1.54v-5.22h-.55v-1.44h.55v-2.57a2.79,2.79,0,0,1,.44-1.78,2.15,2.15,0,0,1,1.75-.72,3,3,0,0,1,1,.24v1.57l-.16-.08a1.94,1.94,0,0,0-.82-.25.56.56,0,0,0-.55.29,2.83,2.83,0,0,0-.14,1.11v2.19h1.67v1.44Z" transform="translate(-10.79 -6.04)"/><path class="cls-9" d="M565.62,576.32h-4.77a2,2,0,0,0,.53,1.31,1.62,1.62,0,0,0,1.21.48,1.57,1.57,0,0,0,1-.27,3.88,3.88,0,0,0,.84-1l1.3.72a5.15,5.15,0,0,1-.64.88,3.42,3.42,0,0,1-.72.6,2.86,2.86,0,0,1-.83.34,4,4,0,0,1-1,.11,3.13,3.13,0,0,1-2.39-1,3.59,3.59,0,0,1-.9-2.56,3.69,3.69,0,0,1,.88-2.56,3.33,3.33,0,0,1,4.66,0,3.68,3.68,0,0,1,.85,2.58ZM564,575.06a1.47,1.47,0,0,0-1.55-1.23,1.58,1.58,0,0,0-.53.09,1.48,1.48,0,0,0-.45.25,1.54,1.54,0,0,0-.35.39,1.79,1.79,0,0,0-.22.51Z" transform="translate(-10.79 -6.04)"/><path class="cls-9" d="M567.3,572.63h1.54v.59a2.94,2.94,0,0,1,.75-.61,1.73,1.73,0,0,1,.79-.17,2.49,2.49,0,0,1,1.27.4l-.7,1.41a1.47,1.47,0,0,0-.85-.31q-1.26,0-1.26,1.9v3.45H567.3Z" transform="translate(-10.79 -6.04)"/><path class="cls-9" d="M578.5,576.32h-4.77a2,2,0,0,0,.53,1.31,1.62,1.62,0,0,0,1.21.48,1.57,1.57,0,0,0,1-.27,3.88,3.88,0,0,0,.84-1l1.3.72a5.15,5.15,0,0,1-.64.88,3.42,3.42,0,0,1-.72.6,2.86,2.86,0,0,1-.83.34,4,4,0,0,1-1,.11,3.13,3.13,0,0,1-2.39-1,3.59,3.59,0,0,1-.9-2.56,3.69,3.69,0,0,1,.88-2.56,3.33,3.33,0,0,1,4.66,0,3.68,3.68,0,0,1,.85,2.58Zm-1.58-1.26a1.47,1.47,0,0,0-1.55-1.23,1.58,1.58,0,0,0-.53.09,1.48,1.48,0,0,0-.45.25,1.54,1.54,0,0,0-.35.39,1.79,1.79,0,0,0-.22.51Z" transform="translate(-10.79 -6.04)"/><path class="cls-9" d="M580.18,572.63h1.54v.62a2.52,2.52,0,0,1,1.82-.8,2.3,2.3,0,0,1,1.81.73,3,3,0,0,1,.56,2v4.08h-1.54v-3.72a2.44,2.44,0,0,0-.27-1.36,1.1,1.1,0,0,0-1-.38,1.19,1.19,0,0,0-1.09.51,3.48,3.48,0,0,0-.31,1.74v3.21h-1.54Z" transform="translate(-10.79 -6.04)"/><path class="cls-9" d="M593,572.91v2a3.76,3.76,0,0,0-.94-.88,1.84,1.84,0,0,0-1-.25,1.9,1.9,0,0,0-1.44.61,2.14,2.14,0,0,0-.57,1.52,2.18,2.18,0,0,0,.55,1.54,1.87,1.87,0,0,0,1.43.6,2,2,0,0,0,1-.24,3.85,3.85,0,0,0,1-.9v2a4,4,0,0,1-1.87.49,3.58,3.58,0,0,1-2.58-1,3.33,3.33,0,0,1-1-2.5,3.37,3.37,0,0,1,1.05-2.52,3.56,3.56,0,0,1,2.58-1A3.86,3.86,0,0,1,593,572.91Z" transform="translate(-10.79 -6.04)"/><path class="cls-9" d="M600.6,576.32h-4.77a2,2,0,0,0,.53,1.31,1.62,1.62,0,0,0,1.21.48,1.57,1.57,0,0,0,1-.27,3.88,3.88,0,0,0,.84-1l1.3.72a5.15,5.15,0,0,1-.64.88,3.42,3.42,0,0,1-.72.6,2.86,2.86,0,0,1-.83.34,4,4,0,0,1-1,.11,3.13,3.13,0,0,1-2.39-1,3.59,3.59,0,0,1-.9-2.56,3.69,3.69,0,0,1,.88-2.56,3.33,3.33,0,0,1,4.66,0,3.68,3.68,0,0,1,.85,2.58ZM599,575.06a1.47,1.47,0,0,0-1.55-1.23,1.58,1.58,0,0,0-.53.09,1.48,1.48,0,0,0-.45.25,1.54,1.54,0,0,0-.35.39,1.79,1.79,0,0,0-.22.51Z" transform="translate(-10.79 -6.04)"/></svg>